<svg width="68" height="68" viewBox="0 0 68 68" fill="none" xmlns="http://www.w3.org/2000/svg">
<rect width="68" height="68" rx="34" fill="#F5F8E0"/>
<path fill-rule="evenodd" clip-rule="evenodd" d="M34 31.5925L46.8678 18.7225C47.1962 18.394 47.6305 18.2297 48.0625 18.2297C48.9715 18.2297 49.75 18.9587 49.75 19.915C49.75 20.3492 49.5858 20.7812 49.2572 21.112L36.3872 33.9797L49.255 46.8475C49.5858 47.1782 49.75 47.6102 49.75 48.0422C49.75 49.003 48.9648 49.7297 48.0625 49.7297C47.6305 49.7297 47.1962 49.5655 46.8678 49.237L34 36.3692L21.1323 49.237C20.8038 49.5655 20.3695 49.7297 19.9375 49.7297C19.0353 49.7297 18.25 49.003 18.25 48.0422C18.25 47.6102 18.4142 47.1782 18.745 46.8475L31.6128 33.9797L18.7427 21.112C18.4142 20.7812 18.25 20.3492 18.25 19.915C18.25 18.9587 19.0285 18.2297 19.9375 18.2297C20.3695 18.2297 20.8038 18.394 21.1323 18.7225L34 31.5925Z" fill="#0E103B"/>
</svg>
