<svg width="20" height="20" viewBox="0 0 20 20" fill="none" xmlns="http://www.w3.org/2000/svg">
<g id="iconmonstr-check-mark-lined 1">
<path id="Vector" d="M2.59039 10.244L8.11559 15.1771C8.22427 15.2736 8.35955 15.3215 8.49483 15.3215C8.65139 15.3215 8.80643 15.2577 8.91967 15.1323L17.4545 5.63152C17.5525 5.52284 17.6004 5.38756 17.6004 5.25152C17.6004 4.93308 17.3435 4.68152 17.0311 4.68152C16.8746 4.68152 16.7188 4.74536 16.6063 4.87076L8.45075 13.949L3.35039 9.39352C3.24095 9.297 3.10567 9.24912 2.97039 9.24912C2.65347 9.24912 2.40039 9.50448 2.40039 9.81836C2.40039 9.97492 2.46423 10.1315 2.59039 10.244Z" fill="#0E103B"/>
</g>
</svg>
