<svg width="183" height="82" viewBox="0 0 183 82" fill="none" xmlns="http://www.w3.org/2000/svg">
<rect width="183" height="82" rx="20" fill="#4D9C18"/>
<g clip-path="url(#clip0_1242_4488)">
<path d="M168.078 43.5105L168.097 43.4914C170.922 41.2162 172.647 37.9469 172.95 34.3142C173.272 30.5478 172.021 26.724 169.519 23.8561C167.036 20.9882 163.263 19.344 159.226 19.344C155.965 19.344 152.894 20.4338 150.582 22.4222C147.738 24.8694 146.07 28.0623 145.767 31.6567C145.463 35.0981 146.487 38.6925 148.629 41.7707C150.771 44.8489 154.089 46.5505 157.937 46.5887C157.994 46.5887 158.031 46.5887 158.088 46.5887C158.373 46.5887 158.657 46.5696 158.96 46.5505C159.036 48.0226 159.055 49.5522 159.074 51.6553C159.074 52.0759 159.093 52.4774 159.093 52.8789C156.022 52.9554 152.951 52.8215 149.937 52.1141C149.88 52.095 149.842 52.095 149.804 52.095C149.767 51.9229 149.71 51.77 149.634 51.6553C149.331 51.1199 148.667 50.8905 148.079 51.1008C147.492 51.3111 147.188 51.8082 147.302 52.4583C147.416 53.1657 148.041 53.9687 148.762 53.9687C149.008 53.9687 149.463 53.854 149.767 53.1466L149.785 53.0892C152.875 53.8157 156.003 53.9304 159.131 53.854C159.15 54.3893 159.188 54.8864 159.226 55.4026C159.358 57.4484 159.472 59.2455 159.093 61.0236C157.937 61.2339 156.913 62.4384 156.875 63.7577C156.856 64.2739 157.065 64.771 157.482 65.2107C158.05 65.8034 158.979 66.224 159.757 66.224C159.794 66.224 159.851 66.224 159.889 66.224C160.534 66.1858 161.102 65.899 161.538 65.421C162.05 64.8474 162.297 63.9871 162.24 63.0885C162.145 61.5781 161.216 61.1766 160.193 61.0427C160.534 59.2073 160.42 57.391 160.306 55.3261C160.268 54.829 160.249 54.3319 160.211 53.8157C163.263 53.701 166.315 53.4525 169.348 53.4142C169.405 53.4142 169.462 53.3951 169.519 53.376C169.69 53.7966 170.069 54.026 170.581 54.026C170.846 54.026 171.111 53.9687 171.377 53.854C171.964 53.6054 172.268 53.0127 172.135 52.3627C172.002 51.6935 171.491 51.2155 170.884 51.2155C170.694 51.2155 170.524 51.2538 170.334 51.3302L170.258 51.3685C169.974 51.4641 169.728 51.6935 169.595 52.0185C169.538 52.1524 169.5 52.2862 169.462 52.42C169.424 52.42 169.386 52.4009 169.348 52.4009C166.315 52.4391 163.244 52.6877 160.174 52.8215C160.155 52.4392 160.155 52.0376 160.155 51.6361C160.136 49.5139 160.117 47.9653 160.041 46.4549C162.714 46.1298 165.842 45.193 168.059 43.5105C168.078 43.5296 168.078 43.5105 168.078 43.5105ZM149.349 52.7833L149.293 52.9171C149.198 53.1466 149.027 53.3951 148.781 53.3951C148.402 53.3951 147.947 52.8598 147.852 52.3436C147.795 51.9612 147.928 51.7126 148.269 51.5979C148.364 51.5597 148.44 51.5597 148.534 51.5597C148.8 51.5597 149.046 51.6935 149.179 51.9229C149.312 52.1524 149.387 52.5156 149.349 52.7833ZM170.069 52.2671C170.164 52.0759 170.296 51.9421 170.448 51.8847L170.543 51.8465C170.656 51.7891 170.77 51.77 170.884 51.77C171.301 51.77 171.566 52.1332 171.623 52.4965C171.661 52.6495 171.718 53.1657 171.168 53.3951C170.979 53.4716 170.77 53.5289 170.581 53.5289C170.277 53.5289 170.069 53.4142 169.993 53.2039C169.898 52.9362 169.936 52.573 170.069 52.2671ZM161.595 63.1267C161.633 63.8532 161.444 64.5415 161.046 65.0004C160.742 65.3445 160.325 65.5548 159.851 65.574C159.813 65.574 159.794 65.574 159.757 65.574C159.15 65.574 158.392 65.2298 157.937 64.7518C157.728 64.5415 157.501 64.1974 157.52 63.7768C157.558 62.6679 158.505 61.6163 159.51 61.6163C160.875 61.6928 161.538 61.9413 161.595 63.1267ZM160.647 45.5563C160.42 45.5945 160.211 45.6327 160.003 45.671C159.984 45.4798 159.984 45.2695 159.965 45.0783C160.989 44.0841 161.842 42.7649 162.657 41.4648C163.51 40.1073 164.42 38.7116 165.481 37.7557L165.576 37.6601C165.614 37.641 165.633 37.6027 165.671 37.5645L171.225 36.838L171.092 35.7673L166.998 36.3026L171.528 32.0391L170.789 31.2552L164.818 36.8762C163.586 37.9278 162.638 39.419 161.728 40.8721C161.102 41.8663 160.496 42.8222 159.813 43.6252C159.719 42.6311 159.624 41.5413 159.472 40.222C159.245 38.1381 159.093 36.2644 158.998 34.4672C160.647 33.3965 161.519 32.8994 162.827 32.1729C163.226 31.9435 163.662 31.7141 164.173 31.4081C164.951 30.9684 166.012 30.586 167.017 30.2228C168.116 29.8404 169.254 29.4389 170.164 28.9035L169.633 27.9667C168.818 28.4447 167.718 28.8271 166.676 29.1903C166.353 29.305 166.012 29.4198 165.69 29.5536C165.898 29.2094 166.107 28.8271 166.315 28.4447C166.941 27.3167 167.661 26.0357 168.078 25.6151L167.32 24.8694C166.808 25.3856 166.126 26.6284 165.406 27.9285C164.856 28.9035 164.306 29.8977 163.965 30.3184C163.87 30.3566 163.775 30.414 163.68 30.4522C163.169 30.739 162.733 30.9875 162.335 31.1978C161.197 31.8288 160.344 32.3067 158.979 33.1862C158.922 31.4846 158.96 29.8213 159.074 28.0623C160.78 26.7622 164.268 23.684 164.894 22.6325L163.984 22.0589C163.529 22.8045 160.989 25.118 159.188 26.5901C159.339 24.8694 159.586 23.0531 159.946 21.0265L158.885 20.8353C158.505 23.0149 158.259 24.965 158.088 26.7813C156.629 25.4812 155.112 24.1429 154.089 22.6707L153.217 23.3016C154.335 24.8885 155.908 26.3033 157.444 27.6608L157.975 28.1388C157.804 30.6816 157.842 33.0524 158.013 35.5952C156.098 33.6451 153.804 30.3757 152.041 27.8711C151.397 26.9534 150.847 26.1695 150.373 25.5386L149.52 26.1886C149.975 26.8004 150.525 27.5843 151.169 28.502C151.643 29.1903 152.174 29.936 152.724 30.7007C151.548 30.3566 150.108 29.8786 149.084 29.5727L148.117 29.2668L147.795 30.2992L148.743 30.6051C150.297 31.1022 152.629 31.8288 153.728 32.1347C155.207 34.1422 156.78 36.0732 158.088 37.2012C158.145 37.7939 158.183 38.4057 158.259 39.0367C156.724 37.8704 154.733 36.6085 152.8 35.3849C150.923 34.1995 149.141 33.0715 147.871 32.0964L147.226 32.9568C148.534 33.9701 150.335 35.0981 152.231 36.3026C152.705 36.6085 153.179 36.9144 153.672 37.2203C151.833 37.2395 149.785 37.1439 148.288 36.8188L148.06 37.8704C149.501 38.1763 151.416 38.291 153.179 38.291C153.918 38.291 154.619 38.2719 155.264 38.2337C156.477 39.0367 157.577 39.8205 158.43 40.528C158.657 42.6884 158.809 44.2562 158.885 45.7475C158.562 45.7666 158.259 45.7857 157.956 45.7857C154.923 45.7857 152.269 44.6194 150.051 42.3443C145.122 37.2395 145.141 28.9035 150.108 23.7605C152.401 21.3897 155.567 20.0705 158.998 20.0705C162.505 20.0705 165.974 21.4471 168.514 23.8752C171.036 26.2651 172.381 29.7257 172.249 33.3583C172.097 37.1248 170.41 40.6044 167.586 42.8796C165.709 44.3709 163.017 45.0783 160.647 45.5563Z" fill="#F5F8E0"/>
<path d="M16.502 48.4817C15.5921 48.4817 14.758 48.3096 13.9619 47.9464C13.1657 47.5831 12.4833 47.1051 11.8956 46.4742C11.308 45.8433 10.853 45.1168 10.5118 44.2946C10.1706 43.4534 10 42.5739 10 41.618C10 40.5664 10.1896 39.5722 10.5687 38.6545C10.9478 37.7368 11.4596 36.9338 12.1042 36.2455C12.7487 35.5572 13.5069 35.0219 14.3789 34.6204C15.2509 34.2189 16.1798 34.0277 17.1655 34.0277C17.9427 34.0277 18.6441 34.1042 19.2886 34.2762C19.9331 34.4483 20.5018 34.6777 20.9757 34.9645C21.4496 35.2704 21.8098 35.6146 22.0752 36.0161C22.3406 36.4176 22.4733 36.8573 22.4733 37.3162C22.4733 37.5265 22.4164 37.7177 22.3216 37.9089C22.2269 38.1 22.0752 38.253 21.9046 38.3868C21.734 38.5207 21.5444 38.6354 21.317 38.7119C21.0895 38.7883 20.881 38.8266 20.6535 38.8266C20.407 38.8266 20.1796 38.7883 19.99 38.6927C19.7815 38.5971 19.6298 38.4824 19.4782 38.3486C19.3455 38.1956 19.2318 38.0427 19.1559 37.8515C19.0801 37.6603 19.0422 37.4882 19.0422 37.297C19.0422 36.972 19.0043 36.6661 18.9474 36.3984C18.8716 36.1117 18.7578 35.8822 18.5872 35.6719C18.4166 35.4616 18.1892 35.3087 17.8858 35.1939C17.5825 35.0792 17.2034 35.0219 16.7485 35.0219C16.1229 35.0219 15.5542 35.1557 15.0614 35.4043C14.5685 35.6528 14.1514 35.9969 13.8102 36.4367C13.469 36.8573 13.2036 37.3735 13.033 37.9471C12.8624 38.5207 12.7676 39.1516 12.7676 39.8016C12.7676 40.6811 12.8814 41.5224 13.1088 42.3062C13.3363 43.1093 13.6586 43.7975 14.0756 44.3902C14.4927 44.9829 15.0045 45.4609 15.5921 45.805C16.1798 46.1492 16.8432 46.3213 17.5636 46.3213C18.2081 46.3213 18.7578 46.2257 19.2128 46.0154C19.6867 45.805 20.0848 45.5374 20.445 45.1932C20.7862 44.8491 21.0895 44.4476 21.3359 43.9887C21.5823 43.5299 21.8098 43.0519 21.9994 42.5357L22.8335 42.8798C22.606 43.7402 22.3027 44.5241 21.9046 45.2123C21.5065 45.9006 21.0516 46.4742 20.5018 46.9522C19.971 47.4302 19.3644 47.7934 18.701 48.042C18.0185 48.367 17.2982 48.4817 16.502 48.4817Z" fill="#F5F8E0"/>
<path d="M23.572 34.3336H26.6809L31.9886 44.352L36.3297 34.3336H37.7893L30.7754 50.6231C30.4911 51.2922 30.1499 51.8849 29.7518 52.4011C29.3727 52.8982 28.9556 53.3188 28.5196 53.6439C28.0836 53.9689 27.6476 54.2174 27.1927 54.3704C26.7377 54.5234 26.2828 54.5998 25.8468 54.5998C25.5435 54.5998 25.2591 54.5616 24.9937 54.4851C24.7284 54.4086 24.5009 54.2939 24.2924 54.1601C24.1028 54.0263 23.9322 53.8542 23.8185 53.6439C23.7047 53.4527 23.6478 53.2233 23.6478 52.9938C23.6478 52.8026 23.6858 52.6114 23.7616 52.4394C23.8374 52.2482 23.9511 52.0952 24.0838 51.9614C24.2165 51.8276 24.3871 51.7128 24.5957 51.6172C24.8042 51.5408 25.0127 51.4834 25.2591 51.4834C25.5624 51.4834 25.7899 51.5217 25.9416 51.579C26.1122 51.6364 26.2638 51.7128 26.3965 51.7893C26.5292 51.8658 26.6809 51.9423 26.8325 51.9996C26.9842 52.057 27.1927 52.0952 27.4581 52.0952C27.7424 52.0952 27.9889 52.0187 28.2163 51.8467C28.4249 51.6937 28.6334 51.4834 28.8229 51.2349C29.0125 50.9863 29.1641 50.7187 29.2968 50.4319C29.4295 50.1451 29.5622 49.8774 29.676 49.6289L30.6048 47.5449L23.572 34.3336Z" fill="#F5F8E0"/>
<path d="M44.1027 48.4817C43.1928 48.4817 42.3587 48.3097 41.5625 47.9464C40.7664 47.5831 40.0839 47.1052 39.4963 46.4742C38.9086 45.8433 38.4537 45.1168 38.1125 44.2947C37.7713 43.4534 37.6006 42.5739 37.6006 41.618C37.6006 40.5664 37.7902 39.5722 38.1693 38.6545C38.5485 37.7368 39.0603 36.9338 39.7048 36.2455C40.3493 35.5572 41.1076 35.0219 41.9796 34.6204C42.8516 34.2189 43.7804 34.0277 44.7662 34.0277C45.5434 34.0277 46.2448 34.1042 46.8893 34.2763C47.5338 34.4483 48.1025 34.6778 48.5764 34.9645C49.0503 35.2704 49.4105 35.6146 49.6759 36.0161C49.9412 36.4176 50.0739 36.8573 50.0739 37.3162C50.0739 37.5265 50.0171 37.7177 49.9223 37.9089C49.8275 38.1001 49.6759 38.253 49.5052 38.3869C49.3346 38.5207 49.1451 38.6354 48.9176 38.7119C48.6901 38.7884 48.4816 38.8266 48.2541 38.8266C48.0077 38.8266 47.7802 38.7884 47.5907 38.6928C47.3821 38.5972 47.2305 38.4825 47.0788 38.3486C46.9461 38.1957 46.8324 38.0427 46.7566 37.8515C46.6807 37.6603 46.6428 37.4883 46.6428 37.2971C46.6428 36.972 46.6049 36.6661 46.5481 36.3985C46.4722 36.1117 46.3585 35.8823 46.1879 35.672C46.0173 35.4616 45.7898 35.3087 45.4865 35.194C45.1832 35.0793 44.8041 35.0219 44.3491 35.0219C43.7236 35.0219 43.1549 35.1557 42.662 35.4043C42.1691 35.6528 41.7521 35.997 41.4109 36.4367C41.0697 36.8573 40.8043 37.3736 40.6337 37.9471C40.4631 38.5207 40.3683 39.1516 40.3683 39.8017C40.3683 40.6812 40.482 41.5224 40.7095 42.3063C40.937 43.1093 41.2592 43.7976 41.6763 44.3903C42.0933 44.983 42.6051 45.4609 43.1928 45.8051C43.7804 46.1492 44.4439 46.3213 45.1642 46.3213C45.8088 46.3213 46.3585 46.2257 46.8134 46.0154C47.2873 45.8051 47.6854 45.5374 48.0456 45.1933C48.3868 44.8491 48.6901 44.4476 48.9366 43.9888C49.183 43.5299 49.4105 43.0519 49.6 42.5357L50.4341 42.8799C50.2066 43.7402 49.9033 44.5241 49.5052 45.2124C49.1072 45.9007 48.6522 46.4742 48.1025 46.9522C47.5717 47.4302 46.9651 47.7935 46.3016 48.042C45.6192 48.367 44.8799 48.4817 44.1027 48.4817Z" fill="#F5F8E0"/>
<path d="M55.5337 48.1948H52.804V28.0051L54.7565 27.2212H55.5337V48.1948Z" fill="#F5F8E0"/>
<path d="M64.6706 48.4815C63.7417 48.4815 62.8697 48.3094 62.0546 47.9462C61.2395 47.5829 60.5191 47.1049 59.9125 46.5123C59.3059 45.9004 58.8131 45.193 58.4529 44.39C58.0927 43.5679 57.9221 42.7076 57.9221 41.7707C57.9221 40.6427 58.0927 39.6294 58.415 38.6734C58.7372 37.7366 59.1922 36.9145 59.7798 36.2262C60.3675 35.5379 61.0878 35.0026 61.9219 34.6202C62.756 34.2378 63.6849 34.0466 64.7085 34.0466C65.6184 34.0466 66.4335 34.1996 67.1918 34.5246C67.95 34.8496 68.5946 35.2702 69.1253 35.8056C69.6561 36.3409 70.0921 36.9527 70.3765 37.6601C70.6798 38.3675 70.8314 39.094 70.8314 39.8779H60.576C60.576 40.8148 60.6897 41.6751 60.9362 42.459C61.1826 43.2429 61.5049 43.9312 61.9409 44.5239C62.3769 45.1166 62.8887 45.5563 63.4763 45.8813C64.064 46.2063 64.7275 46.3784 65.4288 46.3784C66.0354 46.3784 66.6041 46.2828 67.1349 46.0916C67.6847 45.9004 68.1775 45.6519 68.6135 45.3269C69.0495 45.0018 69.4286 44.6386 69.7509 44.2371C70.0732 43.8356 70.2817 43.415 70.4144 42.9752L71.1916 43.3385C71.002 44.0459 70.6798 44.7151 70.2438 45.346C69.8078 45.9769 69.2959 46.5123 68.7083 46.9902C68.1206 47.4491 67.4761 47.8315 66.7937 48.0991C66.0923 48.3477 65.3909 48.4815 64.6706 48.4815ZM67.4003 38.769C67.4003 38.2528 67.3055 37.7557 67.116 37.2968C66.9264 36.838 66.68 36.4556 66.3577 36.1115C66.0354 35.7864 65.6563 35.5188 65.2203 35.3276C64.7843 35.1364 64.3294 35.0408 63.8365 35.0408C63.4195 35.0408 63.0214 35.1364 62.6423 35.3276C62.2631 35.5188 61.9409 35.7673 61.6376 36.1115C61.3532 36.4365 61.1068 36.838 60.8983 37.2777C60.7087 37.7175 60.595 38.2146 60.5571 38.7499L67.4003 38.769Z" fill="#F5F8E0"/>
<path d="M95.6453 48.4815C94.7165 48.4815 93.8445 48.3094 93.0293 47.9462C92.2142 47.5829 91.4939 47.1049 90.8873 46.5123C90.2807 45.9004 89.7878 45.193 89.4276 44.39C89.0675 43.5679 88.8969 42.7076 88.8969 41.7707C88.8969 40.6427 89.0485 39.6294 89.3708 38.6734C89.693 37.7366 90.148 36.9145 90.7356 36.2262C91.3233 35.5379 92.0436 35.0026 92.8777 34.6202C93.7118 34.2378 94.6406 34.0466 95.6643 34.0466C96.5742 34.0466 97.3893 34.1996 98.1476 34.5246C98.9058 34.8496 99.5503 35.2702 100.081 35.8056C100.631 36.3409 101.048 36.9527 101.332 37.6601C101.636 38.3675 101.787 39.094 101.787 39.8779H91.5318C91.5318 40.8148 91.6455 41.6751 91.892 42.459C92.1194 43.2429 92.4606 43.9312 92.8966 44.5239C93.3326 45.1166 93.8445 45.5563 94.4321 45.8813C95.0198 46.2063 95.6832 46.3784 96.3846 46.3784C96.9912 46.3784 97.5599 46.2828 98.0907 46.0916C98.6404 45.9004 99.1333 45.6519 99.5693 45.3269C100.005 45.0018 100.384 44.6386 100.707 44.2371C101.01 43.8356 101.237 43.415 101.37 42.9752L102.147 43.3385C101.939 44.0459 101.636 44.7151 101.2 45.346C100.764 45.9769 100.252 46.5123 99.6641 46.9902C99.0764 47.4491 98.4319 47.8315 97.7495 48.0991C97.0481 48.3477 96.3467 48.4815 95.6453 48.4815ZM98.375 38.769C98.375 38.2528 98.2803 37.7557 98.0907 37.2968C97.9011 36.838 97.6547 36.4556 97.3324 36.1115C97.0102 35.7864 96.631 35.5188 96.1951 35.3276C95.7591 35.1364 95.3041 35.0408 94.8112 35.0408C94.3942 35.0408 93.9961 35.1364 93.617 35.3276C93.2379 35.5188 92.9156 35.7673 92.6123 36.1115C92.309 36.4365 92.0815 36.838 91.873 37.2777C91.6834 37.7175 91.5697 38.2146 91.5318 38.7499L98.375 38.769Z" fill="#F5F8E0"/>
<path d="M104.421 34.3143H107.132V36.9336C107.397 36.5321 107.681 36.1688 107.985 35.8247C108.288 35.4805 108.61 35.1746 108.951 34.907C109.293 34.6393 109.634 34.429 109.975 34.276C110.335 34.1231 110.695 34.0466 111.056 34.0466C111.359 34.0466 111.624 34.0848 111.89 34.1804C112.155 34.276 112.364 34.3907 112.572 34.5437C112.762 34.6967 112.913 34.8687 113.027 35.079C113.141 35.2893 113.198 35.4997 113.198 35.71C113.198 36.1688 113.065 36.4938 112.781 36.7233C112.515 36.9527 112.117 37.0674 111.624 37.0674C111.321 37.0674 111.075 37.0292 110.885 36.9718C110.695 36.8953 110.544 36.838 110.392 36.7615C110.241 36.685 110.089 36.6086 109.937 36.5512C109.786 36.4747 109.596 36.4556 109.35 36.4556C109.16 36.4556 108.989 36.513 108.819 36.6277C108.629 36.7424 108.459 36.8953 108.269 37.0865C108.079 37.2777 107.89 37.5072 107.7 37.7748C107.511 38.0425 107.321 38.3293 107.132 38.6352V48.2521H104.421V34.3143Z" fill="#F5F8E0"/>
<path d="M115.247 34.3143H117.957V36.9336C118.223 36.5321 118.507 36.1688 118.81 35.8247C119.114 35.4805 119.436 35.1746 119.777 34.907C120.118 34.6393 120.46 34.429 120.801 34.276C121.161 34.1231 121.521 34.0466 121.881 34.0466C122.185 34.0466 122.45 34.0848 122.715 34.1804C122.962 34.276 123.189 34.3907 123.398 34.5437C123.587 34.6967 123.739 34.8687 123.853 35.079C123.966 35.2893 124.023 35.4997 124.023 35.71C124.023 36.1688 123.891 36.4938 123.606 36.7233C123.341 36.9527 122.943 37.0674 122.45 37.0674C122.147 37.0674 121.9 37.0292 121.711 36.9718C121.521 36.8953 121.369 36.838 121.218 36.7615C121.066 36.685 120.915 36.6086 120.763 36.5512C120.611 36.4747 120.422 36.4556 120.175 36.4556C119.986 36.4556 119.815 36.513 119.625 36.6277C119.436 36.7424 119.265 36.8953 119.076 37.0865C118.886 37.2777 118.697 37.5072 118.507 37.7748C118.317 38.0425 118.128 38.3293 117.938 38.6352V48.2521H115.228V34.3143H115.247Z" fill="#F5F8E0"/>
<path d="M131.018 48.4815C130.089 48.4815 129.217 48.3094 128.402 47.9462C127.587 47.5829 126.866 47.1049 126.26 46.5123C125.653 45.9004 125.16 45.193 124.8 44.39C124.44 43.5679 124.269 42.7076 124.269 41.7707C124.269 40.6427 124.44 39.6294 124.762 38.6734C125.085 37.7366 125.539 36.9145 126.127 36.2262C126.715 35.5379 127.435 35.0026 128.269 34.6202C129.103 34.2378 130.032 34.0466 131.056 34.0466C131.966 34.0466 132.781 34.1996 133.539 34.5246C134.278 34.8496 134.942 35.2702 135.473 35.8056C136.022 36.3409 136.439 36.9527 136.724 37.6601C137.027 38.3675 137.179 39.094 137.179 39.8779H126.923C126.923 40.8148 127.037 41.6751 127.283 42.459C127.511 43.2429 127.852 43.9312 128.288 44.5239C128.724 45.1166 129.236 45.5563 129.824 45.8813C130.411 46.2063 131.075 46.3784 131.776 46.3784C132.383 46.3784 132.951 46.2828 133.482 46.0916C134.032 45.9004 134.525 45.6519 134.961 45.3269C135.397 45.0018 135.776 44.6386 136.098 44.2371C136.401 43.8356 136.629 43.415 136.762 42.9752L137.539 43.3385C137.33 44.0459 137.027 44.7151 136.591 45.346C136.155 45.9769 135.643 46.5123 135.056 46.9902C134.468 47.4491 133.823 47.8315 133.141 48.0991C132.421 48.3477 131.719 48.4815 131.018 48.4815ZM133.748 38.769C133.748 38.2528 133.653 37.7557 133.463 37.2968C133.274 36.838 133.027 36.4556 132.705 36.1115C132.383 35.7864 132.004 35.5188 131.568 35.3276C131.132 35.1364 130.677 35.0408 130.184 35.0408C129.767 35.0408 129.369 35.1364 128.99 35.3276C128.61 35.5188 128.288 35.7673 127.985 36.1115C127.682 36.4365 127.454 36.838 127.246 37.2777C127.056 37.7175 126.942 38.2146 126.904 38.7499L133.748 38.769Z" fill="#F5F8E0"/>
<path d="M80.12 44.9062C80.12 45.4033 80.0252 45.8622 79.8357 46.3019C79.6461 46.7417 79.3997 47.124 79.0774 47.4491C78.7552 47.7741 78.395 48.0418 77.959 48.2138C77.542 48.405 77.087 48.5006 76.5941 48.5006C76.0065 48.5006 75.4757 48.4241 74.9828 48.2521C74.49 48.08 74.054 47.8314 73.6938 47.5255C73.3336 47.2196 73.0493 46.8372 72.8408 46.3975C72.6323 45.9578 72.5375 45.4607 72.5375 44.9253C72.5375 44.4474 72.6133 44.0076 72.7839 43.6061C72.9545 43.2046 73.182 42.8605 73.4474 42.5737C73.7317 42.2869 74.054 42.0575 74.4142 41.9045C74.7743 41.7516 75.1724 41.656 75.5705 41.656V47.124C76.0634 47.124 76.5183 47.0667 76.9353 46.9328C77.3524 46.799 77.7126 46.6269 78.0159 46.3975C78.3192 46.1681 78.5656 45.9004 78.7362 45.5754C78.9068 45.2504 78.9826 44.9062 78.9826 44.5238C78.9826 44.1988 78.9258 43.8929 78.831 43.6061C78.7362 43.3193 78.6035 43.0517 78.4329 42.8222C78.2623 42.5928 78.0727 42.3825 77.8642 42.2104C77.6557 42.0384 77.4282 41.9236 77.2007 41.8472L77.3903 41.4265C77.7694 41.5221 78.1106 41.6942 78.4329 41.9236C78.7552 42.1531 79.0395 42.4207 79.2859 42.7458C79.5324 43.0517 79.7219 43.3958 79.8736 43.7782C80.0442 44.1415 80.12 44.5238 80.12 44.9062ZM75.0397 43.434C74.7554 43.434 74.5089 43.4914 74.2625 43.587C74.0161 43.6826 73.8265 43.8164 73.6369 43.9885C73.4663 44.1606 73.3336 44.3709 73.2389 44.6003C73.1441 44.8297 73.0872 45.0783 73.0872 45.346C73.0872 45.5754 73.1441 45.7857 73.2389 45.9769C73.3336 46.1681 73.4663 46.3593 73.6369 46.5122C73.8076 46.6652 74.0161 46.799 74.2435 46.8946C74.471 46.9902 74.7364 47.0667 75.0018 47.0858L75.0397 43.434Z" fill="#F5F8E0"/>
<path d="M87.6833 45.9579C87.4937 46.1682 87.2662 46.3594 87.0198 46.5124C86.7544 46.6653 86.489 46.7418 86.1857 46.7418C85.9772 46.7418 85.7876 46.7036 85.5981 46.6271C85.4085 46.5506 85.2569 46.4359 85.1242 46.3021C84.9915 46.1682 84.8777 46.0153 84.8019 45.8241C84.7261 45.652 84.6882 45.4608 84.6882 45.2505V35.4615H87.778V34.2953H84.6882V29.5537H83.7403C83.6456 29.9744 83.5508 30.395 83.437 30.7774C83.2475 31.4083 83.001 31.9627 82.6977 32.4407C82.3755 32.9187 81.9774 33.3011 81.4845 33.5688C80.9917 33.8555 80.3661 33.9894 79.5889 33.9894H74.755C74.4517 33.9894 74.1674 34.0276 73.902 34.1423C73.6366 34.2379 73.4091 34.3718 73.2006 34.5438C73.011 34.7159 72.8404 34.9071 72.7267 35.1365C72.613 35.3659 72.5561 35.5954 72.5561 35.863C72.5561 36.3601 72.6698 36.8381 72.9163 37.3161C73.1627 37.7941 73.5229 38.2529 74.0157 38.6927H72.6888V40.1457H79.9491V38.6927H74.5655C74.4138 38.5206 74.2622 38.3485 74.1295 38.1765C73.9968 38.0044 73.883 37.8323 73.7883 37.6411C73.6935 37.469 73.6176 37.297 73.5797 37.1058C73.5229 36.9337 73.5039 36.7616 73.5039 36.6087C73.5039 36.2645 73.6366 35.9778 73.883 35.7674C74.1295 35.5571 74.4896 35.4424 74.9825 35.4424H81.9395V45.2314C81.9395 45.7094 81.9964 46.1491 82.1101 46.5506C82.2238 46.9521 82.3755 47.2963 82.603 47.5639C82.8115 47.8507 83.0958 48.061 83.437 48.2331C83.7783 48.3861 84.1763 48.4625 84.6313 48.4625C85.5222 48.4625 86.2805 48.2713 86.8871 47.9081C87.4937 47.5257 87.9866 47.0286 88.3467 46.3977L87.6833 45.9579Z" fill="#F5F8E0"/>
<path d="M46.3409 58.0984H41.1279V58.4808H46.3409V58.0984Z" fill="#F5F8E0"/>
<path d="M106.753 58.0984H101.54V58.4808H106.753V58.0984Z" fill="#F5F8E0"/>
<path d="M49.8843 59.456C49.9791 59.6854 50.0739 59.9149 50.1686 60.106C50.2634 60.2972 50.3961 60.4884 50.5288 60.6223C50.6805 60.7752 50.8321 60.8899 51.0217 60.9664C51.2112 61.0429 51.4387 61.0811 51.6851 61.0811C51.8557 61.0811 51.9884 61.062 52.1211 61.0046C52.2538 60.9473 52.3676 60.8708 52.4813 60.7561C52.595 60.6414 52.6898 60.5267 52.7467 60.3737C52.8036 60.2208 52.8415 60.0678 52.8415 59.8766C52.8415 59.6472 52.8036 59.456 52.7088 59.3222C52.633 59.1692 52.5192 59.0354 52.3865 58.9398C52.2538 58.8442 52.1211 58.7486 51.9695 58.6721C51.8178 58.5956 51.6472 58.5 51.4766 58.4236C51.2681 58.328 51.0596 58.2324 50.8321 58.1177C50.6046 58.0029 50.4151 57.8691 50.2445 57.697C50.0738 57.525 49.9412 57.3529 49.8464 57.1426C49.7516 56.9514 49.7137 56.7028 49.7137 56.4352C49.7137 56.1484 49.7705 55.8998 49.8843 55.6704C49.998 55.441 50.1497 55.2689 50.3582 55.116C50.5478 54.963 50.7942 54.8483 51.0596 54.7718C51.3439 54.6953 51.6283 54.6571 51.9126 54.6571C52.197 54.6571 52.4624 54.6762 52.7088 54.7145C52.9552 54.7527 53.2206 54.8101 53.505 54.8865C53.486 55.0395 53.486 55.1733 53.467 55.288C53.467 55.4219 53.4481 55.5366 53.4481 55.6513C53.4481 55.766 53.4481 55.8998 53.4481 56.0146C53.4481 56.1484 53.4481 56.2822 53.4481 56.4161L53.1448 56.4352C53.1069 55.9572 52.9552 55.5939 52.7088 55.3645C52.4624 55.1351 52.1211 55.0204 51.7041 55.0204C51.5904 55.0204 51.4577 55.0395 51.325 55.0968C51.1923 55.1542 51.0785 55.2116 50.9648 55.3072C50.87 55.4027 50.7942 55.5175 50.7373 55.6513C50.6805 55.7851 50.6615 55.9381 50.6615 56.091C50.6615 56.3013 50.6994 56.4925 50.7752 56.6455C50.8511 56.7984 50.9458 56.9132 51.0596 57.0088C51.1733 57.1043 51.325 57.1808 51.4766 57.2573C51.6283 57.3338 51.7989 57.4103 51.9884 57.4867C52.197 57.5823 52.4244 57.697 52.6709 57.8309C52.9173 57.9647 53.1069 58.1177 53.2585 58.2706C53.4102 58.4236 53.5429 58.5956 53.6566 58.8059C53.7703 59.0163 53.8272 59.2648 53.8272 59.5325C53.8272 59.8384 53.7703 60.1252 53.6376 60.3546C53.505 60.6031 53.3533 60.7943 53.1448 60.9664C52.9363 61.1385 52.6898 61.2532 52.4055 61.3488C52.1211 61.4444 51.8368 61.4826 51.5524 61.4826C51.306 61.4826 51.0406 61.4635 50.7752 61.4061C50.5098 61.3488 50.2255 61.2914 49.9222 61.1958C49.8843 60.8899 49.8464 60.6223 49.8085 60.3546C49.7706 60.0869 49.6947 59.8001 49.6189 59.5134L49.8843 59.456Z" fill="#F5F8E0"/>
<path d="M56.2345 60.24C56.2345 60.3929 56.2345 60.5267 56.2534 60.6223C56.2724 60.7179 56.3103 60.7944 56.3672 60.8518C56.424 60.9091 56.5188 60.9474 56.6326 60.9665C56.7463 60.9856 56.898 61.0047 57.0686 61.0047H57.4666C57.732 61.0047 57.9406 60.9856 58.1112 60.9474C58.2818 60.9091 58.4145 60.8327 58.5282 60.7371C58.6419 60.6415 58.7367 60.5076 58.8315 60.3356C58.9263 60.1635 59.0211 59.9723 59.1158 59.7237L59.4002 59.7811C59.3623 59.9149 59.3244 60.0488 59.3054 60.2017C59.2675 60.3547 59.2485 60.5076 59.2106 60.6415C59.1917 60.7944 59.1538 60.9282 59.1348 61.043C59.1158 61.1768 59.0969 61.2724 59.0969 61.3489C58.187 61.3489 57.4477 61.3489 56.898 61.3489C56.3482 61.3489 55.9312 61.3489 55.6468 61.3489C55.5331 61.3489 55.4194 61.3489 55.3056 61.3489C55.1919 61.3489 55.0781 61.3489 54.9644 61.3489C54.8507 61.3489 54.7369 61.3489 54.6232 61.3489C54.5095 61.3489 54.4147 61.3489 54.3388 61.3489L54.3199 61.1003C54.5284 61.0812 54.699 61.0621 54.8128 61.043C54.9454 61.0047 55.0402 60.9665 55.0971 60.9091C55.1729 60.8518 55.2108 60.7562 55.2298 60.6606C55.2487 60.5459 55.2677 60.412 55.2677 60.24V55.6705C55.2677 55.5558 55.2487 55.4793 55.2298 55.4028C55.2108 55.3264 55.1729 55.269 55.1161 55.2308C55.0592 55.1734 54.9644 55.1543 54.8507 55.116C54.7369 55.0969 54.5853 55.0778 54.3957 55.0587L54.4147 54.791C54.5094 54.791 54.6042 54.791 54.718 54.791C54.8317 54.791 54.9454 54.791 55.0592 54.791C55.1729 54.791 55.3056 54.791 55.4194 54.791C55.552 54.791 55.6468 54.791 55.7606 54.791C55.9312 54.791 56.3103 54.791 56.879 54.791C57.4477 54.791 58.168 54.791 59.04 54.791C59.0211 55.0204 58.9832 55.269 58.9832 55.5175C58.9642 55.7661 58.9642 56.0529 58.9642 56.3397H58.6609C58.623 56.1102 58.5661 55.8999 58.5282 55.747C58.4713 55.594 58.4145 55.4793 58.3197 55.3837C58.2249 55.2881 58.1112 55.2308 57.9595 55.1925C57.8079 55.1543 57.6183 55.1352 57.3908 55.1352H56.5378C56.4051 55.1352 56.3103 55.1543 56.2724 55.1734C56.2345 55.1925 56.2155 55.269 56.2155 55.3837V57.7354L58.4145 57.6589L58.4713 57.7162L58.4524 58.2898C58.0353 58.2516 57.6562 58.2325 57.2771 58.2133C56.9169 58.1942 56.5567 58.1942 56.2155 58.1751V60.24H56.2345Z" fill="#F5F8E0"/>
<path d="M59.8171 54.8099C59.874 54.8099 59.9687 54.8099 60.1014 54.8099C60.2341 54.8099 60.3858 54.8099 60.5374 54.8099C60.6891 54.8099 60.8787 54.8099 61.0872 54.8099C61.2957 54.8099 61.4663 54.8099 61.58 54.8099C61.6559 55.0011 61.7506 55.1923 61.8265 55.3835C61.9023 55.5747 61.9971 55.7659 62.0729 55.9571L63.9685 60.125L65.6936 55.8806C65.7694 55.7085 65.8452 55.5173 65.921 55.3452C65.9969 55.1732 66.0727 54.982 66.1296 54.8099C66.2243 54.8099 66.357 54.8099 66.5656 54.8099C66.7741 54.8099 66.9636 54.8099 67.1343 54.8099C67.3049 54.8099 67.4755 54.8099 67.6082 54.8099C67.7598 54.8099 67.8546 54.8099 67.9304 54.8099L67.9494 55.0585C67.7598 55.0776 67.5892 55.0967 67.4755 55.1158C67.3617 55.1541 67.2669 55.1923 67.2101 55.2496C67.1532 55.307 67.1153 55.4026 67.0963 55.4982C67.0774 55.6129 67.0774 55.7467 67.0774 55.9188L67.2101 60.4883C67.2101 60.603 67.229 60.6795 67.248 60.7559C67.267 60.8324 67.3238 60.8898 67.3807 60.928C67.4376 60.9854 67.5323 61.0045 67.665 61.0427C67.7788 61.0619 67.9494 61.081 68.1389 61.1001L68.12 61.3678C68.0442 61.3678 67.9494 61.3678 67.8356 61.3678C67.7219 61.3678 67.6082 61.3678 67.4944 61.3678C67.3807 61.3678 67.248 61.3678 67.1343 61.3678C67.0205 61.3678 66.8878 61.3678 66.7362 61.3678C66.5845 61.3678 66.4518 61.3678 66.357 61.3678C66.2623 61.3678 66.1675 61.3678 66.0727 61.3678C65.9779 61.3678 65.8831 61.3678 65.8073 61.3678C65.7125 61.3678 65.6557 61.3678 65.5798 61.3678L65.5609 61.1192C65.7315 61.1001 65.8452 61.081 65.959 61.0619C66.0537 61.0236 66.1296 60.9854 66.1864 60.928C66.2433 60.8707 66.2623 60.7751 66.2812 60.6795C66.3002 60.5648 66.3002 60.4309 66.3002 60.2588L66.1675 55.9379C65.7884 56.8365 65.4092 57.7542 65.0111 58.6528C64.632 59.5706 64.2718 60.4883 63.9496 61.4251L63.5515 61.4633C63.4188 61.1383 63.1155 60.45 62.6416 59.3794C62.1677 58.3087 61.6938 57.2954 61.2578 56.3203L61.1061 60.1633C61.1061 60.3736 61.1061 60.5456 61.1251 60.6603C61.144 60.7751 61.182 60.8707 61.2388 60.928C61.2957 60.9854 61.3905 61.0236 61.4853 61.0427C61.599 61.0619 61.7317 61.081 61.9023 61.1001L61.8833 61.3678C61.7317 61.3678 61.58 61.3678 61.4094 61.3678C61.2388 61.3678 61.0493 61.3678 60.8028 61.3678C60.6322 61.3678 60.4427 61.3678 60.272 61.3678C60.0825 61.3678 59.9119 61.3678 59.7602 61.3678L59.7413 61.1192C59.9308 61.1001 60.0825 61.081 60.1962 61.0619C60.31 61.0427 60.4047 60.9854 60.4806 60.9089C60.5564 60.8324 60.5943 60.7177 60.6133 60.5648C60.6322 60.4118 60.6512 60.2015 60.6701 59.9147L60.8218 56.3968C60.8218 56.2247 60.8218 56.0909 60.8218 55.9762C60.8218 55.8615 60.8028 55.7659 60.7839 55.6894C60.7649 55.6129 60.746 55.5364 60.708 55.4791C60.6701 55.4217 60.6322 55.3644 60.5943 55.307C60.4995 55.2114 60.4047 55.1541 60.272 55.1349C60.1394 55.0967 59.9877 55.0776 59.8171 55.0776V54.8099Z" fill="#F5F8E0"/>
<path d="M70.3758 60.24C70.3758 60.3929 70.3758 60.5267 70.3948 60.6223C70.4137 60.7179 70.4517 60.7944 70.5085 60.8518C70.5654 60.9091 70.6602 60.9474 70.7739 60.9665C70.8877 60.9856 71.0393 61.0047 71.2099 61.0047H71.608C71.8734 61.0047 72.0819 60.9856 72.2525 60.9474C72.4231 60.9091 72.5558 60.8327 72.6696 60.7371C72.7833 60.6415 72.8781 60.5076 72.9729 60.3356C73.0676 60.1635 73.1624 59.9723 73.2572 59.7237L73.5415 59.7811C73.5036 59.9149 73.4657 60.0488 73.4468 60.2017C73.4089 60.3547 73.3899 60.5076 73.352 60.6415C73.333 60.7944 73.2951 60.9282 73.2762 61.043C73.2572 61.1768 73.2382 61.2724 73.2382 61.3489C72.3283 61.3489 71.589 61.3489 71.0393 61.3489C70.4896 61.3489 70.0725 61.3489 69.7882 61.3489C69.6745 61.3489 69.5607 61.3489 69.447 61.3489C69.3332 61.3489 69.2195 61.3489 69.1058 61.3489C68.992 61.3489 68.8783 61.3489 68.7645 61.3489C68.6508 61.3489 68.556 61.3489 68.4802 61.3489L68.4612 61.1003C68.6698 61.0812 68.8404 61.0621 68.9541 61.043C69.0868 61.0047 69.1816 60.9665 69.2385 60.9091C69.3143 60.8518 69.3522 60.7562 69.3711 60.6606C69.3901 60.5459 69.4091 60.412 69.4091 60.24V55.6705C69.4091 55.5558 69.3901 55.4793 69.3711 55.4028C69.3522 55.3264 69.3143 55.269 69.2574 55.2308C69.2005 55.1734 69.1058 55.1543 68.992 55.116C68.8783 55.0969 68.7266 55.0778 68.5371 55.0587L68.556 54.791C68.6508 54.791 68.7456 54.791 68.8593 54.791C68.9731 54.791 69.0868 54.791 69.2005 54.791C69.3143 54.791 69.447 54.791 69.5607 54.791C69.6934 54.791 69.7882 54.791 69.9019 54.791C70.0725 54.791 70.4517 54.791 71.0204 54.791C71.589 54.791 72.3094 54.791 73.1814 54.791C73.1624 55.0204 73.1245 55.269 73.1245 55.5175C73.1056 55.7661 73.1056 56.0529 73.1056 56.3397H72.8022C72.7643 56.1102 72.7075 55.8999 72.6696 55.747C72.6127 55.594 72.5558 55.4793 72.461 55.3837C72.3663 55.2881 72.2525 55.2308 72.1009 55.1925C71.9492 55.1543 71.7596 55.1352 71.5322 55.1352H70.6791C70.5464 55.1352 70.4517 55.1543 70.4137 55.1734C70.3758 55.1925 70.3569 55.269 70.3569 55.3837V57.7354L72.5558 57.6589L72.6127 57.7162L72.5937 58.2898C72.1767 58.2516 71.7976 58.2325 71.4184 58.2133C71.0583 58.1942 70.6981 58.1942 70.3569 58.1751V60.24H70.3758Z" fill="#F5F8E0"/>
<path d="M79.7398 61.4633C79.6261 61.2913 79.5123 61.1383 79.3796 60.9663C79.2659 60.8133 79.1332 60.6604 79.0005 60.4883L75.3609 56.2056V60.1633C75.3609 60.3736 75.3798 60.5456 75.3988 60.6603C75.4178 60.7751 75.4746 60.8707 75.5315 60.928C75.6073 60.9854 75.6831 61.0236 75.7969 61.0427C75.9106 61.0619 76.0623 61.081 76.2518 61.1001L76.2329 61.3678C76.0812 61.3678 75.9106 61.3678 75.7211 61.3678C75.5315 61.3678 75.323 61.3678 75.0955 61.3678C74.9059 61.3678 74.7164 61.3678 74.5268 61.3678C74.3372 61.3678 74.1666 61.3678 74.015 61.3678L73.996 61.1192C74.1856 61.1001 74.3183 61.081 74.451 61.0619C74.5837 61.0427 74.6595 60.9854 74.7353 60.9089C74.8112 60.8324 74.8491 60.7177 74.887 60.5648C74.9059 60.4118 74.9249 60.2015 74.9249 59.9147V56.5115C74.9249 56.3203 74.9249 56.1674 74.9249 56.0526C74.9249 55.9379 74.9059 55.8423 74.887 55.7659C74.868 55.6894 74.8491 55.632 74.8301 55.5747C74.8112 55.5173 74.7732 55.4791 74.7164 55.4217C74.6785 55.3644 74.6216 55.307 74.5837 55.2688C74.5458 55.2305 74.4889 55.1923 74.432 55.1732C74.3752 55.154 74.2993 55.1158 74.2235 55.1158C74.1287 55.0967 74.0339 55.0967 73.9012 55.0776L73.9202 54.8099C73.9771 54.8099 74.0529 54.8099 74.1666 54.8099C74.2804 54.8099 74.3941 54.8099 74.5268 54.8099C74.6595 54.8099 74.8112 54.8099 75.0007 54.8099C75.1903 54.8099 75.3419 54.8099 75.4557 54.8099L79.7209 59.8191V56.0144C79.7209 55.8041 79.7019 55.632 79.6829 55.5173C79.664 55.4026 79.6071 55.307 79.5502 55.2496C79.4744 55.1923 79.3986 55.1541 79.2659 55.1349C79.1522 55.1158 79.0005 55.0967 78.8109 55.0776L78.8299 54.8099C78.9816 54.8099 79.1522 54.8099 79.3417 54.8099C79.5313 54.8099 79.7398 54.8099 79.9673 54.8099C80.0621 54.8099 80.1758 54.8099 80.2706 54.8099C80.3654 54.8099 80.4602 54.8099 80.5549 54.8099C80.6497 54.8099 80.7445 54.8099 80.8203 54.8099C80.8961 54.8099 80.972 54.8099 81.0478 54.8099V55.0585C80.8772 55.0776 80.7255 55.0967 80.6118 55.1349C80.4981 55.1541 80.4033 55.2114 80.3464 55.2879C80.2895 55.3644 80.2327 55.4791 80.2137 55.632C80.1948 55.785 80.1758 55.9953 80.1758 56.2821V61.406L79.7398 61.4633Z" fill="#F5F8E0"/>
<path d="M82.7164 57.9646C82.7164 58.4043 82.7732 58.8058 82.887 59.2073C83.0007 59.5897 83.1524 59.9338 83.3798 60.2206C83.6073 60.5074 83.8727 60.7368 84.195 60.8898C84.5172 61.0427 84.8774 61.1383 85.2565 61.1383C85.484 61.1383 85.7115 61.1001 85.9389 61.0427C86.1664 60.9854 86.356 60.8707 86.5266 60.7177C86.6972 60.5648 86.8299 60.3927 86.9436 60.1824C87.0574 59.9721 87.1901 59.7235 87.3038 59.4367L87.6071 59.5132C87.5313 59.8191 87.4744 60.1059 87.4175 60.3545C87.3796 60.6221 87.3417 60.9089 87.3038 61.1957C86.9436 61.2913 86.5835 61.3869 86.2233 61.4442C85.8821 61.5016 85.5219 61.5398 85.1617 61.5398C84.612 61.5398 84.1381 61.4634 83.7021 61.2913C83.2661 61.1383 82.9059 60.9089 82.5837 60.6221C82.2614 60.3353 82.015 59.9721 81.8444 59.5706C81.6738 59.15 81.579 58.6911 81.579 58.194C81.579 57.6204 81.6927 57.1042 81.9012 56.6645C82.1098 56.2247 82.3941 55.8615 82.7732 55.5747C83.1334 55.2879 83.5504 55.0585 84.0433 54.9246C84.5172 54.7717 85.048 54.7143 85.6167 54.7143C85.901 54.7143 86.1854 54.7334 86.5076 54.7717C86.8299 54.8099 87.1142 54.8673 87.3986 54.9438C87.3796 55.2305 87.3607 55.5173 87.3417 55.7659C87.3417 56.0335 87.3228 56.3012 87.3228 56.588L87.0195 56.6071C87.0005 56.3394 86.9436 56.11 86.8678 55.8997C86.773 55.7085 86.6593 55.5364 86.5076 55.4026C86.356 55.2688 86.1854 55.1732 85.9958 55.1158C85.8063 55.0585 85.5977 55.0394 85.3703 55.0394C84.9722 55.0394 84.612 55.1158 84.2708 55.2497C83.9296 55.3835 83.6452 55.5938 83.3988 55.8424C83.1713 56.0909 82.9818 56.4159 82.868 56.7792C82.7732 57.1233 82.7164 57.5248 82.7164 57.9646Z" fill="#F5F8E0"/>
<path d="M90.2046 60.24C90.2046 60.3929 90.2046 60.5267 90.2236 60.6223C90.2425 60.7179 90.2805 60.7944 90.3373 60.8518C90.3942 60.9091 90.489 60.9474 90.6027 60.9665C90.7165 60.9856 90.8681 61.0047 91.0387 61.0047H91.4368C91.7022 61.0047 91.9107 60.9856 92.0813 60.9474C92.2519 60.9091 92.3846 60.8327 92.4983 60.7371C92.6121 60.6415 92.7069 60.5076 92.8017 60.3356C92.8964 60.1635 92.9912 59.9723 93.086 59.7237L93.3703 59.7811C93.3324 59.9149 93.2945 60.0488 93.2756 60.2017C93.2376 60.3547 93.2187 60.5076 93.1808 60.6415C93.1618 60.7944 93.1239 60.9282 93.105 61.043C93.086 61.1768 93.067 61.2724 93.067 61.3489C92.1571 61.3489 91.4178 61.3489 90.8681 61.3489C90.3184 61.3489 89.9013 61.3489 89.617 61.3489C89.5032 61.3489 89.3895 61.3489 89.2758 61.3489C89.162 61.3489 89.0483 61.3489 88.9346 61.3489C88.8208 61.3489 88.7071 61.3489 88.5933 61.3489C88.4796 61.3489 88.3848 61.3489 88.309 61.3489L88.29 61.1003C88.4986 61.0812 88.6692 61.0621 88.7829 61.043C88.9156 61.0047 89.0104 60.9665 89.0672 60.9091C89.1431 60.8518 89.181 60.7562 89.1999 60.6606C89.2189 60.5459 89.2379 60.412 89.2379 60.24V55.6705C89.2379 55.5558 89.2189 55.4793 89.1999 55.4028C89.181 55.3264 89.1431 55.269 89.0862 55.2308C89.0293 55.1734 88.9346 55.1543 88.8208 55.116C88.7071 55.0969 88.5554 55.0778 88.3659 55.0587L88.3848 54.791C88.4796 54.791 88.5744 54.791 88.6881 54.791C88.8019 54.791 88.9156 54.791 89.0293 54.791C89.1431 54.791 89.2758 54.791 89.3895 54.791C89.5222 54.791 89.617 54.791 89.7307 54.791C89.9013 54.791 90.2805 54.791 90.8491 54.791C91.4178 54.791 92.1382 54.791 93.0102 54.791C92.9912 55.0204 92.9533 55.269 92.9533 55.5175C92.9343 55.7661 92.9343 56.0529 92.9343 56.3397H92.631C92.5931 56.1102 92.5363 55.8999 92.4983 55.747C92.4415 55.594 92.3846 55.4793 92.2898 55.3837C92.195 55.2881 92.0813 55.2308 91.9297 55.1925C91.778 55.1543 91.5884 55.1352 91.361 55.1352H90.5269C90.3942 55.1352 90.2994 55.1543 90.2615 55.1734C90.2236 55.1925 90.2046 55.269 90.2046 55.3837V57.7354L92.4036 57.6589L92.4604 57.7162L92.4415 58.2898C92.0244 58.2516 91.6453 58.2325 91.2662 58.2133C90.906 58.1942 90.5458 58.1942 90.2046 58.1751V60.24Z" fill="#F5F8E0"/>
<path d="M94.1859 59.456C94.2807 59.6854 94.3755 59.9149 94.4703 60.106C94.565 60.2972 94.6977 60.4884 94.8304 60.6223C94.9821 60.7752 95.1337 60.8899 95.3233 60.9664C95.5129 61.0429 95.7403 61.0811 95.9868 61.0811C96.1574 61.0811 96.2901 61.062 96.4228 61.0046C96.5555 60.9473 96.6692 60.8708 96.7829 60.7561C96.8967 60.6414 96.9915 60.5267 97.0483 60.3737C97.1052 60.2208 97.1431 60.0678 97.1431 59.8766C97.1431 59.6472 97.1052 59.456 97.0104 59.3222C96.9346 59.1692 96.8209 59.0354 96.6882 58.9398C96.5555 58.8442 96.4228 58.7486 96.2711 58.6721C96.1195 58.5956 95.9489 58.5 95.7783 58.4236C95.5697 58.328 95.3612 58.2324 95.1337 58.1177C94.9063 58.0029 94.7167 57.8691 94.5461 57.697C94.3755 57.525 94.2428 57.3529 94.148 57.1426C94.0532 56.9514 94.0153 56.7028 94.0153 56.4352C94.0153 56.1484 94.0722 55.8998 94.1859 55.6704C94.2997 55.441 94.4513 55.2689 94.6598 55.116C94.8494 54.963 95.0958 54.8483 95.3612 54.7718C95.6456 54.6953 95.9299 54.6571 96.2143 54.6571C96.4986 54.6571 96.764 54.6762 97.0104 54.7145C97.2569 54.7527 97.5222 54.8101 97.8066 54.8865C97.7876 55.0395 97.7876 55.1733 97.7687 55.288C97.7687 55.4219 97.7497 55.5366 97.7497 55.6513C97.7497 55.766 97.7497 55.8998 97.7497 56.0146C97.7497 56.1484 97.7497 56.2822 97.7497 56.4161L97.4464 56.4352C97.4085 55.9572 97.2569 55.5939 97.0104 55.3645C96.764 55.1351 96.4228 55.0204 96.0057 55.0204C95.892 55.0204 95.7593 55.0395 95.6266 55.0968C95.4939 55.1542 95.3802 55.2116 95.2664 55.3072C95.1717 55.4027 95.0958 55.5175 95.039 55.6513C94.9821 55.7851 94.9631 55.9381 94.9631 56.091C94.9631 56.3013 95.001 56.4925 95.0769 56.6455C95.1527 56.7984 95.2475 56.9132 95.3612 57.0088C95.475 57.1043 95.6266 57.1808 95.7783 57.2573C95.9299 57.3338 96.1005 57.4103 96.2901 57.4867C96.4986 57.5823 96.7261 57.697 96.9725 57.8309C97.2 57.9647 97.4085 58.1177 97.5602 58.2706C97.7118 58.4236 97.8445 58.5956 97.9582 58.8059C98.072 59.0163 98.1288 59.2648 98.1288 59.5325C98.1288 59.8384 98.072 60.1252 97.9393 60.3546C97.8066 60.6031 97.6549 60.7943 97.4464 60.9664C97.2379 61.1385 96.9915 61.2532 96.7071 61.3488C96.4228 61.4444 96.1384 61.4826 95.8541 61.4826C95.6077 61.4826 95.3423 61.4635 95.0769 61.4061C94.8115 61.3488 94.5271 61.2914 94.2238 61.1958C94.1859 60.8899 94.148 60.6223 94.1101 60.3546C94.0722 60.0869 93.9964 59.8001 93.9205 59.5134L94.1859 59.456Z" fill="#F5F8E0"/>
</g>
<defs>
<clipPath id="clip0_1242_4488">
<rect width="163" height="48.052" fill="white" transform="translate(10 17)"/>
</clipPath>
</defs>
</svg>
