<svg width="1042" height="397" viewBox="0 0 1042 397" fill="none" xmlns="http://www.w3.org/2000/svg">
<path d="M967.79 71.15C968.37 73.14 968.98 75.13 969.54 77.14C969.87 78.31 970.59 79.16 971.81 79.75C972.16 79.92 980.11 82.71 980.22 83.07C980.84 85.05 985.88 82.27 986.4 84.29C987.27 87.67 991.46 90.38 997.02 88.69C1006.63 85.76 1016.31 83.03 1025.95 80.21C1029.45 79.19 1030.83 77.17 1030 74.31C1028.18 68.11 1026.37 61.92 1024.55 55.72C1023.77 53.05 1021.43 52.08 1018.11 53.06C1012.39 54.73 1006.68 56.41 1000.97 58.09C995.25 59.76 989.54 61.43 983.82 63.12C980.55 64.08 967.03 68.5 967.79 71.15Z" fill="#81BE71"/>
<path d="M983.82 63.11C980.56 64.07 967.03 68.5 967.79 71.15C968.37 73.14 968.98 75.13 969.54 77.14C969.86 78.31 970.59 79.16 971.81 79.75C972.16 79.92 980.11 82.71 980.21 83.07C980.83 85.05 985.88 82.27 986.4 84.28C987.27 87.66 991.45 90.37 997.02 88.68C1006.63 85.75 1016.31 83.02 1025.95 80.2C1029.45 79.18 1030.83 77.16 1030 74.3C1028.18 68.1 1026.37 61.91 1024.55 55.71C1023.77 53.05 1021.43 52.08 1018.11 53.05C1012.39 54.72 1006.68 56.4 1000.97 58.08C995.25 59.76 989.54 61.43 983.82 63.11Z" stroke="black" stroke-width="1.7018" stroke-miterlimit="10"/>
<path d="M1018.11 53.06C1021.43 52.09 1023.76 53.06 1024.55 55.72C1026.37 61.91 1028.18 68.11 1030 74.31C1030.84 77.16 1029.46 79.18 1025.95 80.21C1016.3 83.03 1006.63 85.76 997.02 88.69C991.45 90.39 987.27 87.67 986.4 84.29C985.88 82.28 980.84 85.06 980.22 83.07C980.11 82.71 972.17 79.92 971.81 79.75C970.59 79.16 969.86 78.31 969.54 77.14C968.98 75.14 968.37 73.14 967.79 71.15C967.03 68.5 980.56 64.07 983.82 63.11C989.53 61.43 995.25 59.76 1000.97 58.08C1006.68 56.41 1012.39 54.73 1018.11 53.06Z" stroke="black" stroke-width="1.2764" stroke-miterlimit="10"/>
<path d="M967.63 74.28C967.34 73.27 967.03 72.27 966.75 71.26C966.62 70.77 966.42 70.6 965.97 70.75C963.97 71.4 962.03 71.55 962.63 73.71C963.08 75.34 963.59 76.96 964.05 78.6C964.2 79.12 964.4 79.3 964.88 79.15C966.83 78.53 969.43 80.52 968.85 78.43C968.67 77.78 967.82 74.93 967.63 74.28Z" fill="#AF3034" stroke="black" stroke-width="1.7018" stroke-miterlimit="10"/>
<path d="M962.17 75.73C961.87 74.73 961.54 73.73 961.3 72.71C961.18 72.22 960.78 72.11 959.63 72.46C954.57 74.01 949.09 75.08 949.65 77.25C950.07 78.89 956.88 89.35 957.31 90.99C957.39 91.28 961.72 92.24 962.72 89.28C963.5 86.97 960.91 80.65 961.43 80.44C963.33 79.65 963.26 79.78 962.74 77.68C962.57 77.02 962.36 76.38 962.17 75.73Z" fill="white"/>
<path d="M962.17 75.73C961.87 74.73 961.54 73.73 961.3 72.71C961.18 72.22 960.78 72.11 959.63 72.46C954.57 74.01 949.09 75.08 949.65 77.25C950.07 78.89 956.88 89.35 957.31 90.99C957.44 91.51 960.95 90.85 962.16 90.48C964.01 89.92 961.17 83.89 961.16 81.94C961.14 79.46 963.63 80.49 963.31 79.18C963.14 78.52 962.36 76.38 962.17 75.73Z" stroke="black" stroke-width="1.727" stroke-miterlimit="10"/>
<path d="M995.77 79.05C1002.37 77.82 1008.69 75.47 1014.89 73.03C1008.35 73.37 1001.68 75.9 995.77 79.05Z" fill="black"/>
<path d="M994.73 78.4299C994.72 75.0299 993.19 71.62 991.83 68.71C991.5 72.03 993.02 75.6099 994.73 78.4299Z" fill="black"/>
<path d="M991.91 67.36C998.8 66.57 1005.45 64 1011.5 60.96C1004.57 61.87 998.43 64.31 991.91 67.36Z" fill="black"/>
<path d="M1016.16 69.4099C1015.6 67.3499 1015.3 66.0899 1014.37 64.0599C1013.99 63.1599 1012.78 61.1999 1012.24 59.9299C1011.73 62.9199 1014.18 67.3199 1016.16 69.4099Z" fill="black"/>
<path d="M1015.64 58.6625L987.707 66.8569L992.242 82.3161L1020.18 74.1216L1015.64 58.6625Z" fill="#FFFBD1" stroke="black" stroke-width="0.1158" stroke-miterlimit="10"/>
<path d="M1015.64 58.6625L987.707 66.8569L992.242 82.3161L1020.18 74.1216L1015.64 58.6625Z" stroke="black" stroke-width="1.7981" stroke-miterlimit="10"/>
<path d="M962.941 89.096L957.309 90.7484L958.522 94.8843L964.155 93.2319L962.941 89.096Z" fill="#AF3034" stroke="black" stroke-width="1.727" stroke-miterlimit="10" stroke-linejoin="round"/>
<path fill-rule="evenodd" clip-rule="evenodd" d="M975.5 52.4C980.29 53.86 980.76 58.99 986.32 59.79C982.26 65.7 973.14 60.2 975.5 52.4Z" fill="white"/>
<path fill-rule="evenodd" clip-rule="evenodd" d="M1007.96 45.0101C1000.96 39.7101 988.73 20.7401 992.81 8.06008C994.92 1.50008 1008.7 -0.329915 1014.49 6.39008C1023.18 16.4801 1010.12 35.2801 1007.96 45.0101Z" fill="white"/>
<path fill-rule="evenodd" clip-rule="evenodd" d="M990.65 7.14001C990.19 23.23 996.33 33.7 1002.55 44.09C991.62 41.47 972.69 27.26 974.43 13.61C975.04 8.73002 981.86 8.07001 990.65 7.14001Z" fill="white"/>
<path fill-rule="evenodd" clip-rule="evenodd" d="M989.57 40.39C993.54 42.54 996.86 45.25 1002.55 45.93C1002.69 48.21 1002.72 50.38 1001.47 51.47C994.47 50.37 991.95 45.44 989.57 40.39Z" fill="white"/>
<path fill-rule="evenodd" clip-rule="evenodd" d="M980.91 43.16C986.86 47.01 990.78 52.59 996.05 57.02C987.54 59.2 976.73 48.97 980.91 43.16Z" fill="white"/>
<path fill-rule="evenodd" clip-rule="evenodd" d="M975.5 52.4C980.29 53.86 980.76 58.99 986.32 59.79C982.26 65.7 973.14 60.2 975.5 52.4Z" fill="#F0B357"/>
<path fill-rule="evenodd" clip-rule="evenodd" d="M1024.65 38.62C1024.57 38.51 1024.49 38.4 1024.4 38.29C1026.67 35.44 1030.18 33.66 1036.09 33.92C1039.08 34.14 1038.56 37.35 1040.42 38.54C1040.17 28.77 1030.11 32.84 1021.85 36.37C1020.87 35.93 1019.75 35.68 1018.56 35.68C1016.96 35.68 1015.49 36.13 1014.31 36.89C1020.72 17.48 1023.71 -9.86996 990.66 5.28004C958.81 4.23004 975.04 31.79 986.33 38.53C972.64 41.2 969.23 59.54 976.59 69.93C983.88 61.38 1000.63 60.9 1005.8 50.53C1014.41 50.91 1018.48 47.19 1020.94 51.45C1023.99 46.76 1029.5 44.62 1026.35 40.37C1032.55 40 1038.1 40.19 1039.33 44.06C1039.02 46.49 1032.94 46.01 1036.08 48.68C1039.21 48.27 1041.01 46.73 1041.49 44.06C1040.62 37.29 1030.07 39.42 1024.65 38.62ZM974.33 15.6C974.87 10.71 980.9 8.43004 990.64 7.15004C984.01 14.89 997.38 33.66 1003.61 44.05C992.68 41.42 973.14 26.47 974.33 15.6ZM975.5 52.4C980.29 53.86 980.76 58.99 986.32 59.79C982.26 65.7 973.14 60.2 975.5 52.4ZM980.91 43.16C986.86 47.01 990.78 52.59 996.05 57.02C987.54 59.2 976.73 48.97 980.91 43.16ZM1001.47 51.48C994.47 50.37 991.96 45.44 989.57 40.4C993.54 42.55 996.86 45.26 1002.55 45.94C1002.69 48.21 1002.71 50.39 1001.47 51.48ZM992.81 8.07004C995.02 1.54004 1010.3 2.53003 1012.28 4.38003C1022.97 14.29 1010.12 35.29 1007.95 45.02C1001.82 36.27 990.47 15 992.81 8.07004Z" fill="black"/>
<path fill-rule="evenodd" clip-rule="evenodd" d="M989.57 40.39C993.54 42.54 996.86 45.25 1002.55 45.93C1002.69 48.21 1002.72 50.38 1001.47 51.47C994.47 50.37 991.95 45.44 989.57 40.39Z" fill="#F0B357"/>
<path fill-rule="evenodd" clip-rule="evenodd" d="M980.91 43.16C986.86 47.01 990.78 52.59 996.05 57.02C987.54 59.2 976.73 48.97 980.91 43.16Z" fill="#F0B357"/>
<path fill-rule="evenodd" clip-rule="evenodd" d="M1002.29 52.6301C1001 59.4801 996.74 68.2401 989.78 73.7701C989.41 72.0401 991.04 70.7901 992.77 69.5501C991.4 64.9001 998.33 59.5901 997.48 55.0601L1002.29 52.6301ZM1010.07 47.8201C1009.15 50.1701 1008.41 53.6401 1007.03 57.1001C1006.87 57.5101 1004.41 56.8801 1004.41 56.8801C1005.43 54.3801 1006.2 52.0501 1006.49 50.3601L1010.07 47.8201Z" fill="black"/>
<path fill-rule="evenodd" clip-rule="evenodd" d="M1024.14 41.89C1024.44 43.81 1023.68 45.53 1022.44 45.73C1021.19 45.93 1019.94 44.53 1019.63 42.61C1019.32 40.69 1020.09 38.97 1021.33 38.77C1022.58 38.57 1023.84 39.97 1024.14 41.89Z" fill="white"/>
<path fill-rule="evenodd" clip-rule="evenodd" d="M1021.85 41.3001C1022.97 40.5701 1024.59 42.4701 1023.57 43.7201C1021.87 44.3701 1020.74 42.0201 1021.85 41.3001Z" fill="black"/>
<path fill-rule="evenodd" clip-rule="evenodd" d="M989.28 61.1601C988.95 61.5901 988.82 62.0801 988.58 62.5501C988.29 63.1001 987.9 63.4401 987.37 63.7601C986.96 64.0101 986.5 64.2201 986.11 64.5001C985.81 64.7101 985.58 65.0201 985.26 65.2001C985.8 65.4101 986.89 65.6301 987.38 65.3901C988 65.1001 988.7 64.7701 989.17 64.2601C989.45 63.9601 990.03 63.2901 990.3 62.9801C990.78 62.4001 991.03 61.7501 991.74 61.6201C992.27 61.5201 991.97 61.3701 991.94 60.7701C991.92 60.4001 991.59 60.1301 991.5 59.8001C991.1 59.7901 990.77 59.6901 990.42 59.9101" fill="black"/>
<path d="M91.7206 264.63C90.0806 262.18 88.3906 259.75 86.7706 257.27C85.8306 255.83 84.4706 254.99 82.5706 254.72C82.0206 254.64 70.0505 254.29 69.7505 253.86C68.0505 251.44 62.4206 257.38 60.8506 254.88C58.2106 250.68 51.3706 248.81 44.5606 253.51C32.8006 261.63 20.8806 269.51 9.03055 277.49C4.73055 280.39 3.73055 283.72 6.09055 287.23C11.2306 294.84 16.3606 302.45 21.5006 310.05C23.7106 313.32 27.3006 313.63 31.3706 310.88C38.3906 306.14 45.4106 301.4 52.4306 296.66C59.4506 291.92 66.4705 287.19 73.4905 282.44C77.4805 279.73 93.8906 267.89 91.7206 264.63Z" fill="#81BE71"/>
<path d="M73.4703 282.44C77.4803 279.73 93.8903 267.89 91.7203 264.63C90.0803 262.18 88.3903 259.75 86.7703 257.27C85.8303 255.83 84.4703 254.99 82.5603 254.72C82.0103 254.64 70.0403 254.29 69.7403 253.85C68.0403 251.43 62.4103 257.38 60.8403 254.88C58.2003 250.68 51.3603 248.81 44.5503 253.51C32.7903 261.63 20.8703 269.51 9.0203 277.49C4.7203 280.39 3.7203 283.72 6.0803 287.23C11.2203 294.84 16.3503 302.45 21.5003 310.06C23.7103 313.33 27.2903 313.63 31.3703 310.88C38.3903 306.15 45.4103 301.4 52.4303 296.66C59.4403 291.92 66.4603 287.19 73.4703 282.44Z" stroke="black" stroke-width="2.4199" stroke-miterlimit="10"/>
<path d="M31.3603 310.88C27.2903 313.63 23.7003 313.33 21.4903 310.05C16.3503 302.45 11.2103 294.84 6.08031 287.23C3.71031 283.73 4.71031 280.4 9.02031 277.49C20.8703 269.5 32.8003 261.62 44.5503 253.51C51.3603 248.81 58.2003 250.68 60.8403 254.88C62.4103 257.38 68.0403 251.44 69.7403 253.86C70.0403 254.29 82.0103 254.65 82.5603 254.72C84.4703 254.99 85.8203 255.83 86.7603 257.27C88.3803 259.75 90.0703 262.18 91.7103 264.63C93.8903 267.89 77.4703 279.73 73.4603 282.44C66.4503 287.19 59.4203 291.92 52.4003 296.66C45.4003 301.41 38.3803 306.14 31.3603 310.88Z" stroke="black" stroke-width="1.8149" stroke-miterlimit="10"/>
<path d="M90.5805 260.32C91.4105 261.56 92.2605 262.78 93.0805 264.03C93.4705 264.63 93.8105 264.78 94.3605 264.38C96.7905 262.63 99.3505 261.6 97.6005 258.93C96.2805 256.91 94.8905 254.94 93.5705 252.92C93.1505 252.28 92.7905 252.12 92.2005 252.53C89.8205 254.22 85.4505 252.64 87.1305 255.22C87.6605 256.03 90.0405 259.53 90.5805 260.32Z" fill="#AF3034" stroke="black" stroke-width="2.4199" stroke-miterlimit="10"/>
<path d="M97.3504 256C98.1904 257.23 99.0704 258.44 99.8404 259.71C100.21 260.32 100.8 260.3 102.21 259.33C108.39 255.04 115.36 251.23 113.66 248.53C112.38 246.49 98.6304 235.27 97.3504 233.23C97.1204 232.87 90.8304 233.44 90.7504 237.88C90.6904 241.34 96.9304 248.79 96.3204 249.3C94.0904 251.19 94.1304 250.99 95.7404 253.61C96.2504 254.42 96.8104 255.2 97.3504 256Z" fill="white"/>
<path d="M97.3505 256C98.1905 257.23 99.0705 258.44 99.8405 259.71C100.21 260.32 100.801 260.3 102.211 259.33C108.391 255.04 115.361 251.23 113.661 248.53C112.381 246.49 98.6305 235.27 97.3505 233.23C96.9405 232.58 92.4805 234.99 91.0005 236.01C88.7405 237.57 95.1805 244.52 96.0405 247.15C97.1305 250.5 93.3105 250.18 94.3205 251.81C94.8305 252.63 96.8105 255.2 97.3505 256Z" stroke="black" stroke-width="2.4558" stroke-miterlimit="10"/>
<path d="M14.4902 286.25C13.0202 284.91 12.7602 283.36 13.6502 281.8C14.8002 279.07 17.1002 277.58 19.1702 275.54C17.2002 276.54 14.9502 277.24 13.4002 278.89C11.0802 281.11 10.3402 284.79 13.6102 286.52C14.3702 287.02 15.2302 287.32 16.0802 287.63C15.5502 287.17 14.9802 286.76 14.4902 286.25Z" fill="black"/>
<path d="M50.4101 266.02C42.0001 270.54 34.4601 276.45 27.1001 282.44C35.8101 279.14 43.7601 272.83 50.4101 266.02Z" fill="black"/>
<path d="M52.0703 266.4C53.5603 271 57.0903 274.97 60.2103 278.32C59.2103 273.68 55.6103 269.48 52.0703 266.4Z" fill="black"/>
<path d="M60.6701 280.18C51.6801 284.22 43.7801 290.58 36.8901 297.32C45.9001 293.1 53.1701 287.13 60.6701 280.18Z" fill="black"/>
<path d="M26.9404 287.89C28.5804 290.43 29.5404 292.01 31.6704 294.36C32.5804 295.42 35.0604 297.54 36.3504 299.04C35.7404 294.76 30.5304 289.87 26.9404 287.89Z" fill="black"/>
<path d="M53.8433 260.112L19.5352 283.284L32.3579 302.269L66.6661 279.098L53.8433 260.112Z" fill="#FFFBD1" stroke="black" stroke-width="0.1647" stroke-miterlimit="10"/>
<path d="M53.8433 260.112L19.5352 283.284L32.3579 302.269L66.6661 279.098L53.8433 260.112Z" stroke="black" stroke-width="2.5569" stroke-miterlimit="10"/>
<path d="M94.0546 228.434L87.144 233.103L90.5756 238.182L97.4862 233.513L94.0546 228.434Z" fill="#AF3034" stroke="black" stroke-width="2.4558" stroke-miterlimit="10" stroke-linejoin="round"/>
<path fill-rule="evenodd" clip-rule="evenodd" d="M3.72015 247.99C9.55015 250.07 10.1301 257.39 16.8901 258.53C11.9401 266.96 0.850148 259.11 3.72015 247.99Z" fill="white"/>
<path fill-rule="evenodd" clip-rule="evenodd" d="M49.83 229.55C58.1 228.22 82.34 208.56 82.77 228.23C80.51 226.54 81.14 221.96 77.5 221.64C70.09 221.26 65.76 223.95 63.01 228.23C69.43 229.67 83 226.15 84.09 236.13C83.51 239.94 81.31 242.13 77.5 242.72C73.68 238.92 81.07 239.61 81.45 236.13C79.95 230.6 73.2 230.33 65.64 230.86C64.28 236.96 62.89 243.04 59.05 246.67C52.8 241.22 51.09 245.89 40.61 245.35C34.32 260.14 13.92 260.82 5.03997 273.02C-3.93003 258.2 0.229975 232.04 16.9 228.23C3.14997 218.61 -12.01 169.98 22.17 180.8C51.86 152.16 59.03 202.39 49.83 229.55ZM48.51 179.48C41.46 169.9 27.37 175.4 24.8 184.75C19.82 202.83 34.72 229.89 43.24 237.45C45.88 223.57 59.09 193.87 48.51 179.48ZM2.39998 192.66C0.289975 212.13 23.34 232.39 36.65 236.14C29.07 221.32 21.6 206.4 22.16 183.44C11.44 174.01 3.14998 185.7 2.39998 192.66ZM35.34 246.67C36.86 245.11 36.83 242.01 36.66 238.76C29.73 237.79 25.69 233.92 20.85 230.86C23.75 238.06 26.82 245.09 35.34 246.67ZM28.75 254.58C22.33 248.26 17.55 240.31 10.31 234.82C5.20997 243.1 18.38 257.69 28.75 254.58ZM16.89 258.53C10.12 257.39 9.53998 250.07 3.71997 247.99C0.849975 259.11 11.94 266.96 16.89 258.53Z" fill="black"/>
<path fill-rule="evenodd" clip-rule="evenodd" d="M43.2401 237.45C34.7101 229.89 19.8201 202.83 24.8001 184.75C27.3701 175.4 41.4601 169.9 48.5101 179.48C59.0901 193.87 45.8801 223.57 43.2401 237.45Z" fill="white"/>
<path fill-rule="evenodd" clip-rule="evenodd" d="M22.1601 183.44C21.6001 206.39 29.0801 221.32 36.6501 236.14C23.3301 232.4 0.290108 212.13 2.40011 192.66C3.15011 185.7 11.4401 174.01 22.1601 183.44Z" fill="white"/>
<path fill-rule="evenodd" clip-rule="evenodd" d="M20.8403 230.86C25.6803 233.93 29.7203 237.79 36.6503 238.76C36.8203 242.01 36.8503 245.11 35.3303 246.67C26.8203 245.09 23.7503 238.06 20.8403 230.86Z" fill="white"/>
<path fill-rule="evenodd" clip-rule="evenodd" d="M10.3003 234.82C17.5503 240.31 22.3303 248.26 28.7403 254.58C18.3803 257.69 5.21033 243.1 10.3003 234.82Z" fill="white"/>
<path fill-rule="evenodd" clip-rule="evenodd" d="M3.72015 247.99C9.55015 250.07 10.1301 257.39 16.8901 258.53C11.9401 266.96 0.850148 259.11 3.72015 247.99Z" fill="#F0B357"/>
<path fill-rule="evenodd" clip-rule="evenodd" d="M63.5602 228.34C63.4602 228.18 63.3702 228.02 63.2602 227.87C66.0202 223.81 70.3002 221.27 77.4902 221.64C81.1302 221.95 80.5002 226.54 82.7602 228.23C82.4602 214.29 70.2002 220.1 60.1402 225.14C58.9402 224.52 57.5802 224.16 56.1402 224.16C54.2002 224.16 52.4102 224.81 50.9602 225.88C58.7702 198.19 55.2502 153.69 22.1602 180.8C-12.0098 169.98 3.14021 218.61 16.8902 228.23C0.220209 232.04 -3.93979 258.2 5.03021 273.02C13.9102 260.82 34.3102 260.14 40.6002 245.35C51.0802 245.89 56.0402 240.58 59.0402 246.67C62.7502 239.97 69.4702 236.92 65.6302 230.86C73.1902 230.33 79.9402 230.6 81.4402 236.13C81.0602 239.6 73.6702 238.91 77.4902 242.72C81.3002 242.14 83.5002 239.94 84.0802 236.13C83.0202 226.43 70.1802 229.48 63.5602 228.34ZM22.1602 183.44C21.6002 206.39 29.0802 221.32 36.6502 236.14C23.3302 232.4 1.73021 211.73 3.84021 192.26M3.72021 247.99C9.55021 250.07 10.1302 257.39 16.8902 258.53C11.9402 266.96 0.850212 259.11 3.72021 247.99ZM10.3002 234.82C17.5502 240.31 22.3302 248.26 28.7402 254.58C18.3802 257.69 5.21021 243.1 10.3002 234.82ZM35.3402 246.67C26.8202 245.09 23.7502 238.05 20.8502 230.86C25.6902 233.93 29.7302 237.79 36.6602 238.76C36.8302 242.02 36.8502 245.12 35.3402 246.67ZM24.8002 184.75C27.3702 175.4 41.4602 169.9 48.5102 179.48C59.0902 193.86 45.8802 223.57 43.2402 237.45C34.7102 229.89 19.8202 202.83 24.8002 184.75Z" fill="black"/>
<path fill-rule="evenodd" clip-rule="evenodd" d="M43.2401 237.45C34.7101 229.89 19.8201 202.83 24.8001 184.75C27.3701 175.4 41.4601 169.9 48.5101 179.48C59.0901 193.87 45.8801 223.57 43.2401 237.45Z" fill="white"/>
<path fill-rule="evenodd" clip-rule="evenodd" d="M22.1603 183.44C21.6003 206.39 29.0803 221.32 36.6503 236.14C23.3303 232.4 1.97033 212.09 4.08033 192.62C4.84033 185.66 8.35033 176.29 22.1603 183.44Z" fill="white"/>
<path fill-rule="evenodd" clip-rule="evenodd" d="M20.8403 230.86C25.6803 233.93 29.7203 237.79 36.6503 238.76C36.8203 242.01 36.8503 245.11 35.3303 246.67C26.8203 245.09 23.7503 238.06 20.8403 230.86Z" fill="#F0B357"/>
<path fill-rule="evenodd" clip-rule="evenodd" d="M10.3003 234.82C17.5503 240.31 22.3303 248.26 28.7403 254.58C18.3803 257.69 5.21033 243.1 10.3003 234.82Z" fill="#F0B357"/>
<path fill-rule="evenodd" clip-rule="evenodd" d="M36.3402 248.31C34.7602 258.08 32.0102 267.54 23.5302 275.43C23.0702 272.97 25.0602 271.18 27.1702 269.41C25.5002 262.78 31.5102 258.25 30.4802 251.79L36.3402 248.31ZM45.8102 241.46C43.1002 249.57 47.7002 259.67 37.6702 265.78C41.3202 259.54 40.4302 252.06 41.4502 245.09L45.8102 241.46Z" fill="black"/>
<path fill-rule="evenodd" clip-rule="evenodd" d="M60.0701 234.13C60.5101 236.86 59.4201 239.3 57.6501 239.59C55.8801 239.87 54.0901 237.89 53.6601 235.16C53.2201 232.43 54.3101 229.99 56.0801 229.7C57.8501 229.41 59.6301 231.4 60.0701 234.13Z" fill="white"/>
<path fill-rule="evenodd" clip-rule="evenodd" d="M56.8101 233.28C58.4001 232.25 60.7102 234.94 59.2502 236.72C56.8402 237.66 55.2301 234.31 56.8101 233.28Z" fill="black"/>
<path fill-rule="evenodd" clip-rule="evenodd" d="M46.9703 241.68C51.3803 241.82 52.5303 247.83 54.2203 250.67C52.9203 249.44 50.3703 250.3 48.6303 250.17C48.7503 247.74 46.6903 244.25 45.5903 242.13" fill="black"/>
<path d="M32.8755 291.155L31.0757 295.017L34.937 296.816L36.7368 292.955L32.8755 291.155Z" fill="white" stroke="#DA3832" stroke-width="0.651" stroke-miterlimit="10"/>
<path d="M197.65 376.98C197.07 374.99 196.46 373 195.91 370.99C195.59 369.82 194.86 368.97 193.64 368.38C193.29 368.21 185.34 365.42 185.23 365.06C184.61 363.07 179.57 365.86 179.05 363.84C178.18 360.46 173.99 357.75 168.43 359.44C158.82 362.37 149.14 365.1 139.5 367.92C136 368.94 134.62 370.96 135.45 373.82C137.27 380.02 139.08 386.21 140.9 392.41C141.68 395.08 144.02 396.04 147.34 395.07C153.06 393.4 158.77 391.72 164.49 390.04C170.21 388.37 175.92 386.7 181.64 385.01C184.88 384.05 198.41 379.63 197.65 376.98Z" fill="#81BE71"/>
<path d="M181.62 385.01C184.89 384.05 198.41 379.62 197.65 376.97C197.07 374.98 196.46 372.99 195.9 370.98C195.58 369.81 194.85 368.96 193.63 368.37C193.28 368.2 185.34 365.41 185.23 365.05C184.61 363.07 179.56 365.85 179.04 363.84C178.17 360.46 173.99 357.75 168.42 359.44C158.81 362.37 149.13 365.1 139.49 367.92C135.99 368.94 134.61 370.96 135.44 373.82C137.25 380.02 139.07 386.21 140.89 392.41C141.67 395.07 144.01 396.04 147.33 395.07C153.05 393.4 158.76 391.72 164.48 390.04C170.19 388.37 175.9 386.7 181.62 385.01Z" stroke="black" stroke-width="1.7018" stroke-miterlimit="10"/>
<path d="M147.33 395.07C144.01 396.04 141.68 395.07 140.89 392.41C139.07 386.22 137.26 380.02 135.44 373.82C134.6 370.97 135.98 368.95 139.49 367.92C149.14 365.1 158.81 362.37 168.42 359.44C173.99 357.74 178.17 360.46 179.04 363.84C179.56 365.85 184.6 363.07 185.22 365.06C185.33 365.42 193.27 368.21 193.63 368.38C194.85 368.97 195.58 369.82 195.9 370.99C196.46 372.99 197.07 374.98 197.64 376.98C198.4 379.63 184.87 384.06 181.61 385.02C175.9 386.7 170.18 388.37 164.46 390.05C158.76 391.72 153.04 393.4 147.33 395.07Z" stroke="black" stroke-width="1.2764" stroke-miterlimit="10"/>
<path d="M197.81 373.85C198.1 374.86 198.41 375.86 198.69 376.87C198.82 377.36 199.02 377.53 199.47 377.38C201.47 376.73 203.41 376.58 202.81 374.42C202.36 372.79 201.85 371.17 201.4 369.53C201.25 369.01 201.05 368.83 200.57 368.97C198.62 369.59 196.02 367.6 196.6 369.69C196.77 370.35 197.62 373.2 197.81 373.85Z" fill="#AF3034" stroke="black" stroke-width="1.7018" stroke-miterlimit="10"/>
<path d="M203.27 372.4C203.57 373.4 203.9 374.4 204.14 375.42C204.26 375.91 204.66 376.02 205.81 375.67C210.87 374.12 216.35 373.05 215.79 370.88C215.37 369.24 208.56 358.78 208.13 357.14C208.05 356.85 203.72 355.89 202.72 358.85C201.94 361.16 204.53 367.48 204.01 367.69C202.11 368.48 202.18 368.35 202.7 370.45C202.87 371.11 203.08 371.75 203.27 372.4Z" fill="white"/>
<path d="M203.27 372.4C203.57 373.4 203.9 374.4 204.14 375.42C204.26 375.91 204.66 376.02 205.81 375.67C210.87 374.12 216.35 373.05 215.79 370.88C215.37 369.24 208.56 358.78 208.13 357.14C208 356.62 204.49 357.28 203.28 357.65C201.43 358.21 204.27 364.24 204.28 366.19C204.3 368.67 201.81 367.64 202.13 368.95C202.3 369.61 203.08 371.75 203.27 372.4Z" stroke="black" stroke-width="1.727" stroke-miterlimit="10"/>
<path d="M169.67 369.08C163.07 370.31 156.75 372.66 150.54 375.1C157.09 374.76 163.76 372.22 169.67 369.08Z" fill="black"/>
<path d="M170.7 369.69C170.71 373.09 172.23 376.5 173.6 379.41C173.94 376.1 172.42 372.51 170.7 369.69Z" fill="black"/>
<path d="M173.52 380.76C166.63 381.55 159.98 384.12 153.93 387.16C160.87 386.26 167.01 383.82 173.52 380.76Z" fill="black"/>
<path d="M149.28 378.72C149.84 380.78 150.14 382.04 151.07 384.07C151.45 384.97 152.66 386.92 153.21 388.2C153.71 385.2 151.26 380.81 149.28 378.72Z" fill="black"/>
<path d="M173.258 365.854L145.324 374.048L149.859 389.508L177.793 381.313L173.258 365.854Z" fill="#FFFBD1" stroke="black" stroke-width="0.1158" stroke-miterlimit="10"/>
<path d="M173.258 365.854L145.324 374.048L149.859 389.508L177.793 381.313L173.258 365.854Z" stroke="black" stroke-width="1.7981" stroke-miterlimit="10"/>
<path d="M206.966 353.246L201.333 354.899L202.546 359.035L208.179 357.382L206.966 353.246Z" fill="#AF3034" stroke="black" stroke-width="1.727" stroke-miterlimit="10" stroke-linejoin="round"/>
<path fill-rule="evenodd" clip-rule="evenodd" d="M190.49 340.35C190.41 340.24 190.33 340.13 190.24 340.02C192.51 337.17 198.85 331.49 197.82 323.23C196.79 314.98 195.41 324.61 195.41 324.61C195.41 324.61 195.94 334.57 187.68 338.11C186.7 337.67 185.58 337.42 184.39 337.42C182.79 337.42 181.32 337.87 180.13 338.63C186.54 319.22 145.89 284.37 156.55 319.11C124.7 318.06 140.87 333.53 152.16 340.28C138.47 342.95 107.04 367.63 114.41 378.02C117.77 379.39 131.82 366.58 151.05 361.76C159.65 364.86 169.32 356.93 171.63 352.29C180.24 352.67 184.31 348.95 186.78 353.21C189.83 348.52 195.34 346.38 192.19 342.13C198.39 341.76 199.2 342.85 202.98 340.44C206.76 338.03 208.48 333.56 207.45 332.87C206.42 332.18 201.26 338.03 201.26 338.03C201.26 338.03 195.92 341.15 190.49 340.35Z" fill="black"/>
<path fill-rule="evenodd" clip-rule="evenodd" d="M155.41 342.12C159.38 344.27 162.7 346.98 168.39 347.66C171.34 350.06 162.27 358.94 161.02 360.03C141.08 360.04 135.58 344.9 155.41 342.12Z" fill="#CD7C3C"/>
<path fill-rule="evenodd" clip-rule="evenodd" d="M134.13 351.45C139.96 355.03 144.14 358.12 145.66 362.13C137.49 364.43 130.22 357.15 134.13 351.45Z" fill="#454545"/>
<path fill-rule="evenodd" clip-rule="evenodd" d="M168.13 354.36C166.84 361.21 162.58 369.97 155.62 375.5C155.25 373.77 156.88 372.52 158.61 371.28C157.24 366.63 165.66 360.78 164.81 356.25L168.13 354.36ZM175.91 349.55C174.99 351.9 174.25 355.37 172.87 358.83C172.71 359.24 170.25 358.61 170.25 358.61C171.27 356.11 172.04 353.78 172.33 352.09L175.91 349.55Z" fill="black"/>
<path fill-rule="evenodd" clip-rule="evenodd" d="M189.99 343.62C190.3 345.54 189.53 347.26 188.29 347.46C187.04 347.66 185.79 346.26 185.48 344.34C185.17 342.42 185.93 340.7 187.18 340.5C188.42 340.3 189.68 341.7 189.99 343.62Z" fill="white"/>
<path fill-rule="evenodd" clip-rule="evenodd" d="M187.69 343.03C188.81 342.3 190.43 344.2 189.41 345.45C187.72 346.1 186.59 343.75 187.69 343.03Z" fill="black"/>
<path fill-rule="evenodd" clip-rule="evenodd" d="M155.131 362.89C154.801 363.32 154.681 363.81 154.431 364.28C154.141 364.83 153.751 365.17 153.211 365.49C152.801 365.74 152.351 365.95 151.951 366.23C151.651 366.44 151.421 366.75 151.101 366.93C151.641 367.14 152.731 367.36 153.231 367.12C153.851 366.83 154.551 366.5 155.021 365.99C155.301 365.69 155.881 365.03 156.151 364.71C156.631 364.13 156.881 363.48 157.591 363.35C158.121 363.25 157.821 363.1 157.791 362.5C157.771 362.13 157.441 361.86 157.351 361.53C156.951 361.52 156.621 361.42 156.271 361.64" fill="black"/>
<path fill-rule="evenodd" clip-rule="evenodd" d="M121.78 362.94C125.29 364.75 124.07 366.37 129.09 369.54C125.03 372.38 118.77 367.26 121.78 362.94Z" fill="#454545"/>
<path fill-rule="evenodd" clip-rule="evenodd" d="M126.98 357.87C131.76 360.11 129.56 361.23 136.43 365.09C131.16 368.1 123.18 362.62 126.98 357.87Z" fill="#454545"/>
<path fill-rule="evenodd" clip-rule="evenodd" d="M117.31 367.57C120.03 368.97 119.08 370.23 122.97 372.68C119.83 374.89 114.97 370.93 117.31 367.57Z" fill="#454545"/>
<path fill-rule="evenodd" clip-rule="evenodd" d="M175.131 341.81C175.131 341.81 183.041 326.33 160.691 308.11C153.811 305.36 159.661 320.15 159.661 320.15C159.661 320.15 169.281 330.46 175.131 341.81Z" fill="white"/>
<path fill-rule="evenodd" clip-rule="evenodd" d="M172.03 346.97L173.41 343.53C173.41 343.53 165.16 327.37 157.93 322.55C144.52 319.46 139.7 325.3 139.7 325.3C139.7 325.3 146.58 334.59 156.55 339.4C166.53 344.22 168.59 343.18 172.03 346.97Z" fill="white"/>
<path d="M152.625 382.164L151.61 384.339L153.785 385.353L154.8 383.178L152.625 382.164Z" fill="white" stroke="#DA3832" stroke-width="0.3671" stroke-miterlimit="10"/>
<path d="M1012.4 61.9889L1011.39 64.1641L1013.56 65.1781L1014.58 63.0029L1012.4 61.9889Z" fill="white" stroke="#DA3832" stroke-width="0.3671" stroke-miterlimit="10"/>
</svg>
