<svg width="269" height="191" viewBox="0 0 269 191" fill="none" xmlns="http://www.w3.org/2000/svg">
<path d="M17.4862 155.459C18.6302 153.749 19.8091 152.054 20.9392 150.323C21.5949 149.319 22.5436 148.732 23.869 148.544C24.2526 148.488 32.6026 148.244 32.8119 147.944C33.9977 146.255 37.9251 150.4 39.0203 148.656C40.8619 145.725 45.6332 144.42 50.3837 147.7C58.5872 153.365 66.9022 158.864 75.1685 164.431C78.168 166.455 78.8656 168.778 77.2193 171.227C73.6338 176.537 70.0553 181.847 66.4697 187.15C64.9281 189.431 62.4238 189.648 59.5847 187.729C54.6877 184.422 49.7908 181.114 44.8938 177.807C39.9969 174.5 35.0999 171.199 30.2029 167.885C27.4196 165.994 15.9725 157.733 17.4862 155.459Z" fill="#81BE71"/>
<path d="M30.2168 167.885C27.4195 165.994 15.9723 157.733 17.4861 155.459C18.6301 153.749 19.809 152.054 20.939 150.323C21.5948 149.319 22.5435 148.732 23.8758 148.544C24.2595 148.488 32.6094 148.244 32.8187 147.937C34.0046 146.248 37.9319 150.4 39.0271 148.656C40.8687 145.725 45.6401 144.42 50.3905 147.7C58.594 153.365 66.9091 158.864 75.1753 164.431C78.1749 166.455 78.8724 168.778 77.2262 171.227C73.6406 176.537 70.0621 181.847 66.4696 187.157C64.928 189.438 62.4306 189.648 59.5846 187.729C54.6876 184.429 49.7906 181.114 44.8937 177.807C40.0037 174.5 35.1067 171.199 30.2168 167.885Z" stroke="black" stroke-width="2.4199" stroke-miterlimit="10"/>
<path d="M59.5916 187.729C62.4308 189.648 64.935 189.438 66.4767 187.15C70.0622 181.847 73.6477 176.537 77.2263 171.227C78.8795 168.785 78.1819 166.462 75.1754 164.431C66.9092 158.857 58.5871 153.358 50.3907 147.7C45.6402 144.42 40.8688 145.725 39.0272 148.656C37.932 150.4 34.0047 146.255 32.8188 147.944C32.6095 148.244 24.2596 148.495 23.8759 148.544C22.5436 148.732 21.6018 149.319 20.9461 150.323C19.8161 152.054 18.6372 153.749 17.4931 155.459C15.9724 157.733 27.4266 165.994 30.2238 167.885C35.1138 171.199 40.0178 174.5 44.9147 177.807C49.7977 181.121 54.6947 184.422 59.5916 187.729Z" stroke="black" stroke-width="1.8149" stroke-miterlimit="10"/>
<path d="M18.2814 152.451C17.7024 153.317 17.1095 154.168 16.5375 155.04C16.2654 155.459 16.0283 155.563 15.6446 155.284C13.9495 154.063 12.1637 153.344 13.3845 151.482C14.3053 150.072 15.2749 148.698 16.1957 147.288C16.4887 146.842 16.7398 146.73 17.1514 147.016C18.8116 148.195 21.86 147.093 20.6881 148.893C20.3183 149.458 18.6581 151.9 18.2814 152.451Z" fill="#AF3034" stroke="black" stroke-width="2.4199" stroke-miterlimit="10"/>
<path d="M13.5588 149.437C12.9728 150.295 12.359 151.14 11.8219 152.026C11.5638 152.451 11.1522 152.437 10.1686 151.761C5.8576 148.767 0.995525 146.109 2.1814 144.225C3.07429 142.802 12.6659 134.973 13.5588 133.55C13.7192 133.299 18.107 133.696 18.1628 136.794C18.2046 139.208 13.8518 144.406 14.2773 144.762C15.8329 146.081 15.805 145.942 14.6819 147.77C14.3261 148.335 13.9355 148.879 13.5588 149.437Z" fill="white"/>
<path d="M13.5587 149.437C12.9728 150.295 12.3589 151.14 11.8218 152.026C11.5637 152.451 11.1521 152.437 10.1685 151.761C5.85752 148.767 0.995444 146.109 2.18132 144.225C3.07421 142.802 12.6658 134.973 13.5587 133.55C13.8447 133.096 16.9559 134.778 17.9883 135.489C19.5648 136.578 15.0725 141.427 14.4726 143.262C13.7122 145.6 16.3769 145.376 15.6724 146.514C15.3166 147.086 13.9354 148.879 13.5587 149.437Z" stroke="black" stroke-width="2.4558" stroke-miterlimit="10"/>
<path d="M71.3598 170.544C72.3852 169.609 72.5666 168.527 71.9458 167.439C71.1435 165.534 69.5391 164.494 68.0952 163.071C69.4694 163.769 71.0389 164.257 72.1201 165.408C73.7385 166.957 74.2547 169.525 71.9737 170.732C71.4435 171.081 70.8436 171.29 70.2507 171.507C70.6204 171.186 71.018 170.9 71.3598 170.544Z" fill="black"/>
<path d="M46.3028 156.428C52.1694 159.582 57.4291 163.706 62.5632 167.885C56.4874 165.583 50.9417 161.18 46.3028 156.428Z" fill="black"/>
<path d="M45.145 156.694C44.1056 159.903 41.6432 162.673 39.4668 165.011C40.1644 161.773 42.6756 158.843 45.145 156.694Z" fill="black"/>
<path d="M39.1459 166.308C45.417 169.127 50.9279 173.565 55.7341 178.268C49.449 175.323 44.3777 171.158 39.1459 166.308Z" fill="black"/>
<path d="M62.6748 171.688C61.5308 173.46 60.8611 174.563 59.3753 176.202C58.7405 176.942 57.0105 178.421 56.1107 179.468C56.5362 176.481 60.1705 173.069 62.6748 171.688Z" fill="black"/>
<path d="M43.9079 152.306L67.8403 168.474L58.8955 181.721L34.9631 165.553L43.9079 152.306Z" fill="#FFFBD1" stroke="black" stroke-width="0.1647" stroke-miterlimit="10"/>
<path d="M43.9079 152.306L67.8403 168.474L58.8955 181.721L34.9631 165.553L43.9079 152.306Z" stroke="black" stroke-width="2.5569" stroke-miterlimit="10"/>
<path d="M15.8586 130.204L20.6787 133.461L18.2855 137.004L13.4654 133.747L15.8586 130.204Z" fill="#AF3034" stroke="black" stroke-width="2.4558" stroke-miterlimit="10" stroke-linejoin="round"/>
<path fill-rule="evenodd" clip-rule="evenodd" d="M78.8723 143.848C74.8055 145.3 74.4009 150.407 69.6853 151.202C73.1383 157.084 80.8744 151.607 78.8723 143.848Z" fill="white"/>
<path fill-rule="evenodd" clip-rule="evenodd" d="M46.7075 130.982C40.9386 130.054 24.0294 116.337 23.7295 130.061C25.306 128.882 24.8665 125.686 27.4057 125.463C32.5747 125.198 35.5952 127.075 37.5135 130.061C33.0351 131.066 23.569 128.61 22.8087 135.573C23.2133 138.232 24.7479 139.76 27.4057 140.171C30.0704 137.52 24.9154 138.001 24.6503 135.573C25.6966 131.715 30.4053 131.526 35.6789 131.896C36.6276 136.152 37.5972 140.395 40.2759 142.927C44.6357 139.125 45.8286 142.383 53.1391 142.006C57.5269 152.326 71.7573 152.8 77.9518 161.313C84.209 150.972 81.3071 132.72 69.6786 130.061C79.2702 123.349 89.8454 89.4181 66.0024 96.9676C45.2915 76.9844 40.2899 112.032 46.7075 130.982ZM47.6283 96.0466C52.5462 89.3623 62.375 93.1998 64.1678 99.7236C67.6417 112.339 57.2478 131.219 51.3045 136.494C49.4629 126.81 40.248 106.087 47.6283 96.0466ZM79.7934 105.243C81.2653 118.828 65.1862 132.964 55.9015 135.58C61.1891 125.24 66.4 114.83 66.0093 98.8096C73.4873 92.23 79.2702 100.386 79.7934 105.243ZM56.8153 142.927C55.755 141.839 55.776 139.676 55.8945 137.408C60.7287 136.732 63.5469 134.031 66.9232 131.896C64.9002 136.92 62.7587 141.825 56.8153 142.927ZM61.4123 148.446C65.8908 144.037 69.2252 138.49 74.2756 134.659C77.8332 140.436 68.6462 150.616 61.4123 148.446ZM69.6856 151.203C74.4081 150.407 74.8127 145.3 78.8726 143.848C80.8746 151.607 73.1385 157.084 69.6856 151.203Z" fill="black"/>
<path fill-rule="evenodd" clip-rule="evenodd" d="M51.3044 136.494C57.2547 131.219 67.6416 112.339 64.1677 99.7236C62.3749 93.1997 52.5461 89.3622 47.6282 96.0465C40.2479 106.087 49.4628 126.81 51.3044 136.494Z" fill="white"/>
<path fill-rule="evenodd" clip-rule="evenodd" d="M66.0092 98.8096C66.3998 114.823 61.182 125.24 55.9013 135.58C65.193 132.971 81.2651 118.828 79.7932 105.243C79.27 100.386 73.4871 92.2299 66.0092 98.8096Z" fill="white"/>
<path fill-rule="evenodd" clip-rule="evenodd" d="M66.9299 131.896C63.5537 134.038 60.7355 136.731 55.9013 137.408C55.7827 139.676 55.7618 141.839 56.8221 142.927C62.7584 141.825 64.9 136.92 66.9299 131.896Z" fill="white"/>
<path fill-rule="evenodd" clip-rule="evenodd" d="M74.2825 134.659C69.2251 138.49 65.8907 144.037 61.4192 148.446C68.6461 150.616 77.8331 140.436 74.2825 134.659Z" fill="white"/>
<path fill-rule="evenodd" clip-rule="evenodd" d="M78.8723 143.848C74.8055 145.3 74.4009 150.407 69.6853 151.202C73.1383 157.084 80.8744 151.607 78.8723 143.848Z" fill="#F0B357"/>
<path fill-rule="evenodd" clip-rule="evenodd" d="M37.1297 130.138C37.1995 130.026 37.2622 129.915 37.339 129.81C35.4137 126.977 32.4281 125.205 27.4125 125.463C24.8734 125.679 25.3128 128.882 23.7363 130.061C23.9456 120.335 32.4978 124.389 39.5154 127.905C40.3525 127.473 41.3012 127.221 42.3057 127.221C43.659 127.221 44.9076 127.675 45.9191 128.421C40.4711 109.101 42.9265 78.0519 66.0092 96.9675C89.8453 89.418 79.277 123.349 69.6854 130.061C81.3139 132.719 84.2159 150.972 77.9586 161.313C71.7642 152.8 57.5337 152.326 53.146 142.006C45.8354 142.383 42.3755 138.678 40.2827 142.927C37.6947 138.253 33.0071 136.124 35.6857 131.896C30.4121 131.526 25.7035 131.715 24.6571 135.573C24.9222 137.994 30.0772 137.513 27.4125 140.171C24.7548 139.767 23.2201 138.232 22.8155 135.573C23.555 128.805 32.5118 130.933 37.1297 130.138ZM66.0092 98.8095C66.3998 114.823 61.182 125.24 55.9014 135.58C65.193 132.971 80.2606 118.548 78.7887 104.964M78.8724 143.848C74.8056 145.3 74.401 150.407 69.6854 151.202C73.1384 157.084 80.8745 151.607 78.8724 143.848ZM74.2824 134.659C69.225 138.49 65.8906 144.037 61.4192 148.446C68.646 150.616 77.8331 140.436 74.2824 134.659ZM56.8152 142.927C62.7585 141.825 64.9001 136.913 66.923 131.896C63.5468 134.038 60.7286 136.731 55.8944 137.408C55.7758 139.683 55.7619 141.846 56.8152 142.927ZM64.1676 99.7236C62.3749 93.1998 52.5461 89.3622 47.6282 96.0465C40.2479 106.08 49.4628 126.81 51.3044 136.494C57.2547 131.219 67.6415 112.339 64.1676 99.7236Z" fill="black"/>
<path fill-rule="evenodd" clip-rule="evenodd" d="M51.3044 136.494C57.2547 131.219 67.6416 112.339 64.1677 99.7236C62.3749 93.1997 52.5461 89.3622 47.6282 96.0465C40.2479 106.087 49.4628 126.81 51.3044 136.494Z" fill="white"/>
<path fill-rule="evenodd" clip-rule="evenodd" d="M66.0092 98.8096C66.3998 114.823 61.182 125.24 55.9014 135.58C65.193 132.971 80.0932 118.8 78.6213 105.215C78.0912 100.359 75.6427 93.8208 66.0092 98.8096Z" fill="white"/>
<path fill-rule="evenodd" clip-rule="evenodd" d="M66.9299 131.896C63.5537 134.038 60.7355 136.731 55.9013 137.408C55.7827 139.676 55.7618 141.839 56.8221 142.927C62.7584 141.825 64.9 136.92 66.9299 131.896Z" fill="#F0B357"/>
<path fill-rule="evenodd" clip-rule="evenodd" d="M74.2825 134.659C69.2251 138.49 65.8907 144.037 61.4192 148.446C68.6461 150.616 77.8331 140.436 74.2825 134.659Z" fill="#F0B357"/>
<path fill-rule="evenodd" clip-rule="evenodd" d="M56.1176 144.072C57.2197 150.889 59.1381 157.489 65.0535 162.994C65.3744 161.278 63.9862 160.029 62.5143 158.794C63.6793 154.168 59.4868 151.007 60.2053 146.5L56.1176 144.072ZM49.5116 139.292C51.402 144.951 48.1931 151.998 55.1898 156.261C52.6437 151.907 53.2645 146.688 52.553 141.825L49.5116 139.292Z" fill="black"/>
<path fill-rule="evenodd" clip-rule="evenodd" d="M39.5642 134.178C39.2573 136.083 40.0177 137.785 41.2524 137.987C42.4871 138.183 43.7357 136.801 44.0357 134.896C44.3426 132.992 43.5823 131.289 42.3476 131.087C41.1129 130.884 39.8712 132.273 39.5642 134.178Z" fill="white"/>
<path fill-rule="evenodd" clip-rule="evenodd" d="M41.8382 133.585C40.7291 132.866 39.1177 134.743 40.1362 135.984C41.8173 136.64 42.9404 134.303 41.8382 133.585Z" fill="black"/>
<path fill-rule="evenodd" clip-rule="evenodd" d="M48.7024 139.446C45.6261 139.543 44.8239 143.737 43.645 145.718C44.5518 144.86 46.3306 145.46 47.5444 145.369C47.4607 143.674 48.8977 141.239 49.665 139.76" fill="black"/>
<path d="M64.6933 182L65.9485 184.693L63.2551 185.949L61.9999 183.256L64.6933 182Z" fill="white" stroke="#DA3832" stroke-width="0.651" stroke-miterlimit="10"/>
<path d="M267.419 22.5C250.419 2.00049 234.363 2 222.585 2C199.787 2 180.02 13.2358 174.919 33C173.147 39.8663 175.213 76.6964 180.44 83.4173C187.426 92.399 199.919 84.676 199.919 76.5C199.919 66.0017 189.326 65.2181 178.95 65.2181C164.955 65.2181 154.749 67.2233 142.019 72.881C136.021 75.5471 130.019 79.775 124.919 83.4173C118.824 87.7712 114.948 93.4602 109.665 98.7429C107.056 101.352 97.0005 115.183 97.0005 115.026" stroke="black" stroke-width="3" stroke-linecap="round"/>
</svg>
