<svg width="149" height="133" viewBox="0 0 149 133" fill="none" xmlns="http://www.w3.org/2000/svg">
<path d="M121.456 104.615C120.621 101.75 119.743 98.8842 118.951 95.9898C118.49 94.305 117.439 93.081 115.682 92.2314C115.178 91.9866 103.73 87.969 103.572 87.4506C102.679 84.585 95.4211 88.6026 94.6723 85.6938C93.4195 80.8266 87.3859 76.9242 79.3795 79.3578C65.5411 83.577 51.6019 87.5082 37.7203 91.569C32.6803 93.0378 30.6931 95.9466 31.8883 100.065C34.5091 108.993 37.1155 117.907 39.7363 126.835C40.8595 130.679 44.2291 132.062 49.0099 130.665C57.2467 128.26 65.4691 125.841 73.7059 123.422C81.9427 121.017 90.1651 118.612 98.4019 116.179C103.068 114.796 122.551 108.431 121.456 104.615Z" fill="#81BE71"/>
<path d="M98.3728 116.179C103.082 114.796 122.55 108.417 121.456 104.601C120.621 101.735 119.742 98.8698 118.936 95.9754C118.475 94.2906 117.424 93.0666 115.667 92.217C115.163 91.9722 103.73 87.9546 103.571 87.4362C102.678 84.585 95.4064 88.5882 94.6576 85.6938C93.4048 80.8266 87.3857 76.9242 79.3649 79.3578C65.5265 83.577 51.5873 87.5082 37.7057 91.569C32.6657 93.0378 30.6785 95.9466 31.8737 100.065C34.4801 108.993 37.1008 117.907 39.7216 126.835C40.8448 130.665 44.2145 132.062 48.9953 130.665C57.2321 128.26 65.4544 125.841 73.6912 123.422C81.9136 121.017 90.136 118.612 98.3728 116.179Z" stroke="black" stroke-width="1.7018" stroke-miterlimit="10"/>
<path d="M48.995 130.665C44.2142 132.062 40.859 130.665 39.7214 126.835C37.1006 117.921 34.4942 108.993 31.8734 100.065C30.6638 95.961 32.651 93.0522 37.7054 91.569C51.6014 87.5082 65.5262 83.577 79.3646 79.3578C87.3854 76.9098 93.4046 80.8266 94.6574 85.6938C95.4062 88.5882 102.664 84.585 103.557 87.4506C103.715 87.969 115.149 91.9866 115.667 92.2314C117.424 93.081 118.475 94.305 118.936 95.9898C119.742 98.8698 120.621 101.735 121.441 104.615C122.536 108.431 103.053 114.811 98.3582 116.193C90.1358 118.612 81.8991 121.017 73.6623 123.436C65.4543 125.841 57.2174 128.26 48.995 130.665Z" stroke="black" stroke-width="1.2764" stroke-miterlimit="10"/>
<path d="M121.686 100.108C122.104 101.563 122.55 103.003 122.954 104.457C123.141 105.163 123.429 105.407 124.077 105.191C126.957 104.255 129.75 104.039 128.886 100.929C128.238 98.5818 127.504 96.249 126.856 93.8874C126.64 93.1386 126.352 92.8794 125.661 93.081C122.853 93.9738 119.109 91.1082 119.944 94.1178C120.189 95.0682 121.413 99.1722 121.686 100.108Z" fill="#AF3034" stroke="black" stroke-width="1.7018" stroke-miterlimit="10"/>
<path d="M129.549 98.0202C129.981 99.4602 130.456 100.9 130.802 102.369C130.974 103.075 131.55 103.233 133.206 102.729C140.493 100.497 148.384 98.9562 147.578 95.8314C146.973 93.4698 137.166 78.4074 136.547 76.0458C136.432 75.6282 130.197 74.2458 128.757 78.5082C127.634 81.8346 131.363 90.9354 130.614 91.2378C127.878 92.3754 127.979 92.1882 128.728 95.2122C128.973 96.1626 129.275 97.0842 129.549 98.0202Z" fill="white"/>
<path d="M129.549 98.0201C129.981 99.4601 130.456 100.9 130.802 102.369C130.974 103.075 131.55 103.233 133.206 102.729C140.493 100.497 148.384 98.9561 147.578 95.8313C146.973 93.4697 137.166 78.4074 136.547 76.0458C136.36 75.297 131.306 76.2473 129.563 76.7801C126.899 77.5865 130.989 86.2697 131.003 89.0777C131.032 92.6489 127.446 91.1658 127.907 93.0522C128.152 94.0026 129.275 97.0841 129.549 98.0201Z" stroke="black" stroke-width="1.727" stroke-miterlimit="10"/>
<path d="M81.1644 93.2394C71.6604 95.0106 62.5596 98.3946 53.6172 101.908C63.0492 101.419 72.654 97.761 81.1644 93.2394Z" fill="black"/>
<path d="M82.6475 94.1178C82.6619 99.0138 84.8507 103.924 86.8235 108.115C87.3131 103.348 85.1243 98.1786 82.6475 94.1178Z" fill="black"/>
<path d="M86.7086 110.059C76.787 111.196 67.211 114.897 58.499 119.275C68.4926 117.979 77.3342 114.465 86.7086 110.059Z" fill="black"/>
<path d="M51.8027 107.121C52.6091 110.087 53.0411 111.902 54.3803 114.825C54.9275 116.121 56.6699 118.929 57.4619 120.772C58.1819 116.452 54.6539 110.131 51.8027 107.121Z" fill="black"/>
<path d="M86.3304 88.5938L46.1055 100.394L52.6358 122.655L92.8607 110.855L86.3304 88.5938Z" fill="#FFFBD1" stroke="black" stroke-width="0.1158" stroke-miterlimit="10"/>
<path d="M86.3304 88.5938L46.1055 100.394L52.6358 122.655L92.8607 110.855L86.3304 88.5938Z" stroke="black" stroke-width="1.7981" stroke-miterlimit="10"/>
<path d="M134.87 70.439L126.759 72.8185L128.506 78.7741L136.617 76.3947L134.87 70.439Z" fill="#AF3034" stroke="black" stroke-width="1.727" stroke-miterlimit="10" stroke-linejoin="round"/>
<path fill-rule="evenodd" clip-rule="evenodd" d="M111.145 51.8681C111.03 51.7097 110.915 51.5513 110.785 51.3929C114.054 47.2889 123.184 39.1097 121.701 27.2153C120.217 15.3353 118.23 29.2024 118.23 29.2024C118.23 29.2024 118.993 43.5448 107.099 48.6424C105.688 48.0089 104.075 47.6489 102.361 47.6489C100.057 47.6489 97.9405 48.2969 96.2269 49.3913C105.457 21.4409 46.9213 -28.7432 62.2717 21.2824C16.4077 19.7705 39.6925 42.0473 55.9501 51.7673C36.2365 55.6121 -9.0227 91.1513 1.5901 106.113C6.4285 108.086 26.6605 89.6393 54.3517 82.6985C66.7357 87.1625 80.6605 75.7433 83.9869 69.0617C96.3853 69.6089 102.246 64.2521 105.803 70.3865C110.195 63.6329 118.129 60.5513 113.593 54.4313C122.521 53.8985 123.688 55.4681 129.131 51.9977C134.574 48.5273 137.051 42.0905 135.568 41.0969C134.085 40.1033 126.654 48.5273 126.654 48.5273C126.654 48.5273 118.965 53.0201 111.145 51.8681Z" fill="black"/>
<path fill-rule="evenodd" clip-rule="evenodd" d="M60.6297 54.4169C66.3465 57.5129 71.1273 61.4153 79.3209 62.3945C83.5689 65.8505 70.5081 78.6377 68.7081 80.2073C39.9945 80.2217 32.0745 58.4201 60.6297 54.4169Z" fill="#CD7C3C"/>
<path fill-rule="evenodd" clip-rule="evenodd" d="M29.9874 67.8522C38.3826 73.0074 44.4018 77.457 46.5906 83.2314C34.8258 86.5434 24.357 76.0602 29.9874 67.8522Z" fill="#454545"/>
<path fill-rule="evenodd" clip-rule="evenodd" d="M78.9471 72.0425C77.0895 81.9065 70.9551 94.5209 60.9327 102.484C60.3999 99.9929 62.7471 98.1929 65.2383 96.4073C63.2655 89.7113 75.3903 81.2873 74.1663 74.7641L78.9471 72.0425ZM90.1503 65.1161C88.8255 68.5001 87.7599 73.4969 85.7727 78.4793C85.5423 79.0697 81.9999 78.1625 81.9999 78.1625C83.4687 74.5625 84.5775 71.2073 84.9951 68.7737L90.1503 65.1161Z" fill="black"/>
<path fill-rule="evenodd" clip-rule="evenodd" d="M110.425 56.5769C110.872 59.3417 109.763 61.8185 107.977 62.1065C106.177 62.3945 104.377 60.3785 103.931 57.6137C103.484 54.8489 104.579 52.3722 106.379 52.0842C108.164 51.7962 109.979 53.8121 110.425 56.5769Z" fill="white"/>
<path fill-rule="evenodd" clip-rule="evenodd" d="M107.114 55.7274C108.726 54.6762 111.059 57.4122 109.59 59.2122C107.157 60.1482 105.53 56.7642 107.114 55.7274Z" fill="black"/>
<path fill-rule="evenodd" clip-rule="evenodd" d="M60.227 84.3257C59.7518 84.9449 59.579 85.6505 59.219 86.3273C58.8014 87.1193 58.2398 87.6089 57.4622 88.0697C56.8718 88.4297 56.2238 88.7321 55.6478 89.1353C55.2158 89.4377 54.8846 89.8841 54.4238 90.1433C55.2014 90.4457 56.771 90.7625 57.491 90.4169C58.3838 89.9993 59.3918 89.5241 60.0686 88.7897C60.4718 88.3577 61.307 87.4073 61.6958 86.9465C62.387 86.1113 62.747 85.1753 63.7694 84.9881C64.5326 84.8441 64.1006 84.6281 64.0574 83.7641C64.0286 83.2313 63.5534 82.8425 63.4238 82.3673C62.8478 82.3529 62.3726 82.2089 61.8686 82.5257" fill="black"/>
<path fill-rule="evenodd" clip-rule="evenodd" d="M12.2032 84.3977C17.2576 87.0041 15.5008 89.3369 22.7296 93.9017C16.8832 97.9913 7.86877 90.6185 12.2032 84.3977Z" fill="#454545"/>
<path fill-rule="evenodd" clip-rule="evenodd" d="M19.6905 77.0969C26.5737 80.3225 23.4057 81.9353 33.2985 87.4937C25.7097 91.8281 14.2185 83.9369 19.6905 77.0969Z" fill="#454545"/>
<path fill-rule="evenodd" clip-rule="evenodd" d="M5.7659 91.0649C9.6827 93.0809 8.3147 94.8953 13.9163 98.4233C9.3947 101.606 2.3963 95.9033 5.7659 91.0649Z" fill="#454545"/>
<path fill-rule="evenodd" clip-rule="evenodd" d="M89.0274 53.9705C89.0274 53.9705 100.418 31.6793 68.2338 5.44247C58.3266 1.48247 66.7506 22.7801 66.7506 22.7801C66.7506 22.7801 80.6034 37.6265 89.0274 53.9705Z" fill="white"/>
<path fill-rule="evenodd" clip-rule="evenodd" d="M84.563 61.4009L86.5502 56.4473C86.5502 56.4473 74.6702 33.1769 64.259 26.2361C44.9486 21.7865 38.0078 30.1961 38.0078 30.1961C38.0078 30.1961 47.915 43.5737 62.2718 50.5001C76.643 57.4409 79.6094 55.9433 84.563 61.4009Z" fill="white"/>
<path d="M56.6187 112.08L55.1582 115.212L58.2904 116.673L59.7509 113.54L56.6187 112.08Z" fill="white" stroke="#DA3832" stroke-width="0.3671" stroke-miterlimit="10"/>
</svg>
