<svg width="165" height="204" viewBox="0 0 165 204" fill="none" xmlns="http://www.w3.org/2000/svg">
<path d="M131.517 133.267C129.156 129.739 126.722 126.24 124.389 122.669C123.036 120.595 121.077 119.386 118.341 118.997C117.549 118.882 100.312 118.378 99.8804 117.758C97.4324 114.274 89.3252 122.827 87.0644 119.227C83.2628 113.179 73.4132 110.486 63.6068 117.254C46.6724 128.947 29.5076 140.294 12.4436 151.786C6.2516 155.962 4.8116 160.757 8.21 165.811C15.6116 176.77 22.9988 187.728 30.4004 198.672C33.5828 203.381 38.7524 203.827 44.6132 199.867C54.722 193.042 64.8308 186.216 74.9396 179.39C85.0484 172.565 95.1572 165.754 105.266 158.914C111.012 155.011 134.642 137.962 131.517 133.267Z" fill="#81BE71"/>
<path d="M105.237 158.914C111.011 155.011 134.642 137.962 131.517 133.267C129.155 129.739 126.722 126.24 124.389 122.669C123.035 120.595 121.077 119.386 118.327 118.997C117.535 118.882 100.298 118.378 99.8657 117.744C97.4177 114.259 89.3105 122.827 87.0497 119.227C83.2481 113.179 73.3986 110.486 63.5922 117.254C46.6578 128.947 29.493 140.294 12.429 151.786C6.23695 155.962 4.79696 160.757 8.19536 165.811C15.597 176.77 22.9842 187.728 30.4002 198.686C33.5826 203.395 38.7378 203.827 44.613 199.867C54.7218 193.056 64.8306 186.216 74.9394 179.39C85.0338 172.565 95.1426 165.754 105.237 158.914Z" stroke="black" stroke-width="2.4199" stroke-miterlimit="10"/>
<path d="M44.5986 199.867C38.7378 203.827 33.5682 203.395 30.3858 198.672C22.9842 187.728 15.5827 176.77 8.19545 165.811C4.78265 160.771 6.22265 155.976 12.429 151.786C29.493 140.28 46.6723 128.933 63.5923 117.254C73.3987 110.486 83.2482 113.179 87.0498 119.227C89.3106 122.827 97.4178 114.274 99.8658 117.758C100.298 118.378 117.535 118.896 118.327 118.997C121.077 119.386 123.021 120.595 124.375 122.669C126.707 126.24 129.141 129.739 131.503 133.267C134.642 137.962 110.997 155.011 105.223 158.914C95.1282 165.754 85.005 172.565 74.8962 179.39C64.8162 186.23 54.7074 193.042 44.5986 199.867Z" stroke="black" stroke-width="1.8149" stroke-miterlimit="10"/>
<path d="M129.875 127.061C131.071 128.846 132.295 130.603 133.475 132.403C134.037 133.267 134.527 133.483 135.319 132.907C138.818 130.387 142.504 128.904 139.984 125.059C138.083 122.15 136.082 119.314 134.181 116.405C133.576 115.483 133.058 115.253 132.208 115.843C128.781 118.277 122.488 116.002 124.907 119.717C125.671 120.883 129.098 125.923 129.875 127.061Z" fill="#AF3034" stroke="black" stroke-width="2.4199" stroke-miterlimit="10"/>
<path d="M139.624 120.84C140.833 122.611 142.101 124.354 143.209 126.182C143.742 127.061 144.592 127.032 146.622 125.635C155.521 119.458 165.558 113.971 163.11 110.083C161.267 107.146 141.467 90.9889 139.624 88.0513C139.293 87.5329 130.235 88.3536 130.12 94.7472C130.033 99.7296 139.019 110.458 138.141 111.192C134.929 113.914 134.987 113.626 137.305 117.398C138.04 118.565 138.846 119.688 139.624 120.84Z" fill="white"/>
<path d="M139.624 120.84C140.834 122.611 142.101 124.354 143.21 126.182C143.743 127.061 144.592 127.032 146.623 125.635C155.522 119.458 165.559 113.971 163.111 110.083C161.268 107.146 141.468 90.9889 139.624 88.0513C139.034 87.1153 132.612 90.5857 130.48 92.0545C127.226 94.3009 136.5 104.309 137.738 108.096C139.308 112.92 133.807 112.459 135.261 114.806C135.996 115.987 138.847 119.688 139.624 120.84Z" stroke="black" stroke-width="2.4558" stroke-miterlimit="10"/>
<path d="M20.306 164.4C18.1892 162.47 17.8148 160.238 19.0964 157.992C20.7524 154.061 24.0644 151.915 27.0452 148.978C24.2084 150.418 20.9684 151.426 18.7364 153.802C15.3956 156.998 14.33 162.298 19.0388 164.789C20.1332 165.509 21.3716 165.941 22.5956 166.387C21.8324 165.725 21.0116 165.134 20.306 164.4Z" fill="black"/>
<path d="M72.0303 135.269C59.9199 141.778 49.0623 150.288 38.4639 158.914C51.0063 154.162 62.4543 145.075 72.0303 135.269Z" fill="black"/>
<path d="M74.4209 135.816C76.5665 142.44 81.6497 148.157 86.1425 152.981C84.7025 146.299 79.5185 140.251 74.4209 135.816Z" fill="black"/>
<path d="M86.8047 155.659C73.8591 161.477 62.4831 170.635 52.5615 180.341C65.5359 174.264 76.0047 165.667 86.8047 155.659Z" fill="black"/>
<path d="M38.2334 166.762C40.595 170.419 41.9774 172.694 45.0446 176.078C46.355 177.605 49.9262 180.658 51.7838 182.818C50.9054 176.655 43.403 169.613 38.2334 166.762Z" fill="black"/>
<path d="M76.9741 126.761L27.5703 160.128L46.035 187.468L95.4388 154.1L76.9741 126.761Z" fill="#FFFBD1" stroke="black" stroke-width="0.1647" stroke-miterlimit="10"/>
<path d="M76.9741 126.761L27.5703 160.128L46.035 187.468L95.4388 154.1L76.9741 126.761Z" stroke="black" stroke-width="2.5569" stroke-miterlimit="10"/>
<path d="M134.878 81.1448L124.927 87.8678L129.868 95.182L139.819 88.459L134.878 81.1448Z" fill="#AF3034" stroke="black" stroke-width="2.4558" stroke-miterlimit="10" stroke-linejoin="round"/>
<path fill-rule="evenodd" clip-rule="evenodd" d="M4.79682 109.306C13.192 112.301 14.0272 122.842 23.7616 124.483C16.6336 136.622 0.664017 125.318 4.79682 109.306Z" fill="white"/>
<path fill-rule="evenodd" clip-rule="evenodd" d="M71.1948 82.7521C83.1036 80.8369 118.009 52.5265 118.628 80.8513C115.374 78.4177 116.281 71.8225 111.04 71.3617C100.369 70.8145 94.134 74.6881 90.174 80.8513C99.4188 82.9249 118.96 77.8561 120.529 92.2273C119.694 97.7137 116.526 100.867 111.04 101.717C105.539 96.2449 116.18 97.2385 116.728 92.2273C114.568 84.2641 104.848 83.8753 93.9613 84.6385C92.0029 93.4225 90.0013 102.178 84.4716 107.405C75.4716 99.5569 73.0092 106.282 57.918 105.504C48.8604 126.802 19.4845 127.781 6.69725 145.349C-6.21955 124.008 -0.229149 86.3377 23.7757 80.8513C3.97565 66.9985 -17.8548 -3.02873 31.3644 12.5521C74.118 -28.6895 84.4428 43.6417 71.1948 82.7521ZM69.2941 10.6513C59.142 -3.1439 38.8525 4.77608 35.1517 18.2401C27.9805 44.2753 49.4364 83.2417 61.7052 94.1281C65.5068 74.1409 84.5293 31.3729 69.2941 10.6513ZM2.89565 29.6305C-0.142748 57.6673 33.0492 86.8417 52.2156 92.2417C41.3004 70.9009 30.5437 49.4161 31.3501 16.3537C15.9133 2.77449 3.97565 19.6081 2.89565 29.6305ZM50.3292 107.405C52.518 105.159 52.4749 100.694 52.2301 96.0145C42.2509 94.6177 36.4332 89.0449 29.4636 84.6385C33.6396 95.0065 38.0604 105.13 50.3292 107.405ZM40.8396 118.795C31.5948 109.694 24.7116 98.2465 14.2861 90.3409C6.94205 102.264 25.9068 123.274 40.8396 118.795ZM23.7612 124.483C14.0124 122.842 13.1773 112.301 4.79645 109.306C0.663652 125.318 16.6332 136.622 23.7612 124.483Z" fill="black"/>
<path fill-rule="evenodd" clip-rule="evenodd" d="M61.7058 94.1281C49.4226 83.2417 27.981 44.2753 35.1522 18.2401C38.853 4.77606 59.1426 -3.14392 69.2946 10.6513C84.5298 31.3729 65.5074 74.1409 61.7058 94.1281Z" fill="white"/>
<path fill-rule="evenodd" clip-rule="evenodd" d="M31.3506 16.3536C30.5442 49.4016 41.3154 70.9009 52.2162 92.2417C33.0354 86.856 -0.142166 57.6672 2.89623 29.6304C3.97623 19.608 15.9138 2.77444 31.3506 16.3536Z" fill="white"/>
<path fill-rule="evenodd" clip-rule="evenodd" d="M29.4502 84.6384C36.4198 89.0592 42.2374 94.6177 52.2166 96.0145C52.4614 100.694 52.5046 105.158 50.3158 107.405C38.0614 105.13 33.6406 95.0064 29.4502 84.6384Z" fill="white"/>
<path fill-rule="evenodd" clip-rule="evenodd" d="M14.2729 90.3408C24.7129 98.2464 31.5961 109.694 40.8265 118.795C25.9081 123.274 6.94326 102.264 14.2729 90.3408Z" fill="white"/>
<path fill-rule="evenodd" clip-rule="evenodd" d="M4.79682 109.306C13.192 112.301 14.0272 122.842 23.7616 124.483C16.6336 136.622 0.664017 125.318 4.79682 109.306Z" fill="#F0B357"/>
<path fill-rule="evenodd" clip-rule="evenodd" d="M90.9668 81.0097C90.8228 80.7793 90.6932 80.5489 90.5348 80.3328C94.5092 74.4865 100.672 70.8289 111.026 71.3617C116.268 71.8081 115.36 78.4177 118.615 80.8513C118.183 60.7777 100.528 69.1441 86.042 76.4017C84.314 75.5089 82.3556 74.9905 80.282 74.9905C77.4884 74.9905 74.9108 75.9265 72.8228 77.4673C84.0692 37.5937 79.0004 -26.4864 31.3508 12.552C-17.854 -3.02876 3.96198 66.9985 23.762 80.8513C-0.242821 86.3377 -6.23322 124.008 6.68358 145.349C19.4708 127.781 48.8468 126.802 57.9044 105.504C72.9956 106.282 80.138 98.6353 84.458 107.405C89.8004 97.7569 99.4772 93.3648 93.9476 84.6384C104.834 83.8752 114.554 84.2641 116.714 92.2273C116.167 97.2241 105.525 96.2305 111.026 101.717C116.512 100.882 119.68 97.7137 120.516 92.2273C118.989 78.2593 100.5 82.6513 90.9668 81.0097ZM31.3508 16.3537C30.5444 49.4017 41.3156 70.9009 52.2164 92.2417C33.0356 86.8561 1.93158 57.0913 4.96998 29.0545M4.79718 109.306C13.1924 112.301 14.0276 122.842 23.762 124.483C16.634 136.622 0.664383 125.318 4.79718 109.306ZM14.2724 90.3409C24.7124 98.2465 31.5956 109.694 40.826 118.795C25.9076 123.274 6.94278 102.264 14.2724 90.3409ZM50.33 107.405C38.0612 105.13 33.6404 94.992 29.4644 84.6384C36.434 89.0592 42.2516 94.6177 52.2308 96.0145C52.4756 100.709 52.5044 105.173 50.33 107.405ZM35.1524 18.2401C38.8532 4.77606 59.1428 -3.14393 69.2948 10.6513C84.53 31.3585 65.5076 74.1409 61.706 94.1281C49.4228 83.2417 27.9812 44.2753 35.1524 18.2401Z" fill="black"/>
<path fill-rule="evenodd" clip-rule="evenodd" d="M61.7058 94.1281C49.4226 83.2417 27.981 44.2753 35.1522 18.2401C38.853 4.77606 59.1426 -3.14392 69.2946 10.6513C84.5298 31.3729 65.5074 74.1409 61.7058 94.1281Z" fill="white"/>
<path fill-rule="evenodd" clip-rule="evenodd" d="M31.3508 16.3537C30.5444 49.4017 41.3156 70.9009 52.2164 92.2417C33.0356 86.8561 2.27723 57.6097 5.31563 29.5729C6.41003 19.5505 11.4644 6.05767 31.3508 16.3537Z" fill="white"/>
<path fill-rule="evenodd" clip-rule="evenodd" d="M29.4502 84.6384C36.4198 89.0592 42.2374 94.6177 52.2166 96.0145C52.4614 100.694 52.5046 105.158 50.3158 107.405C38.0614 105.13 33.6406 95.0064 29.4502 84.6384Z" fill="#F0B357"/>
<path fill-rule="evenodd" clip-rule="evenodd" d="M14.2729 90.3408C24.7129 98.2464 31.5961 109.694 40.8265 118.795C25.9081 123.274 6.94326 102.264 14.2729 90.3408Z" fill="#F0B357"/>
<path fill-rule="evenodd" clip-rule="evenodd" d="M51.7702 109.766C49.495 123.835 45.535 137.458 33.3238 148.819C32.6614 145.277 35.527 142.699 38.5654 140.15C36.1606 130.603 44.815 124.08 43.3318 114.778L51.7702 109.766ZM65.407 99.9025C61.5046 111.581 68.1286 126.125 53.6854 134.923C58.9414 125.938 57.6598 115.166 59.1286 105.13L65.407 99.9025Z" fill="black"/>
<path fill-rule="evenodd" clip-rule="evenodd" d="M85.9412 89.3472C86.5748 93.2784 85.0052 96.792 82.4564 97.2096C79.9076 97.6128 77.33 94.7616 76.7108 90.8304C76.0772 86.8992 77.6468 83.3856 80.1956 82.968C82.7444 82.5504 85.3076 85.416 85.9412 89.3472Z" fill="white"/>
<path fill-rule="evenodd" clip-rule="evenodd" d="M81.2463 88.1233C83.5359 86.6401 86.8623 90.5137 84.7599 93.0769C81.2895 94.4305 78.9711 89.6065 81.2463 88.1233Z" fill="black"/>
<path fill-rule="evenodd" clip-rule="evenodd" d="M67.0771 100.219C73.4275 100.421 75.0835 109.075 77.5171 113.165C75.6451 111.394 71.973 112.632 69.4674 112.445C69.6402 108.946 66.6738 103.92 65.0898 100.867" fill="black"/>
<path d="M46.7803 171.464L44.1885 177.024L49.7487 179.616L52.3405 174.056L46.7803 171.464Z" fill="white" stroke="#DA3832" stroke-width="0.651" stroke-miterlimit="10"/>
</svg>
