<svg width="139" height="42" viewBox="0 0 139 42" fill="none" xmlns="http://www.w3.org/2000/svg">
<g clip-path="url(#clip0_857_2461)">
<path d="M134.732 23.1199L134.748 23.1036C137.139 21.1623 138.6 18.3728 138.856 15.2732C139.129 12.0595 138.07 8.7969 135.951 6.34992C133.849 3.90294 130.655 2.5 127.237 2.5C124.476 2.5 121.877 3.42985 119.919 5.12643C117.511 7.21452 116.099 9.93882 115.842 13.0057C115.585 15.9421 116.452 19.009 118.266 21.6354C120.079 24.2618 122.888 25.7137 126.146 25.7463C126.194 25.7463 126.226 25.7463 126.274 25.7463C126.515 25.7463 126.755 25.73 127.012 25.7137C127.076 26.9698 127.092 28.2749 127.108 30.0693C127.108 30.4282 127.125 30.7708 127.125 31.1134C124.525 31.1786 121.925 31.0644 119.373 30.4608C119.325 30.4445 119.293 30.4445 119.261 30.4445C119.228 30.2977 119.18 30.1672 119.116 30.0693C118.859 29.6126 118.298 29.4168 117.8 29.5962C117.303 29.7757 117.046 30.1998 117.142 30.7545C117.238 31.3581 117.768 32.0432 118.378 32.0432C118.587 32.0432 118.972 31.9453 119.228 31.3418L119.245 31.2928C121.86 31.9127 124.509 32.0106 127.157 31.9453C127.173 32.4021 127.205 32.8263 127.237 33.2667C127.349 35.0122 127.446 36.5457 127.125 38.0628C126.146 38.2422 125.279 39.27 125.247 40.3956C125.231 40.836 125.407 41.2602 125.76 41.6354C126.242 42.1411 127.028 42.5 127.686 42.5C127.718 42.5 127.767 42.5 127.799 42.5C128.344 42.4674 128.826 42.2227 129.195 41.8148C129.628 41.3254 129.837 40.5914 129.789 39.8246C129.708 38.5359 128.922 38.1933 128.055 38.0791C128.344 36.5131 128.248 34.9633 128.152 33.2015C128.12 32.7773 128.104 32.3532 128.071 31.9127C130.655 31.8148 133.239 31.6028 135.807 31.5701C135.855 31.5701 135.903 31.5538 135.951 31.5375C136.096 31.8964 136.417 32.0922 136.85 32.0922C137.075 32.0922 137.3 32.0432 137.524 31.9453C138.022 31.7333 138.279 31.2276 138.166 30.6729C138.054 30.102 137.621 29.6941 137.107 29.6941C136.947 29.6941 136.802 29.7268 136.642 29.792L136.577 29.8246C136.337 29.9062 136.128 30.102 136.016 30.3793C135.968 30.4935 135.935 30.6077 135.903 30.7219C135.871 30.7219 135.839 30.7055 135.807 30.7055C133.239 30.7382 130.639 30.9502 128.039 31.0644C128.023 30.7382 128.023 30.3956 128.023 30.053C128.007 28.2422 127.991 26.9209 127.927 25.6321C130.19 25.3548 132.838 24.5555 134.716 23.1199C134.732 23.1362 134.732 23.1199 134.732 23.1199ZM118.875 31.0318L118.827 31.146C118.747 31.3418 118.603 31.5538 118.394 31.5538C118.073 31.5538 117.688 31.0971 117.608 30.6566C117.559 30.3303 117.672 30.1183 117.961 30.0204C118.041 29.9878 118.105 29.9878 118.185 29.9878C118.41 29.9878 118.619 30.102 118.731 30.2977C118.843 30.4935 118.907 30.8034 118.875 31.0318ZM136.417 30.5914C136.497 30.4282 136.609 30.314 136.738 30.2651L136.818 30.2325C136.914 30.1835 137.011 30.1672 137.107 30.1672C137.46 30.1672 137.685 30.4772 137.733 30.7871C137.765 30.9176 137.813 31.3581 137.348 31.5538C137.187 31.6191 137.011 31.668 136.85 31.668C136.593 31.668 136.417 31.5701 136.353 31.3907C136.272 31.1623 136.305 30.8524 136.417 30.5914ZM129.243 39.8573C129.275 40.4772 129.115 41.0644 128.778 41.456C128.521 41.7496 128.168 41.929 127.767 41.9453C127.734 41.9453 127.718 41.9453 127.686 41.9453C127.173 41.9453 126.531 41.6517 126.146 41.2439C125.969 41.0644 125.776 40.7708 125.792 40.4119C125.825 39.4657 126.627 38.5685 127.478 38.5685C128.633 38.6338 129.195 38.8458 129.243 39.8573ZM128.441 24.8654C128.248 24.898 128.071 24.9307 127.895 24.9633C127.879 24.8002 127.879 24.6207 127.863 24.4576C128.729 23.6093 129.452 22.4837 130.142 21.3744C130.864 20.2161 131.634 19.0253 132.533 18.2096L132.613 18.1281C132.645 18.1117 132.661 18.0791 132.694 18.0465L137.396 17.4266L137.284 16.513L133.817 16.9698L137.653 13.332L137.027 12.6631L131.971 17.4592C130.928 18.3564 130.126 19.6289 129.355 20.8687C128.826 21.717 128.312 22.5326 127.734 23.2178C127.654 22.3695 127.574 21.4396 127.446 20.314C127.253 18.5359 127.125 16.9372 127.044 15.4038C128.441 14.4902 129.179 14.0661 130.286 13.4462C130.623 13.2504 130.992 13.0547 131.426 12.7936C132.084 12.4184 132.982 12.0922 133.833 11.7822C134.764 11.456 135.727 11.1134 136.497 10.6566L136.048 9.85726C135.358 10.2651 134.427 10.5914 133.544 10.9013C133.271 10.9992 132.982 11.0971 132.71 11.2113C132.886 10.9176 133.063 10.5914 133.239 10.2651C133.769 9.30261 134.379 8.20963 134.732 7.85073L134.09 7.21452C133.656 7.65498 133.079 8.71533 132.469 9.82463C132.003 10.6566 131.538 11.5049 131.249 11.8638C131.169 11.8964 131.089 11.9454 131.008 11.978C130.575 12.2227 130.206 12.4347 129.869 12.6142C128.906 13.1525 128.184 13.5604 127.028 14.3108C126.98 12.8589 127.012 11.4396 127.108 9.93883C128.553 8.82953 131.506 6.2031 132.036 5.30587L131.265 4.81648C130.88 5.45269 128.729 7.42659 127.205 8.68271C127.333 7.21452 127.542 5.66476 127.847 3.93556L126.948 3.77243C126.627 5.63214 126.418 7.29608 126.274 8.84584C125.038 7.73654 123.754 6.59462 122.888 5.3385L122.149 5.87683C123.096 7.23083 124.428 8.43801 125.728 9.59625L126.178 10.0041C126.033 12.1737 126.065 14.1966 126.21 16.3662C124.589 14.7023 122.647 11.9127 121.154 9.77569C120.609 8.99266 120.143 8.32382 119.742 7.78548L119.02 8.34013C119.405 8.86215 119.87 9.53099 120.416 10.314C120.817 10.9013 121.267 11.5375 121.732 12.19C120.737 11.8964 119.517 11.4886 118.651 11.2276L117.832 10.9666L117.559 11.8475L118.362 12.1085C119.678 12.5326 121.652 13.1525 122.583 13.4135C123.835 15.1264 125.167 16.7741 126.274 17.7365C126.322 18.2422 126.354 18.7643 126.418 19.3026C125.118 18.3075 123.433 17.2308 121.796 16.1868C120.207 15.1754 118.699 14.2129 117.624 13.3809L117.078 14.115C118.185 14.9796 119.71 15.9421 121.315 16.9698C121.716 17.2308 122.117 17.4918 122.535 17.7529C120.978 17.7692 119.245 17.6876 117.977 17.4103L117.784 18.3075C119.004 18.5685 120.625 18.6664 122.117 18.6664C122.743 18.6664 123.337 18.6501 123.883 18.6175C124.91 19.3026 125.841 19.9715 126.563 20.575C126.755 22.4184 126.884 23.7561 126.948 25.0285C126.675 25.0449 126.418 25.0612 126.162 25.0612C123.594 25.0612 121.347 24.0661 119.469 22.1248C115.296 17.7692 115.313 10.6566 119.517 6.26835C121.459 4.24551 124.139 3.1199 127.044 3.1199C130.013 3.1199 132.95 4.29445 135.101 6.36623C137.235 8.40538 138.375 11.3581 138.263 14.4576C138.134 17.6713 136.706 20.6403 134.314 22.5816C132.726 23.854 130.447 24.4576 128.441 24.8654Z" fill="#0E103B"/>
<path d="M6.40323 27.3616C5.63288 27.3616 4.92672 27.2148 4.25267 26.9048C3.57861 26.5949 3.00085 26.187 2.50333 25.6487C2.00582 25.1104 1.62064 24.4905 1.33176 23.789C1.04288 23.0712 0.898438 22.3208 0.898438 21.5052C0.898438 20.6079 1.05893 19.7596 1.37991 18.9766C1.70088 18.1936 2.13421 17.5084 2.67987 16.9211C3.22553 16.3339 3.86749 15.8771 4.60575 15.5345C5.344 15.1919 6.13039 15.0288 6.96494 15.0288C7.62295 15.0288 8.21676 15.0941 8.76242 15.2409C9.30809 15.3877 9.78956 15.5835 10.1908 15.8282C10.592 16.0892 10.8969 16.3828 11.1216 16.7254C11.3463 17.068 11.4586 17.4432 11.4586 17.8347C11.4586 18.0141 11.4105 18.1773 11.3303 18.3404C11.25 18.5035 11.1216 18.634 10.9772 18.7482C10.8327 18.8624 10.6722 18.9603 10.4797 19.0255C10.2871 19.0908 10.1105 19.1234 9.91795 19.1234C9.70931 19.1234 9.51672 19.0908 9.35623 19.0092C9.1797 18.9277 9.0513 18.8298 8.92291 18.7156C8.81057 18.5851 8.71428 18.4546 8.65008 18.2915C8.58588 18.1283 8.55379 17.9815 8.55379 17.8184C8.55379 17.541 8.52169 17.28 8.47354 17.0516C8.40935 16.8069 8.31305 16.6112 8.16861 16.4317C8.02417 16.2523 7.83158 16.1218 7.5748 16.0239C7.31802 15.926 6.99704 15.8771 6.61186 15.8771C6.08225 15.8771 5.60078 15.9913 5.18351 16.2034C4.76623 16.4154 4.41316 16.7091 4.12428 17.0843C3.8354 17.4432 3.61071 17.8836 3.46627 18.373C3.32183 18.8624 3.24158 19.4007 3.24158 19.9554C3.24158 20.7058 3.33788 21.4236 3.53046 22.0924C3.72305 22.7776 3.99588 23.3649 4.34896 23.8706C4.70204 24.3763 5.13536 24.7841 5.63288 25.0777C6.13039 25.3714 6.69211 25.5182 7.30197 25.5182C7.84763 25.5182 8.31305 25.4366 8.69823 25.2572C9.09945 25.0777 9.43648 24.8494 9.74141 24.5557C10.0303 24.2621 10.2871 23.9195 10.4957 23.528C10.7043 23.1365 10.8969 22.7286 11.0574 22.2882L11.7636 22.5818C11.571 23.3159 11.3142 23.9848 10.9772 24.572C10.6402 25.1593 10.255 25.6487 9.78956 26.0565C9.34019 26.4644 8.82662 26.7743 8.2649 26.9864C7.68714 27.2637 7.07728 27.3616 6.40323 27.3616Z" fill="#0E103B"/>
<path d="M12.3887 15.29H15.0207L19.5144 23.8382L23.1896 15.29H24.4254L18.4873 29.1889C18.2465 29.7599 17.9577 30.2656 17.6206 30.706C17.2996 31.1302 16.9466 31.4891 16.5774 31.7664C16.2083 32.0437 15.8392 32.2558 15.454 32.3863C15.0688 32.5168 14.6837 32.582 14.3145 32.582C14.0578 32.582 13.817 32.5494 13.5923 32.4842C13.3677 32.4189 13.1751 32.321 12.9985 32.2068C12.838 32.0926 12.6936 31.9458 12.5973 31.7664C12.501 31.6033 12.4529 31.4075 12.4529 31.2117C12.4529 31.0486 12.485 30.8855 12.5492 30.7387C12.6134 30.5755 12.7097 30.445 12.822 30.3308C12.9343 30.2166 13.0788 30.1187 13.2553 30.0372C13.4319 29.9719 13.6084 29.923 13.817 29.923C14.0738 29.923 14.2664 29.9556 14.3948 30.0046C14.5392 30.0535 14.6676 30.1188 14.78 30.184C14.8923 30.2493 15.0207 30.3145 15.1491 30.3634C15.2775 30.4124 15.454 30.445 15.6787 30.445C15.9194 30.445 16.1281 30.3798 16.3207 30.2329C16.4972 30.1024 16.6737 29.923 16.8342 29.7109C16.9947 29.4988 17.1231 29.2705 17.2355 29.0258C17.3478 28.7811 17.4601 28.5527 17.5564 28.3406L18.3428 26.5625L12.3887 15.29Z" fill="#0E103B"/>
<path d="M29.7704 27.3616C29.0001 27.3616 28.2939 27.2148 27.6199 26.9048C26.9458 26.5949 26.368 26.187 25.8705 25.6487C25.373 25.1104 24.9878 24.4905 24.6989 23.789C24.4101 23.0712 24.2656 22.3208 24.2656 21.5052C24.2656 20.6079 24.4261 19.7596 24.7471 18.9766C25.0681 18.1936 25.5014 17.5084 26.0471 16.9211C26.5927 16.3339 27.2347 15.8771 27.9729 15.5345C28.7112 15.1919 29.4976 15.0288 30.3321 15.0288C30.9901 15.0288 31.5839 15.0941 32.1296 15.2409C32.6753 15.3877 33.1567 15.5835 33.558 15.8282C33.9592 16.0892 34.2641 16.3828 34.4888 16.7254C34.7135 17.068 34.8258 17.4432 34.8258 17.8347C34.8258 18.0141 34.7777 18.1773 34.6974 18.3404C34.6172 18.5035 34.4888 18.634 34.3444 18.7482C34.1999 18.8624 34.0394 18.9603 33.8468 19.0255C33.6543 19.0908 33.4777 19.1234 33.2851 19.1234C33.0765 19.1234 32.8839 19.0908 32.7234 19.0092C32.5469 18.9277 32.4185 18.8298 32.2901 18.7156C32.1778 18.5851 32.0815 18.4546 32.0173 18.2915C31.9531 18.1283 31.921 17.9815 31.921 17.8184C31.921 17.541 31.8889 17.28 31.8407 17.0516C31.7765 16.8069 31.6802 16.6112 31.5358 16.4317C31.3914 16.2523 31.1988 16.1218 30.942 16.0239C30.6852 15.926 30.3642 15.8771 29.979 15.8771C29.4494 15.8771 28.968 15.9913 28.5507 16.2034C28.1334 16.4154 27.7803 16.7091 27.4915 17.0843C27.2026 17.4432 26.9779 17.8836 26.8335 18.373C26.689 18.8624 26.6088 19.4007 26.6088 19.9554C26.6088 20.7058 26.7051 21.4236 26.8977 22.0924C27.0902 22.7776 27.3631 23.3649 27.7161 23.8706C28.0692 24.3763 28.5025 24.7841 29.0001 25.0777C29.4976 25.3714 30.0593 25.5182 30.6692 25.5182C31.2148 25.5182 31.6802 25.4366 32.0654 25.2572C32.4666 25.0777 32.8037 24.8494 33.1086 24.5557C33.3975 24.2621 33.6543 23.9195 33.8629 23.528C34.0715 23.1365 34.2641 22.7286 34.4246 22.2882L35.1308 22.5818C34.9382 23.3159 34.6814 23.9848 34.3444 24.572C34.0073 25.1593 33.6222 25.6487 33.1567 26.0565C32.7074 26.4644 32.1938 26.7743 31.6321 26.9864C31.0543 27.2637 30.4284 27.3616 29.7704 27.3616Z" fill="#0E103B"/>
<path d="M39.4487 27.1168H37.1377V9.89003L38.7907 9.22119H39.4487V27.1168Z" fill="#0E103B"/>
<path d="M47.1841 27.3614C46.3977 27.3614 45.6595 27.2146 44.9694 26.9046C44.2793 26.5947 43.6694 26.1868 43.1558 25.6811C42.6423 25.1591 42.225 24.5555 41.9201 23.8704C41.6151 23.1689 41.4707 22.4348 41.4707 21.6355C41.4707 20.673 41.6151 19.8084 41.888 18.9927C42.1608 18.1934 42.546 17.4919 43.0435 16.9046C43.541 16.3174 44.1509 15.8606 44.857 15.5343C45.5632 15.2081 46.3496 15.0449 47.2162 15.0449C47.9866 15.0449 48.6767 15.1754 49.3186 15.4528C49.9606 15.7301 50.5063 16.089 50.9556 16.5457C51.405 17.0025 51.7741 17.5245 52.0149 18.1281C52.2716 18.7317 52.4 19.3516 52.4 20.0205H43.7176C43.7176 20.8198 43.8138 21.5539 44.0225 22.2227C44.2311 22.8916 44.504 23.4789 44.8731 23.9846C45.2422 24.4903 45.6755 24.8655 46.173 25.1428C46.6706 25.4201 47.2323 25.5669 47.8261 25.5669C48.3397 25.5669 48.8211 25.4854 49.2705 25.3222C49.7359 25.1591 50.1532 24.947 50.5223 24.6697C50.8914 24.3924 51.2124 24.0824 51.4852 23.7399C51.7581 23.3973 51.9346 23.0384 52.047 22.6632L52.705 22.9731C52.5445 23.5767 52.2716 24.1477 51.9025 24.686C51.5334 25.2244 51.1001 25.6811 50.6026 26.089C50.105 26.4805 49.5594 26.8067 48.9816 27.0351C48.3878 27.2472 47.794 27.3614 47.1841 27.3614ZM49.4952 19.0743C49.4952 18.6338 49.4149 18.2097 49.2544 17.8182C49.094 17.4267 48.8853 17.1004 48.6125 16.8067C48.3397 16.5294 48.0187 16.301 47.6495 16.1379C47.2804 15.9748 46.8953 15.8932 46.478 15.8932C46.1249 15.8932 45.7879 15.9748 45.4669 16.1379C45.1459 16.301 44.8731 16.5131 44.6163 16.8067C44.3756 17.0841 44.1669 17.4267 43.9904 17.8019C43.8299 18.1771 43.7336 18.6012 43.7015 19.058L49.4952 19.0743Z" fill="#0E103B"/>
<path d="M73.4078 27.3614C72.6214 27.3614 71.8831 27.2146 71.193 26.9046C70.5029 26.5947 69.893 26.1868 69.3795 25.6811C68.8659 25.1591 68.4486 24.5555 68.1437 23.8704C67.8388 23.1689 67.6943 22.4348 67.6943 21.6355C67.6943 20.673 67.8227 19.8084 68.0956 18.9927C68.3684 18.1934 68.7536 17.4919 69.2511 16.9046C69.7486 16.3174 70.3585 15.8606 71.0646 15.5343C71.7708 15.2081 72.5572 15.0449 73.4238 15.0449C74.1942 15.0449 74.8843 15.1754 75.5262 15.4528C76.1682 15.7301 76.7139 16.089 77.1632 16.5457C77.6286 17.0025 77.9817 17.5245 78.2224 18.1281C78.4792 18.7317 78.6076 19.3516 78.6076 20.0205H69.9251C69.9251 20.8198 70.0214 21.5539 70.2301 22.2227C70.4227 22.8916 70.7115 23.4789 71.0807 23.9846C71.4498 24.4903 71.8831 24.8655 72.3806 25.1428C72.8781 25.4201 73.4399 25.5669 74.0337 25.5669C74.5472 25.5669 75.0287 25.4854 75.4781 25.3222C75.9435 25.1591 76.3608 24.947 76.7299 24.6697C77.099 24.3924 77.42 24.0824 77.6928 23.7399C77.9496 23.3973 78.1422 23.0384 78.2545 22.6632L78.9125 22.9731C78.736 23.5767 78.4792 24.1477 78.1101 24.686C77.741 25.2244 77.3077 25.6811 76.8101 26.089C76.3126 26.4805 75.767 26.8067 75.1892 27.0351C74.5954 27.2472 74.0016 27.3614 73.4078 27.3614ZM75.7188 19.0743C75.7188 18.6338 75.6386 18.2097 75.4781 17.8182C75.3176 17.4267 75.109 17.1004 74.8361 16.8067C74.5633 16.5294 74.2423 16.301 73.8732 16.1379C73.5041 15.9748 73.1189 15.8932 72.7016 15.8932C72.3485 15.8932 72.0115 15.9748 71.6905 16.1379C71.3695 16.301 71.0967 16.5131 70.8399 16.8067C70.5831 17.0841 70.3906 17.4267 70.214 17.8019C70.0535 18.1771 69.9572 18.6012 69.9251 19.058L75.7188 19.0743Z" fill="#0E103B"/>
<path d="M80.8379 15.2733H83.1329V17.5082C83.3576 17.1656 83.5983 16.8557 83.8551 16.5621C84.1119 16.2684 84.3847 16.0074 84.6736 15.779C84.9625 15.5506 85.2513 15.3712 85.5402 15.2407C85.8452 15.1102 86.1501 15.0449 86.455 15.0449C86.7118 15.0449 86.9365 15.0776 87.1612 15.1591C87.3859 15.2407 87.5624 15.3386 87.7389 15.4691C87.8994 15.5996 88.0278 15.7464 88.1241 15.9258C88.2204 16.1053 88.2686 16.2847 88.2686 16.4642C88.2686 16.8557 88.1562 17.133 87.9155 17.3288C87.6908 17.5245 87.3538 17.6224 86.9365 17.6224C86.6797 17.6224 86.4711 17.5898 86.3106 17.5408C86.1501 17.4756 86.0217 17.4267 85.8933 17.3614C85.7649 17.2961 85.6365 17.2309 85.5081 17.182C85.3797 17.1167 85.2193 17.1004 85.0106 17.1004C84.8501 17.1004 84.7057 17.1493 84.5612 17.2472C84.4008 17.3451 84.2563 17.4756 84.0958 17.6387C83.9353 17.8019 83.7748 17.9976 83.6144 18.226C83.4539 18.4544 83.2934 18.6991 83.1329 18.9601V27.1656H80.8379V15.2733Z" fill="#0E103B"/>
<path d="M90.0034 15.2733H92.2984V17.5082C92.523 17.1656 92.7638 16.8557 93.0206 16.5621C93.2773 16.2684 93.5502 16.0074 93.8391 15.779C94.1279 15.5506 94.4168 15.3712 94.7057 15.2407C95.0106 15.1102 95.3156 15.0449 95.6205 15.0449C95.8773 15.0449 96.102 15.0776 96.3266 15.1591C96.5353 15.2407 96.7279 15.3386 96.9044 15.4691C97.0649 15.5996 97.1933 15.7464 97.2896 15.9258C97.3859 16.1053 97.434 16.2847 97.434 16.4642C97.434 16.8557 97.3217 17.133 97.0809 17.3288C96.8563 17.5245 96.5192 17.6224 96.102 17.6224C95.8452 17.6224 95.6365 17.5898 95.476 17.5408C95.3156 17.4756 95.1872 17.4267 95.0588 17.3614C94.9304 17.2961 94.802 17.2309 94.6736 17.182C94.5452 17.1167 94.3847 17.1004 94.1761 17.1004C94.0156 17.1004 93.8712 17.1493 93.7107 17.2472C93.5502 17.3451 93.4057 17.4756 93.2452 17.6387C93.0848 17.8019 92.9243 17.9976 92.7638 18.226C92.6033 18.4544 92.4428 18.6991 92.2823 18.9601V27.1656H89.9873V15.2733H90.0034Z" fill="#0E103B"/>
<path d="M103.355 27.3614C102.569 27.3614 101.83 27.2146 101.14 26.9046C100.45 26.5947 99.8403 26.1868 99.3267 25.6811C98.8132 25.1591 98.3959 24.5555 98.091 23.8704C97.786 23.1689 97.6416 22.4348 97.6416 21.6355C97.6416 20.673 97.786 19.8084 98.0589 18.9927C98.3317 18.1934 98.7169 17.4919 99.2144 16.9046C99.7119 16.3174 100.322 15.8606 101.028 15.5343C101.734 15.2081 102.52 15.0449 103.387 15.0449C104.157 15.0449 104.848 15.1754 105.49 15.4528C106.115 15.7301 106.677 16.089 107.127 16.5457C107.592 17.0025 107.945 17.5245 108.186 18.1281C108.443 18.7317 108.571 19.3516 108.571 20.0205H99.8885C99.8885 20.8198 99.9848 21.5539 100.193 22.2227C100.386 22.8916 100.675 23.4789 101.044 23.9846C101.413 24.4903 101.846 24.8655 102.344 25.1428C102.841 25.4201 103.403 25.5669 103.997 25.5669C104.511 25.5669 104.992 25.4854 105.441 25.3222C105.907 25.1591 106.324 24.947 106.693 24.6697C107.062 24.3924 107.383 24.0824 107.656 23.7399C107.913 23.3973 108.106 23.0384 108.218 22.6632L108.876 22.9731C108.699 23.5767 108.443 24.1477 108.073 24.686C107.704 25.2244 107.271 25.6811 106.773 26.089C106.276 26.4805 105.73 26.8067 105.153 27.0351C104.543 27.2472 103.949 27.3614 103.355 27.3614ZM105.666 19.0743C105.666 18.6338 105.586 18.2097 105.425 17.8182C105.265 17.4267 105.056 17.1004 104.783 16.8067C104.511 16.5294 104.19 16.301 103.82 16.1379C103.451 15.9748 103.066 15.8932 102.649 15.8932C102.296 15.8932 101.959 15.9748 101.638 16.1379C101.317 16.301 101.044 16.5131 100.787 16.8067C100.53 17.0841 100.338 17.4267 100.161 17.8019C100.001 18.1771 99.9045 18.6012 99.8724 19.058L105.666 19.0743Z" fill="#0E103B"/>
<path d="M60.2643 24.3108C60.2643 24.7349 60.1841 25.1265 60.0236 25.5017C59.8631 25.8769 59.6544 26.2031 59.3816 26.4805C59.1088 26.7578 58.8039 26.9862 58.4347 27.133C58.0817 27.2961 57.6965 27.3777 57.2792 27.3777C56.7817 27.3777 56.3323 27.3124 55.915 27.1656C55.4978 27.0188 55.1286 26.8067 54.8237 26.5457C54.5188 26.2847 54.278 25.9584 54.1015 25.5832C53.925 25.208 53.8447 24.7839 53.8447 24.3271C53.8447 23.9193 53.9089 23.5441 54.0534 23.2015C54.1978 22.8589 54.3904 22.5653 54.6151 22.3206C54.8558 22.0759 55.1286 21.8801 55.4336 21.7496C55.7385 21.6191 56.0755 21.5376 56.4126 21.5376V26.2031C56.8298 26.2031 57.215 26.1542 57.5681 26.04C57.9212 25.9258 58.2261 25.779 58.4829 25.5832C58.7397 25.3875 58.9483 25.1591 59.0927 24.8818C59.2372 24.6044 59.3014 24.3108 59.3014 23.9845C59.3014 23.7072 59.2532 23.4462 59.173 23.2015C59.0927 22.9568 58.9804 22.7284 58.836 22.5327C58.6915 22.3369 58.531 22.1575 58.3545 22.0106C58.1779 21.8638 57.9854 21.7659 57.7928 21.7007L57.9533 21.3418C58.2742 21.4234 58.5631 21.5702 58.836 21.7659C59.1088 21.9617 59.3495 22.1901 59.5582 22.4674C59.7668 22.7284 59.9273 23.0221 60.0557 23.3483C60.2001 23.6583 60.2643 23.9845 60.2643 24.3108ZM55.9632 23.0547C55.7225 23.0547 55.5138 23.1036 55.3052 23.1852C55.0965 23.2668 54.9361 23.3809 54.7756 23.5278C54.6311 23.6746 54.5188 23.854 54.4385 24.0498C54.3583 24.2455 54.3101 24.4576 54.3101 24.686C54.3101 24.8818 54.3583 25.0612 54.4385 25.2243C54.5188 25.3875 54.6311 25.5506 54.7756 25.6811C54.92 25.8116 55.0965 25.9258 55.2891 26.0074C55.4817 26.0889 55.7064 26.1542 55.9311 26.1705L55.9632 23.0547Z" fill="#0E103B"/>
<path d="M66.6674 25.2082C66.5069 25.3876 66.3143 25.5507 66.1057 25.6812C65.881 25.8118 65.6563 25.877 65.3995 25.877C65.223 25.877 65.0625 25.8444 64.902 25.7791C64.7415 25.7139 64.6131 25.616 64.5008 25.5018C64.3885 25.3876 64.2922 25.2571 64.228 25.094C64.1638 24.9472 64.1317 24.784 64.1317 24.6046V16.2522H66.7477V15.2571H64.1317V11.2114H63.3292C63.249 11.5703 63.1687 11.9292 63.0724 12.2555C62.912 12.7938 62.7033 13.2669 62.4465 13.6747C62.1737 14.0826 61.8367 14.4088 61.4194 14.6372C61.0021 14.8819 60.4725 14.9961 59.8145 14.9961H55.722C55.4652 14.9961 55.2245 15.0287 54.9998 15.1266C54.7751 15.2082 54.5826 15.3224 54.406 15.4692C54.2455 15.616 54.1011 15.7791 54.0048 15.9749C53.9085 16.1706 53.8604 16.3664 53.8604 16.5948C53.8604 17.0189 53.9566 17.4268 54.1653 17.8346C54.3739 18.2424 54.6788 18.6339 55.0961 19.0091H53.9727V20.2489H60.1194V19.0091H55.5615C55.4331 18.8623 55.3048 18.7155 55.1924 18.5687C55.0801 18.4219 54.9838 18.275 54.9035 18.1119C54.8233 17.9651 54.7591 17.8183 54.727 17.6551C54.6788 17.5083 54.6628 17.3615 54.6628 17.231C54.6628 16.9374 54.7751 16.6927 54.9838 16.5132C55.1924 16.3338 55.4973 16.2359 55.9146 16.2359H61.8046V24.5883C61.8046 24.9961 61.8527 25.3713 61.949 25.7139C62.0453 26.0565 62.1737 26.3501 62.3663 26.5785C62.5428 26.8232 62.7836 27.0026 63.0724 27.1494C63.3613 27.2799 63.6984 27.3452 64.0835 27.3452C64.8378 27.3452 65.4798 27.1821 65.9934 26.8721C66.5069 26.5458 66.9242 26.1217 67.2291 25.5834L66.6674 25.2082Z" fill="#0E103B"/>
<path d="M31.6654 35.5669H27.252V35.8932H31.6654V35.5669Z" fill="#0E103B"/>
<path d="M82.8119 35.5669H78.3984V35.8932H82.8119V35.5669Z" fill="#0E103B"/>
<path d="M34.6651 36.7255C34.7454 36.9212 34.8256 37.117 34.9059 37.2801C34.9861 37.4433 35.0984 37.6064 35.2108 37.7206C35.3392 37.8511 35.4676 37.949 35.6281 38.0142C35.7885 38.0795 35.9811 38.1121 36.1898 38.1121C36.3342 38.1121 36.4465 38.0958 36.5589 38.0468C36.6712 37.9979 36.7675 37.9327 36.8638 37.8348C36.9601 37.7369 37.0404 37.639 37.0885 37.5085C37.1367 37.378 37.1688 37.2475 37.1688 37.0844C37.1688 36.8886 37.1367 36.7255 37.0564 36.6113C36.9922 36.4808 36.8959 36.3666 36.7836 36.285C36.6712 36.2035 36.5589 36.1219 36.4305 36.0566C36.3021 35.9914 36.1577 35.9098 36.0132 35.8446C35.8367 35.763 35.6602 35.6814 35.4676 35.5835C35.275 35.4857 35.1145 35.3715 34.97 35.2247C34.8256 35.0778 34.7133 34.931 34.633 34.7516C34.5528 34.5884 34.5207 34.3764 34.5207 34.148C34.5207 33.9033 34.5688 33.6912 34.6651 33.4955C34.7614 33.2997 34.8898 33.1529 35.0663 33.0224C35.2268 32.8919 35.4355 32.794 35.6601 32.7287C35.9009 32.6635 36.1416 32.6309 36.3824 32.6309C36.6231 32.6309 36.8478 32.6472 37.0564 32.6798C37.265 32.7124 37.4897 32.7614 37.7305 32.8266C37.7144 32.9571 37.7144 33.0713 37.6984 33.1692C37.6984 33.2834 37.6823 33.3813 37.6823 33.4791C37.6823 33.577 37.6823 33.6912 37.6823 33.7891C37.6823 33.9033 37.6823 34.0175 37.6823 34.1317L37.4255 34.148C37.3934 33.7402 37.265 33.4302 37.0564 33.2344C36.8478 33.0387 36.5589 32.9408 36.2058 32.9408C36.1095 32.9408 35.9972 32.9571 35.8848 33.0061C35.7725 33.055 35.6762 33.1039 35.5799 33.1855C35.4997 33.2671 35.4355 33.365 35.3873 33.4791C35.3392 33.5933 35.3231 33.7238 35.3231 33.8544C35.3231 34.0338 35.3552 34.1969 35.4194 34.3274C35.4836 34.4579 35.5639 34.5558 35.6601 34.6374C35.7564 34.7189 35.8848 34.7842 36.0132 34.8495C36.1416 34.9147 36.2861 34.98 36.4466 35.0452C36.6231 35.1268 36.8157 35.2247 37.0243 35.3388C37.2329 35.453 37.3934 35.5836 37.5218 35.7141C37.6502 35.8446 37.7626 35.9914 37.8589 36.1708C37.9551 36.3503 38.0033 36.5623 38.0033 36.7907C38.0033 37.0517 37.9551 37.2964 37.8428 37.4922C37.7305 37.7043 37.6021 37.8674 37.4255 38.0142C37.249 38.161 37.0404 38.2589 36.7996 38.3405C36.5589 38.4221 36.3182 38.4547 36.0774 38.4547C35.8688 38.4547 35.6441 38.4384 35.4194 38.3894C35.1947 38.3405 34.954 38.2915 34.6972 38.21C34.6651 37.949 34.633 37.7206 34.6009 37.4922C34.5688 37.2638 34.5046 37.0191 34.4404 36.7744L34.6651 36.7255Z" fill="#0E103B"/>
<path d="M40.0418 37.3944C40.0418 37.5249 40.0418 37.6391 40.0579 37.7206C40.0739 37.8022 40.106 37.8675 40.1542 37.9164C40.2023 37.9653 40.2826 37.998 40.3789 38.0143C40.4752 38.0306 40.6036 38.0469 40.748 38.0469H41.085C41.3097 38.0469 41.4862 38.0306 41.6307 37.998C41.7751 37.9653 41.8875 37.9001 41.9838 37.8185C42.0801 37.737 42.1603 37.6228 42.2405 37.4759C42.3208 37.3291 42.401 37.166 42.4813 36.9539L42.722 37.0029C42.6899 37.1171 42.6578 37.2313 42.6418 37.3618C42.6097 37.4923 42.5936 37.6228 42.5615 37.737C42.5455 37.8675 42.5134 37.9817 42.4973 38.0795C42.4813 38.1937 42.4652 38.2753 42.4652 38.3406C41.6949 38.3406 41.069 38.3406 40.6036 38.3406C40.1381 38.3406 39.7851 38.3406 39.5443 38.3406C39.448 38.3406 39.3517 38.3406 39.2554 38.3406C39.1592 38.3406 39.0629 38.3406 38.9666 38.3406C38.8703 38.3406 38.774 38.3406 38.6777 38.3406C38.5814 38.3406 38.5011 38.3406 38.4369 38.3406L38.4209 38.1285C38.5974 38.1122 38.7419 38.0959 38.8382 38.0795C38.9505 38.0469 39.0308 38.0143 39.0789 37.9653C39.1431 37.9164 39.1752 37.8348 39.1912 37.7533C39.2073 37.6554 39.2233 37.5412 39.2233 37.3944V33.4955C39.2233 33.3976 39.2073 33.3324 39.1912 33.2671C39.1752 33.2019 39.1431 33.153 39.095 33.1203C39.0468 33.0714 38.9666 33.0551 38.8703 33.0224C38.774 33.0061 38.6456 32.9898 38.4851 32.9735L38.5011 32.7451C38.5814 32.7451 38.6616 32.7451 38.7579 32.7451C38.8542 32.7451 38.9505 32.7451 39.0468 32.7451C39.1431 32.7451 39.2554 32.7451 39.3517 32.7451C39.4641 32.7451 39.5443 32.7451 39.6406 32.7451C39.7851 32.7451 40.106 32.7451 40.5875 32.7451C41.069 32.7451 41.6788 32.7451 42.4171 32.7451C42.401 32.9409 42.3689 33.153 42.3689 33.365C42.3529 33.5771 42.3529 33.8218 42.3529 34.0665H42.0961C42.064 33.8707 42.0159 33.6913 41.9838 33.5608C41.9356 33.4303 41.8875 33.3324 41.8072 33.2508C41.727 33.1693 41.6307 33.1203 41.5023 33.0877C41.3739 33.0551 41.2134 33.0388 41.0208 33.0388H40.2986C40.1863 33.0388 40.106 33.0551 40.0739 33.0714C40.0418 33.0877 40.0258 33.1529 40.0258 33.2508V35.2574L41.8875 35.1921L41.9356 35.241L41.9196 35.7304C41.5665 35.6978 41.2455 35.6815 40.9245 35.6652C40.6196 35.6489 40.3147 35.6489 40.0258 35.6326V37.3944H40.0418Z" fill="#0E103B"/>
<path d="M43.0749 32.7612C43.1231 32.7612 43.2033 32.7612 43.3157 32.7612C43.428 32.7612 43.5564 32.7612 43.6848 32.7612C43.8132 32.7612 43.9737 32.7612 44.1502 32.7612C44.3268 32.7612 44.4712 32.7612 44.5675 32.7612C44.6317 32.9244 44.7119 33.0875 44.7761 33.2506C44.8403 33.4138 44.9206 33.5769 44.9848 33.74L46.5897 37.2963L48.0501 33.6748C48.1143 33.528 48.1785 33.3648 48.2427 33.218C48.3069 33.0712 48.3711 32.908 48.4192 32.7612C48.4995 32.7612 48.6118 32.7612 48.7884 32.7612C48.9649 32.7612 49.1254 32.7612 49.2698 32.7612C49.4143 32.7612 49.5587 32.7612 49.6711 32.7612C49.7994 32.7612 49.8797 32.7612 49.9439 32.7612L49.9599 32.9733C49.7994 32.9896 49.655 33.0059 49.5587 33.0222C49.4624 33.0549 49.3822 33.0875 49.334 33.1364C49.2859 33.1854 49.2538 33.2669 49.2377 33.3485C49.2217 33.4464 49.2217 33.5606 49.2217 33.7074L49.334 37.6063C49.334 37.7041 49.3501 37.7694 49.3661 37.8346C49.3822 37.8999 49.4303 37.9488 49.4785 37.9815C49.5266 38.0304 49.6069 38.0467 49.7192 38.0793C49.8155 38.0957 49.9599 38.112 50.1204 38.1283L50.1044 38.3567C50.0402 38.3567 49.9599 38.3567 49.8636 38.3567C49.7673 38.3567 49.6711 38.3567 49.5748 38.3567C49.4785 38.3567 49.3661 38.3567 49.2698 38.3567C49.1735 38.3567 49.0612 38.3567 48.9328 38.3567C48.8044 38.3567 48.6921 38.3567 48.6118 38.3567C48.5316 38.3567 48.4513 38.3567 48.3711 38.3567C48.2908 38.3567 48.2106 38.3567 48.1464 38.3567C48.0662 38.3567 48.018 38.3567 47.9538 38.3567L47.9378 38.1446C48.0822 38.1283 48.1785 38.112 48.2748 38.0957C48.355 38.063 48.4192 38.0304 48.4674 37.9815C48.5155 37.9325 48.5316 37.851 48.5476 37.7694C48.5637 37.6715 48.5637 37.5573 48.5637 37.4105L48.4513 33.7237C48.1304 34.4904 47.8094 35.2735 47.4723 36.0402C47.1514 36.8232 46.8464 37.6063 46.5736 38.4056L46.2366 38.4382C46.1242 38.1609 45.8675 37.5736 45.4662 36.6601C45.065 35.7465 44.6638 34.8819 44.2947 34.05L44.1663 37.3289C44.1663 37.5084 44.1663 37.6552 44.1823 37.7531C44.1984 37.851 44.2305 37.9325 44.2786 37.9815C44.3268 38.0304 44.407 38.063 44.4872 38.0793C44.5835 38.0957 44.6959 38.112 44.8403 38.1283L44.8243 38.3567C44.6959 38.3567 44.5675 38.3567 44.423 38.3567C44.2786 38.3567 44.1181 38.3567 43.9095 38.3567C43.765 38.3567 43.6046 38.3567 43.4601 38.3567C43.2996 38.3567 43.1552 38.3567 43.0268 38.3567L43.0107 38.1446C43.1712 38.1283 43.2996 38.112 43.3959 38.0957C43.4922 38.0793 43.5725 38.0304 43.6367 37.9651C43.7008 37.8999 43.7329 37.802 43.749 37.6715C43.765 37.541 43.7811 37.3616 43.7971 37.1169L43.9255 34.1152C43.9255 33.9684 43.9255 33.8542 43.9255 33.7563C43.9255 33.6585 43.9095 33.5769 43.8934 33.5116C43.8774 33.4464 43.8613 33.3811 43.8292 33.3322C43.7971 33.2833 43.765 33.2343 43.7329 33.1854C43.6527 33.1038 43.5725 33.0549 43.4601 33.0386C43.3478 33.0059 43.2194 32.9896 43.0749 32.9896V32.7612Z" fill="#0E103B"/>
<path d="M52.0135 37.3944C52.0135 37.5249 52.0135 37.6391 52.0296 37.7206C52.0456 37.8022 52.0777 37.8675 52.1259 37.9164C52.174 37.9653 52.2543 37.998 52.3505 38.0143C52.4468 38.0306 52.5752 38.0469 52.7197 38.0469H53.0567C53.2814 38.0469 53.4579 38.0306 53.6024 37.998C53.7468 37.9653 53.8591 37.9001 53.9554 37.8185C54.0517 37.737 54.132 37.6228 54.2122 37.4759C54.2925 37.3291 54.3727 37.166 54.453 36.9539L54.6937 37.0029C54.6616 37.1171 54.6295 37.2313 54.6135 37.3618C54.5814 37.4923 54.5653 37.6228 54.5332 37.737C54.5172 37.8675 54.4851 37.9817 54.469 38.0795C54.453 38.1937 54.4369 38.2753 54.4369 38.3406C53.6666 38.3406 53.0407 38.3406 52.5752 38.3406C52.1098 38.3406 51.7567 38.3406 51.516 38.3406C51.4197 38.3406 51.3234 38.3406 51.2271 38.3406C51.1308 38.3406 51.0345 38.3406 50.9382 38.3406C50.8419 38.3406 50.7457 38.3406 50.6494 38.3406C50.5531 38.3406 50.4728 38.3406 50.4086 38.3406L50.3926 38.1285C50.5691 38.1122 50.7136 38.0959 50.8099 38.0795C50.9222 38.0469 51.0024 38.0143 51.0506 37.9653C51.1148 37.9164 51.1469 37.8348 51.1629 37.7533C51.179 37.6554 51.195 37.5412 51.195 37.3944V33.4955C51.195 33.3976 51.179 33.3324 51.1629 33.2671C51.1469 33.2019 51.1148 33.153 51.0666 33.1203C51.0185 33.0714 50.9382 33.0551 50.8419 33.0224C50.7457 33.0061 50.6173 32.9898 50.4568 32.9735L50.4728 32.7451C50.5531 32.7451 50.6333 32.7451 50.7296 32.7451C50.8259 32.7451 50.9222 32.7451 51.0185 32.7451C51.1148 32.7451 51.2271 32.7451 51.3234 32.7451C51.4358 32.7451 51.516 32.7451 51.6123 32.7451C51.7567 32.7451 52.0777 32.7451 52.5592 32.7451C53.0407 32.7451 53.6505 32.7451 54.3888 32.7451C54.3727 32.9409 54.3406 33.153 54.3406 33.365C54.3246 33.5771 54.3246 33.8218 54.3246 34.0665H54.0678C54.0357 33.8707 53.9875 33.6913 53.9554 33.5608C53.9073 33.4303 53.8592 33.3324 53.7789 33.2508C53.6987 33.1693 53.6024 33.1203 53.474 33.0877C53.3456 33.0551 53.1851 33.0388 52.9925 33.0388H52.2703C52.158 33.0388 52.0777 33.0551 52.0456 33.0714C52.0135 33.0877 51.9975 33.1529 51.9975 33.2508V35.2574L53.8592 35.1921L53.9073 35.241L53.8912 35.7304C53.5382 35.6978 53.2172 35.6815 52.8962 35.6652C52.5913 35.6489 52.2864 35.6489 51.9975 35.6326V37.3944H52.0135Z" fill="#0E103B"/>
<path d="M59.9411 38.4382C59.8448 38.2914 59.7485 38.1609 59.6362 38.0141C59.5399 37.8836 59.4276 37.7531 59.3152 37.6063L56.2338 33.9521V37.3289C56.2338 37.5084 56.2499 37.6552 56.2659 37.7531C56.282 37.851 56.3301 37.9325 56.3783 37.9815C56.4425 38.0304 56.5066 38.063 56.6029 38.0793C56.6992 38.0957 56.8276 38.112 56.9881 38.1283L56.9721 38.3567C56.8437 38.3567 56.6992 38.3567 56.5387 38.3567C56.3783 38.3567 56.2017 38.3567 56.0091 38.3567C55.8486 38.3567 55.6882 38.3567 55.5277 38.3567C55.3672 38.3567 55.2227 38.3567 55.0943 38.3567L55.0783 38.1446C55.2388 38.1283 55.3511 38.112 55.4635 38.0957C55.5758 38.0793 55.64 38.0304 55.7042 37.9651C55.7684 37.8999 55.8005 37.802 55.8326 37.6715C55.8486 37.541 55.8647 37.3616 55.8647 37.1169V34.2131C55.8647 34.05 55.8647 33.9195 55.8647 33.8216C55.8647 33.7237 55.8486 33.6421 55.8326 33.5769C55.8165 33.5116 55.8005 33.4627 55.7844 33.4138C55.7684 33.3648 55.7363 33.3322 55.6882 33.2833C55.6561 33.2343 55.6079 33.1854 55.5758 33.1527C55.5437 33.1201 55.4956 33.0875 55.4474 33.0712C55.3993 33.0549 55.3351 33.0222 55.2709 33.0222C55.1906 33.0059 55.1104 33.0059 54.998 32.9896L55.0141 32.7612C55.0622 32.7612 55.1264 32.7612 55.2227 32.7612C55.319 32.7612 55.4153 32.7612 55.5277 32.7612C55.64 32.7612 55.7684 32.7612 55.9289 32.7612C56.0894 32.7612 56.2178 32.7612 56.3141 32.7612L59.9251 37.0353V33.789C59.9251 33.6095 59.909 33.4627 59.893 33.3648C59.8769 33.2669 59.8288 33.1854 59.7806 33.1364C59.7164 33.0875 59.6522 33.0549 59.5399 33.0386C59.4436 33.0222 59.3152 33.0059 59.1547 32.9896L59.1708 32.7612C59.2992 32.7612 59.4436 32.7612 59.6041 32.7612C59.7646 32.7612 59.9411 32.7612 60.1337 32.7612C60.214 32.7612 60.3103 32.7612 60.3905 32.7612C60.4707 32.7612 60.551 32.7612 60.6312 32.7612C60.7115 32.7612 60.7917 32.7612 60.8559 32.7612C60.9201 32.7612 60.9843 32.7612 61.0485 32.7612V32.9733C60.9041 32.9896 60.7757 33.0059 60.6794 33.0386C60.5831 33.0549 60.5028 33.1038 60.4547 33.1691C60.4065 33.2343 60.3584 33.3322 60.3424 33.4627C60.3263 33.5932 60.3103 33.7727 60.3103 34.0173V38.3893L59.9411 38.4382Z" fill="#0E103B"/>
<path d="M62.462 35.4529C62.462 35.8281 62.5101 36.1707 62.6064 36.5133C62.7027 36.8396 62.8311 37.1332 63.0237 37.3779C63.2163 37.6226 63.4409 37.8183 63.7138 37.9489C63.9866 38.0794 64.2915 38.1609 64.6125 38.1609C64.8051 38.1609 64.9977 38.1283 65.1903 38.0794C65.3829 38.0304 65.5434 37.9325 65.6878 37.802C65.8322 37.6715 65.9446 37.5247 66.0409 37.3453C66.1372 37.1658 66.2495 36.9538 66.3458 36.7091L66.6026 36.7743C66.5384 37.0353 66.4902 37.28 66.4421 37.4921C66.41 37.7205 66.3779 37.9652 66.3458 38.2099C66.0409 38.2914 65.7359 38.373 65.431 38.4219C65.1421 38.4709 64.8372 38.5035 64.5323 38.5035C64.0669 38.5035 63.6656 38.4383 63.2965 38.2914C62.9274 38.1609 62.6225 37.9652 62.3496 37.7205C62.0768 37.4758 61.8682 37.1658 61.7237 36.8232C61.5793 36.4644 61.499 36.0728 61.499 35.6487C61.499 35.1593 61.5953 34.7188 61.7719 34.3436C61.9484 33.9684 62.1891 33.6585 62.5101 33.4138C62.815 33.1691 63.1681 32.9733 63.5854 32.8591C63.9866 32.7286 64.436 32.6797 64.9175 32.6797C65.1582 32.6797 65.3989 32.696 65.6718 32.7286C65.9446 32.7613 66.1853 32.8102 66.4261 32.8754C66.41 33.1201 66.394 33.3648 66.3779 33.5769C66.3779 33.8053 66.3619 34.0337 66.3619 34.2784L66.1051 34.2947C66.089 34.0663 66.0409 33.8706 65.9767 33.6911C65.8964 33.528 65.8001 33.3812 65.6718 33.267C65.5434 33.1528 65.3989 33.0712 65.2384 33.0223C65.0779 32.9733 64.9014 32.957 64.7088 32.957C64.3718 32.957 64.0669 33.0223 63.778 33.1365C63.4891 33.2506 63.2484 33.4301 63.0397 33.6422C62.8471 33.8542 62.6866 34.1316 62.5904 34.4415C62.5101 34.7352 62.462 35.0777 62.462 35.4529Z" fill="#0E103B"/>
<path d="M68.8016 37.3944C68.8016 37.5249 68.8016 37.6391 68.8177 37.7206C68.8337 37.8022 68.8658 37.8675 68.9139 37.9164C68.9621 37.9653 69.0423 37.998 69.1386 38.0143C69.2349 38.0306 69.3633 38.0469 69.5078 38.0469H69.8448C70.0695 38.0469 70.246 38.0306 70.3905 37.998C70.5349 37.9653 70.6472 37.9001 70.7435 37.8185C70.8398 37.737 70.9201 37.6228 71.0003 37.4759C71.0806 37.3291 71.1608 37.166 71.241 36.9539L71.4818 37.0029C71.4497 37.1171 71.4176 37.2313 71.4015 37.3618C71.3694 37.4923 71.3534 37.6228 71.3213 37.737C71.3052 37.8675 71.2731 37.9817 71.2571 38.0795C71.241 38.1937 71.225 38.2753 71.225 38.3406C70.4546 38.3406 69.8287 38.3406 69.3633 38.3406C68.8979 38.3406 68.5448 38.3406 68.3041 38.3406C68.2078 38.3406 68.1115 38.3406 68.0152 38.3406C67.9189 38.3406 67.8226 38.3406 67.7263 38.3406C67.63 38.3406 67.5337 38.3406 67.4374 38.3406C67.3411 38.3406 67.2609 38.3406 67.1967 38.3406L67.1807 38.1285C67.3572 38.1122 67.5016 38.0959 67.5979 38.0795C67.7103 38.0469 67.7905 38.0143 67.8387 37.9653C67.9029 37.9164 67.935 37.8348 67.951 37.7533C67.9671 37.6554 67.9831 37.5412 67.9831 37.3944V33.4955C67.9831 33.3976 67.9671 33.3324 67.951 33.2671C67.935 33.2019 67.9029 33.153 67.8547 33.1203C67.8066 33.0714 67.7263 33.0551 67.63 33.0224C67.5337 33.0061 67.4053 32.9898 67.2449 32.9735L67.2609 32.7451C67.3412 32.7451 67.4214 32.7451 67.5177 32.7451C67.614 32.7451 67.7103 32.7451 67.8066 32.7451C67.9029 32.7451 68.0152 32.7451 68.1115 32.7451C68.2238 32.7451 68.3041 32.7451 68.4004 32.7451C68.5448 32.7451 68.8658 32.7451 69.3473 32.7451C69.8287 32.7451 70.4386 32.7451 71.1769 32.7451C71.1608 32.9409 71.1287 33.153 71.1287 33.365C71.1127 33.5771 71.1127 33.8218 71.1127 34.0665H70.8559C70.8238 33.8707 70.7756 33.6913 70.7435 33.5608C70.6954 33.4303 70.6472 33.3324 70.567 33.2508C70.4867 33.1693 70.3905 33.1203 70.2621 33.0877C70.1337 33.0551 69.9732 33.0388 69.7806 33.0388H69.0744C68.9621 33.0388 68.8819 33.0551 68.8498 33.0714C68.8177 33.0877 68.8016 33.1529 68.8016 33.2508V35.2574L70.6633 35.1921L70.7114 35.241L70.6954 35.7304C70.3423 35.6978 70.0213 35.6815 69.7003 35.6652C69.3954 35.6489 69.0905 35.6489 68.8016 35.6326V37.3944Z" fill="#0E103B"/>
<path d="M72.1719 36.7255C72.2522 36.9212 72.3324 37.117 72.4127 37.2801C72.4929 37.4433 72.6053 37.6064 72.7176 37.7206C72.846 37.8511 72.9744 37.949 73.1349 38.0142C73.2954 38.0795 73.488 38.1121 73.6966 38.1121C73.841 38.1121 73.9534 38.0958 74.0657 38.0468C74.1781 37.9979 74.2744 37.9327 74.3707 37.8348C74.467 37.7369 74.5472 37.639 74.5953 37.5085C74.6435 37.378 74.6756 37.2475 74.6756 37.0844C74.6756 36.8886 74.6435 36.7255 74.5632 36.6113C74.4991 36.4808 74.4028 36.3666 74.2904 36.285C74.1781 36.2035 74.0657 36.1219 73.9373 36.0566C73.8089 35.9914 73.6645 35.9098 73.5201 35.8446C73.3435 35.763 73.167 35.6814 72.9744 35.5835C72.7818 35.4857 72.6213 35.3715 72.4769 35.2247C72.3324 35.0778 72.2201 34.931 72.1399 34.7516C72.0596 34.5884 72.0275 34.3764 72.0275 34.148C72.0275 33.9033 72.0757 33.6912 72.1719 33.4955C72.2682 33.2997 72.3966 33.1529 72.5732 33.0224C72.7337 32.8919 72.9423 32.794 73.167 32.7287C73.4077 32.6635 73.6485 32.6309 73.8892 32.6309C74.1299 32.6309 74.3546 32.6472 74.5632 32.6798C74.7719 32.7124 74.9966 32.7614 75.2373 32.8266C75.2213 32.9571 75.2213 33.0713 75.2052 33.1692C75.2052 33.2834 75.1892 33.3813 75.1892 33.4791C75.1892 33.577 75.1892 33.6912 75.1892 33.7891C75.1892 33.9033 75.1892 34.0175 75.1892 34.1317L74.9324 34.148C74.9003 33.7402 74.7719 33.4302 74.5632 33.2344C74.3546 33.0387 74.0657 32.9408 73.7127 32.9408C73.6164 32.9408 73.504 32.9571 73.3917 33.0061C73.2793 33.055 73.183 33.1039 73.0867 33.1855C73.0065 33.2671 72.9423 33.365 72.8942 33.4791C72.846 33.5933 72.83 33.7238 72.83 33.8544C72.83 34.0338 72.8621 34.1969 72.9263 34.3274C72.9904 34.4579 73.0707 34.5558 73.167 34.6374C73.2633 34.7189 73.3917 34.7842 73.5201 34.8495C73.6485 34.9147 73.7929 34.98 73.9534 35.0452C74.1299 35.1268 74.3225 35.2247 74.5311 35.3388C74.7237 35.453 74.9003 35.5836 75.0287 35.7141C75.1571 35.8446 75.2694 35.9914 75.3657 36.1708C75.462 36.3503 75.5101 36.5623 75.5101 36.7907C75.5101 37.0517 75.462 37.2964 75.3496 37.4922C75.2373 37.7043 75.1089 37.8674 74.9324 38.0142C74.7558 38.161 74.5472 38.2589 74.3065 38.3405C74.0657 38.4221 73.825 38.4547 73.5843 38.4547C73.3756 38.4547 73.1509 38.4384 72.9263 38.3894C72.7016 38.3405 72.4608 38.2915 72.204 38.21C72.172 37.949 72.1399 37.7206 72.1078 37.4922C72.0757 37.2638 72.0115 37.0191 71.9473 36.7744L72.1719 36.7255Z" fill="#0E103B"/>
</g>
<defs>
<clipPath id="clip0_857_2461">
<rect width="138" height="41" fill="white" transform="translate(0.898438 0.5)"/>
</clipPath>
</defs>
</svg>
