<svg width="339" height="302" viewBox="0 0 339 302" fill="none" xmlns="http://www.w3.org/2000/svg">
<path d="M4.89964 33.0174C-14.3532 14.0526 32.0868 9.04144 43.9668 15.8958C61.7796 -8.88656 62.3268 3.43983 84.1716 7.58703C99.4212 10.4814 114.527 5.78704 130.295 9.67504C187.924 23.859 126.22 77.5135 109.674 45.5023C99.7956 50.7439 67.5972 64.8846 63.9108 48.7566C23.13 74.4462 4.89964 33.0174 4.89964 33.0174Z" fill="white"/>
<path d="M187.882 64.9856C180.365 71.696 171.293 88.4144 178.594 97.9472C183.072 103.794 198.682 106.501 205.651 106.558C211.066 106.602 216.423 103.808 221.779 103.405C227.856 102.944 230.434 104.571 236.323 105.522C245.467 106.99 257.376 99.7904 256.987 98.1776C265.195 97.8608 276.197 103.995 283.958 101.317C290.381 99.0992 291.706 92.1584 298.704 90.704C313.118 87.7232 329.347 93.0656 335.885 74.576C352.531 27.5024 286.738 48.5984 266.059 52.8752C252.192 55.7408 236.842 60.6512 222.629 61.6736C214.392 62.264 206.285 60.3344 198.235 61.616C198.264 61.6304 191.295 61.9328 187.882 64.9856Z" fill="white"/>
<path d="M76.3348 300.59C68.2996 303.326 61.4308 298.416 54.9076 295.161C42.322 288.868 31.7236 294.024 17.0788 294.945C-2.89403 296.198 -5.37077 279.163 9.76363 268.449C22.0324 259.737 37.2388 265.8 50.5444 266.923C54.0292 261.206 62.8708 257.88 69.6532 261.523C74.1316 263.928 73.1236 267.902 76.2628 270.206C81.3316 273.921 81.634 272.409 87.538 273.792C94.1044 275.332 105.941 273.979 108.62 282.648C111.269 291.201 100.858 294.355 95.2708 292.728C95.2708 292.728 80.6836 293.851 76.3348 300.59Z" fill="white"/>
</svg>
