<svg width="537" height="224" viewBox="0 0 537 224" fill="none" xmlns="http://www.w3.org/2000/svg">
<path d="M314.662 118.488C314.662 157.426 283.097 188.976 244.174 188.976C205.236 188.976 173.686 157.411 173.686 118.488C173.686 79.5648 205.25 48 244.174 48C283.111 48 314.662 79.5504 314.662 118.488Z" fill="#FBF8D0"/>
<path d="M5.92059 95.0255C-2.89221 90.2735 1.29819 80.8846 7.33179 76.8238C11.6518 73.915 18.2182 74.7214 21.6886 73.4254C26.023 71.827 27.0598 68.9182 31.1926 67.003C38.3206 63.691 45.2614 69.2494 52.5334 66.5854C63.247 62.6686 60.295 58.5934 70.807 64.1662C73.9174 65.8222 73.9894 67.4494 77.8486 68.7886C81.4342 70.027 86.143 69.235 89.7286 70.5022C96.1798 72.7774 104.705 78.1918 103.121 86.299C101.263 95.803 90.391 91.7854 83.911 95.2702C81.3478 96.6526 82.5286 100.325 78.8566 102.096C75.703 103.622 69.727 103.248 66.199 102.873C61.3606 102.369 55.3414 101.52 54.3478 96.1486C49.2646 98.0782 38.7094 101.865 35.1238 96.379C30.8038 102.888 3.78939 101.793 3.02619 94.075" fill="white"/>
<path d="M85.0971 183.907C82.5627 153.091 133.38 151.536 153.699 150.499C159.127 112.166 191.844 146.136 212.465 143.011C225.958 140.966 245.902 129.821 259.366 136.934C263.729 139.238 267.675 147.23 271.894 148.454C276.588 149.808 283.342 145.891 287.647 145.099C296.935 149.232 298.649 153.71 308.599 154.992C316.404 156 327.348 153.091 333.871 160.666C343.462 171.797 346.947 201.432 333.583 211.123C315.137 224.515 286.15 216.509 267.3 211.699C252.31 207.869 236.859 210.648 220.63 201.202C208.26 222.125 161.345 237.36 154.836 204.902C143.979 212.419 117.468 212.203 107.071 203.664C101.571 199.142 82.5195 190.272 85.2699 185.002" fill="white"/>
<path d="M371.465 46.9871C340.923 27.9359 371.926 15.9695 393.555 11.0735C401.446 9.28795 408.07 5.73114 416.019 3.75834C427.438 0.907145 431.845 7.54554 441.91 8.66874C452.249 9.82074 463.093 -1.19526 472.899 0.273542C483.094 1.79994 477.968 10.0079 485.081 15.1919C492.065 20.2895 503.067 14.6015 511.376 16.3295C520.721 18.2735 531.104 23.5871 536.907 31.1615C534.214 40.6943 519.325 41.0399 511.131 42.0479C501.253 43.2575 499.265 43.7615 492.281 48.2255C484.635 53.1215 483.641 55.4976 471.286 52.8912C462.862 51.12 454.15 47.8079 449.067 41.3135C431.816 50.8031 421.217 49.4063 402.382 49.4639C395.456 49.4927 374.057 49.5647 372.675 46.9871" fill="white"/>
</svg>
