<svg width="1728" height="392" viewBox="0 0 1728 392" fill="none" xmlns="http://www.w3.org/2000/svg">
<path d="M13.2047 99.0024C13.2047 99.0024 19.4831 56.9834 122.054 52.3464C196.373 48.9914 467.424 80.1534 540.043 96.6124C618.192 114.324 739.325 99.2763 814.421 98.6423C873.475 98.1383 906.321 109.255 964.872 103.668C1073.23 93.3003 1036.05 95.6044 1142.15 69.4534C1192.59 57.0264 1410.32 58.7974 1458.96 41.0574C1509.18 22.7544 1567.89 16.0293 1620.86 10.5143C1658.75 6.56934 1698.47 10.3564 1736.16 5.70538C1739 67.9274 1738.15 74.2204 1741.32 136.356C1743.57 180.449 1748.32 225.175 1749.83 269.455C1750.55 290.465 1753.47 293.129 1737.6 298.586C1720.57 304.461 1692.43 296.93 1674.26 298.442C1612.47 303.583 1551.02 311.474 1489.42 318.53C1352.39 334.226 1217.1 349.993 1078.93 351.203C965.333 352.193 852.998 345.743 739.858 336.127C650.102 328.495 559.123 330.281 469.094 323.973C400.867 319.193 331.661 319.077 263.261 316.845C194.198 314.599 125.28 305.21 56.4047 300.257C39.3119 299.033 23.6735 303.554 16.4015 288.924C7.37269 270.722 18.6623 239.157 21.0527 220.495C23.1407 204.165 22.1615 187.245 26.8991 171.549C31.9967 154.716 47.4623 139.322 48.5855 122.373" fill="#C4D557"/>
<path d="M638.193 275.69C665.582 264.098 696.441 264.674 724.55 255.473C751.449 246.674 777.47 230.877 801.806 216.88C836.294 197.037 883.123 173.594 921.787 163.73C946.641 157.38 973.224 154.946 997.459 146.536C1018.51 139.221 1037.97 126.305 1058.87 118.111C1072.7 112.697 1089.63 102.357 1104.16 102.775C1119.96 103.236 1133.97 117.218 1148.56 119.839C1181.63 125.772 1223.61 98.2533 1251.66 84.5013C1308.17 56.8103 1391.95 88.8793 1451.15 94.7543C1511.61 100.745 1575.71 89.6134 1631.66 66.0414C1665.07 51.9574 1703.98 17.6423 1742.67 37.0683C1744.99 50.7773 1741.91 69.8283 1741.36 83.8393C1739.65 126.981 1734.41 169.634 1734.49 213.036C1734.55 238.207 1737.43 274.956 1722.25 296.023C1716.98 303.338 1718.74 301.797 1709.37 306.06C1693.37 313.346 1669.87 313.231 1652.92 314.786C1613.15 318.415 1573.31 317.796 1533.44 318.501C1360.19 321.583 1186.3 321.914 1013.01 321.482C894.758 321.18 776.736 324.823 658.541 324.823" fill="#9FBA56"/>
<path d="M-17.3667 83.1333C-17.3667 35.5703 32.1693 21.4013 75.6429 3.86131C107.568 -9.02669 131.976 14.3454 166.449 15.9294C193.953 17.1964 213.768 25.4333 222.969 48.0123C228.124 60.6413 248.04 70.4763 262.18 76.5243C276.451 82.6293 282.614 57.8903 296.294 55.6443C313.632 52.8073 324.979 69.7703 341.092 73.9753C379.108 83.8823 421.891 44.0814 460.296 50.7914C493.603 56.6094 514.728 74.6663 550.152 71.1243C570.441 69.0933 579.902 69.9863 593.654 84.7753C602.942 94.7543 611.366 106.605 623.433 113.1C662.601 134.196 695.779 97.3893 734.76 99.0173C773.884 100.644 784.987 109.097 818.15 125.469C845.222 138.847 868.723 131.215 895.766 128.81C927.302 126.002 959.659 146.695 990.316 152.945C1024.31 159.885 1052.11 144.909 1085.31 147.746C1084.13 154.226 1082.69 161.541 1082.03 168.842C1126.4 154.341 1174.62 114.252 1224.26 120.588C1224.01 123.497 1225.32 127.543 1224.72 130.365C1233.76 123.857 1238.62 110.666 1248.06 103.293C1259.32 94.4953 1274.99 88.0444 1288.86 83.4794C1313.75 75.2574 1340.6 79.7644 1356.68 101.695C1363.38 110.81 1364.77 122.489 1375.31 128.378C1389.74 136.442 1399.15 124.548 1412.6 117.218C1433.74 105.684 1475.15 102.861 1467.03 138.703C1484.55 141.54 1504.08 133.519 1521.03 130.121C1542.21 125.858 1556.48 127.053 1573.52 111.948C1589.33 97.9373 1597.22 101.738 1602.29 81.0314C1606.74 62.9014 1618.42 60.2373 1640.04 49.5243C1655.78 41.7333 1733.76 38.7813 1750.22 34.7493C1743.7 75.2133 1740.31 94.6824 1743.94 136.557C1746.96 171.405 1771.78 224.858 1720.6 232.735C1669.69 240.569 1556.27 239.129 1505.02 241.879C1443.5 245.191 1381 248.46 1320.05 257.172C1226.72 270.506 1134.4 279.621 1040.13 279.621C882.792 279.621 725.832 273.084 568.685 265.725C499.478 262.485 431.409 248.46 362.232 244.413C276.221 239.373 189.691 235.932 104.371 223.317C76.1469 219.141 47.8365 213.252 20.0733 206.801C10.3389 204.54 -4.0467 201.645 -8.7699 191.508C-15.3363 177.41 -3.6723 151.332 -2.3043 137.205C-0.979499 123.54 -1.2675 106.994 6.1629 94.9274" fill="#92AB59"/>
<path d="M1668.43 109.197C1651.52 112.495 1635.49 119.177 1619.51 126.938C1616.52 108.377 1625.75 90.4054 1634.33 74.9254C1615.51 71.6714 1606.62 90.6213 1604 105.079C1601.27 120.141 1604.51 132.713 1605.7 147.444C1607.44 168.943 1598.13 166.711 1578.5 167.777C1563.71 168.583 1546.82 164.983 1532.75 169.476C1518.15 174.127 1505.71 190.442 1488.79 186.497C1475.02 183.285 1468.68 167.561 1453.2 166.049C1439.86 164.738 1428.42 173.148 1415.92 174.559C1386.49 177.871 1352.07 173.436 1356.71 136.183C1346.99 149.46 1338.96 174.098 1321.17 177.77C1325.89 159.079 1321.16 99.1324 1286.06 125.498C1315.11 121.092 1328.63 163.557 1299.01 169.476C1272.07 174.861 1254.63 154.169 1246.48 131.186C1230.18 160.591 1205.21 176.604 1171.92 188.57C1153.4 195.223 1071.82 214.562 1061.78 192.084C1051.73 208.788 1023.85 203.805 1010.58 193.653C993.643 180.708 993.154 162.607 965.376 166.423C972.994 179.369 977.832 217.341 950.127 203.474C954.936 182.695 953.712 173.105 935.295 160.836C965.506 191.81 909.576 211.02 887.386 210.141C851.717 208.73 802.109 185.589 798.811 144.233C792.735 147.847 787.551 153.636 780.855 156.933C779.17 153.362 776.189 149.417 772.488 145.73C789.48 167.762 768.399 199.889 746.698 206.801C720.087 215.282 686.808 213.036 668.333 191.882C660.24 182.594 654.941 165.257 640.21 174.905C636.063 177.626 634.335 187.908 630.159 191.94C625.003 196.908 619.027 199.125 612.763 201.314C588.571 209.781 555.495 176.849 548.079 153.233C531.101 163.831 532.555 131.345 536.515 121.97C542.607 107.57 559.757 101.263 573.192 96.5974C559.339 90.2904 539.928 87.4534 528.466 100.37C515.65 114.828 524.117 134.426 522.663 150.569C521.467 150.885 520.488 151.087 519.567 151.793C504.965 148.164 502.315 126.276 505.311 113.762C499.623 121.178 491.775 139.941 483.941 143.657C474.322 148.236 456.019 136.716 444.643 136.889C438.927 136.975 430.719 141.871 424.685 138.746C417.312 134.916 419.011 124.361 412.891 120.285C400.565 112.063 383.472 122.964 375.063 131.805C374.155 87.7414 362.952 87.2374 352.267 81.1174C352.267 81.1174 376.647 114.007 363.859 132.295L355.219 120.357C345.672 113.892 354.24 101.306 348.567 92.7383C344.319 86.3303 331.099 84.0264 326.722 76.2214C329.76 91.0534 330.178 106.562 329.645 121.783C319.248 121.135 308.535 120.588 297.879 120.185C297.216 113.877 298.023 107.757 300.845 102.444C275.76 111.919 268.733 109.932 241.963 103.121C237.471 87.2523 215.323 45.4774 196.992 34.7784C189 62.9014 240.696 76.6974 206.122 95.3594C199.08 99.1614 168.351 104.777 162.317 96.2953C154.8 85.7403 172.685 69.6263 178.834 63.3483C162.475 79.4333 124.791 83.0903 104.458 54.2903C95.8033 6.32434 176.371 59.2444 177.135 59.2294C174.528 40.7694 143.525 13.9134 110.434 22.0634C93.6289 26.1964 78.9265 35.2534 86.2849 52.5914C91.7569 65.4934 108.749 76.7404 121.104 81.6934C123.768 101.033 90.0865 87.1224 82.3825 81.8234C70.3297 73.5144 65.4337 58.6974 67.1761 44.4984C70.5457 17.0664 80.6113 18.0743 102.298 4.23633C67.1905 4.97033 81.5905 5.11435 53.3233 20.4073C44.3665 25.2453 0.259357 49.7834 -6.98384 55.5004C-22.2767 67.5244 -10.6991 69.3813 -11.7503 86.9213C-13.1615 110.724 -3.16784 146.292 16.3153 163.37C16.7041 164.853 17.1505 166.337 17.6689 167.82C23.5729 184.481 44.6401 183.113 62.1073 184.754C136.599 191.796 210.744 204.684 285.725 211.452C395.467 221.359 500.227 257.1 609.581 271.557C754.359 290.695 898.546 272.652 1043.47 266.1C1153.92 261.103 1263.3 256.236 1373.47 247.034C1432.77 242.081 1492.46 244.212 1551.56 238.941C1570.82 237.228 1590.06 234.276 1609.5 232.202C1620.07 231.065 1747.77 232.015 1756.41 224.988C1763.31 219.386 1767.84 204.525 1768.85 195.439C1771.37 172.385 1715.95 126.996 1668.43 109.197Z" fill="#6E964D"/>
<path d="M29.5197 124.735C71.2941 124.735 112.709 121.711 154.195 122.805C203.457 124.087 252.878 131.647 301.723 136.442C354.369 141.626 411.221 146.925 458.64 171.333C516.974 201.357 553.968 204.655 616.579 225.823C705.268 255.804 818.568 243.809 910.108 237.487C1005.94 230.863 1098.16 218.047 1193.92 218.047C1278.33 218.047 1362.95 216.103 1447.55 216.103C1520.71 216.103 1593.26 213.511 1666.31 214.159C1690.69 214.375 1715.14 215.167 1739.63 216.29C1739.63 216.29 1751.69 421.673 1743.05 462.663C1743.05 462.663 1738.71 451.053 1737.3 451.663C1706.62 464.763 0.374122 451.763 -4.00348 448.593C-12.7731 442.243 -8.53948 335.076 -9.36028 324.521C-12.6291 283.034 -13.2051 243.708 -13.2483 202.178C-13.2771 177.655 -21.1683 132.021 -9.36028 111.113" fill="#B2CF54"/>
<path d="M41.1695 132.511C144.418 127.471 239.472 124.778 315.331 138.689C396.965 153.65 417.715 173.508 493.646 206.786C539.842 227.033 616.738 263.666 672.538 246.732C661.392 266.618 578.52 255.847 515.477 231.18C492.034 222.007 376.776 169.85 346.795 157.25C315.36 144.045 275.386 142.49 240.725 142.476C199.685 142.461 165.528 140.287 124.603 140.287C109.858 140.287 -22.2625 145.946 -18.3601 131.978" fill="#D1DD73"/>
<path d="M908.669 314.023C943.891 306.665 1058.43 257.762 1090.86 249.252C1159.5 231.237 1230.11 228.89 1300.51 225.737C1338.49 224.037 1376.67 225.463 1414.76 224.873C1412.06 226.082 1410.12 226.788 1407.04 225.967C1448.22 221.402 1490.92 227.177 1531.97 230.849C1580.46 235.183 1628.8 238.524 1677.61 234.405C1674.06 237.285 1664.78 238.769 1659.89 240.165C1652.79 242.181 1646.04 242.225 1638.49 242.901C1618.85 244.644 1598.67 246.098 1578.66 246.098C1549.61 246.098 1523.72 245.724 1495.56 241.836C1464.51 237.559 1432.05 236.753 1400.67 236.781C1346.88 236.839 1293.05 230.935 1238.83 232.548C1186.08 234.103 1132.6 245.565 1081.9 259.433C1048.56 268.548 979.488 304.116 966.053 306.895C957.01 308.767 909.504 316.673 901.872 315.737" fill="#D1DD73"/>
</svg>
