<svg width="110" height="46" viewBox="0 0 110 46" fill="none" xmlns="http://www.w3.org/2000/svg">
<path d="M11.9053 11.5359C13.4245 9.98524 15.2443 8.76667 17.2514 7.9562C21.1398 6.36616 25.4899 6.36616 29.3783 7.9562C31.3848 8.76763 33.2045 9.98607 34.7243 11.5359L36.9473 13.7725L32.4994 18.3289L30.2038 16.0863C29.2845 15.1499 28.1858 14.4118 26.9745 13.9171C24.6285 12.953 22.0012 12.953 19.6551 13.9171C18.4433 14.4109 17.3444 15.149 16.4259 16.0863C15.483 16.9755 14.745 18.0622 14.2639 19.2698C13.3073 21.6338 13.3073 24.2813 14.2639 26.6452C14.7547 27.8685 15.4907 28.9766 16.4259 29.9C17.3168 30.8315 18.3879 31.5689 19.5728 32.0668C20.7576 32.5646 22.0312 32.8122 23.3148 32.7943C24.5941 32.7971 25.862 32.5517 27.0492 32.0713C28.2471 31.5857 29.3251 30.8419 30.2077 29.8921L32.5033 27.6496L36.9512 32.206L34.7282 34.4485C33.2085 36.0047 31.3865 37.228 29.3763 38.0421C25.4884 39.6348 21.1373 39.6348 17.2494 38.0421C15.242 37.2324 13.422 36.0137 11.9033 34.4624C10.3733 32.9467 9.17545 31.1246 8.38713 29.1136C6.85663 25.1853 6.85663 20.8189 8.38713 16.8906C9.17612 14.88 10.3739 13.058 11.9033 11.5419" fill="#00A19A"/>
<path d="M11.9053 11.5359C13.4245 9.98524 15.2443 8.76667 17.2514 7.9562C21.1398 6.36616 25.4899 6.36616 29.3783 7.9562C31.3848 8.76763 33.2045 9.98607 34.7243 11.5359L36.9473 13.7725L32.4994 18.3289L30.2038 16.0863C29.2845 15.1499 28.1858 14.4118 26.9745 13.9171C24.6285 12.953 22.0012 12.953 19.6551 13.9171C18.4433 14.4109 17.3444 15.149 16.4259 16.0863C15.483 16.9755 14.745 18.0622 14.2639 19.2698C13.3073 21.6338 13.3073 24.2813 14.2639 26.6452C14.7547 27.8685 15.4907 28.9766 16.4259 29.9C17.3168 30.8315 18.3879 31.5689 19.5728 32.0668C20.7576 32.5646 22.0312 32.8122 23.3148 32.7943C24.5941 32.7971 25.862 32.5517 27.0492 32.0713C28.2471 31.5857 29.3251 30.8419 30.2077 29.8921L32.5033 27.6496L36.9512 32.206L34.7282 34.4485C33.2085 36.0047 31.3865 37.228 29.3763 38.0421C25.4884 39.6348 21.1373 39.6348 17.2494 38.0421C15.242 37.2324 13.422 36.0137 11.9033 34.4624C10.3733 32.9467 9.17545 31.1246 8.38713 29.1136C6.85663 25.1853 6.85663 20.8189 8.38713 16.8906C9.17612 14.88 10.3739 13.058 11.9033 11.5419" fill="url(#paint0_linear_857_2440)"/>
<path d="M36.9514 30.4461C36.9431 29.4639 37.1365 28.4906 37.5194 27.5874C38.2597 25.8338 39.6485 24.4396 41.3914 23.7007C42.2872 23.324 43.2481 23.13 44.2187 23.13C45.1893 23.13 46.1503 23.324 47.046 23.7007C47.9085 24.074 48.6943 24.6061 49.3633 25.2696C50.0319 25.9319 50.566 26.7192 50.9357 27.5874C51.3094 28.4907 51.5017 29.4595 51.5017 30.4381C51.5017 31.4167 51.3094 32.3856 50.9357 33.2888C50.191 35.0568 48.7975 36.4664 47.046 37.2232C46.1506 37.601 45.1895 37.7956 44.2187 37.7956C43.2479 37.7956 42.2869 37.601 41.3914 37.2232C40.5228 36.8542 39.7352 36.3155 39.0741 35.6383C38.4138 34.9601 37.8863 34.1623 37.5194 33.2869C37.1393 32.3884 36.946 31.4208 36.9514 30.4441M39.8033 30.4441C39.7985 31.6241 40.2587 32.7578 41.0828 33.5959C41.9146 34.4286 43.0395 34.8958 44.2118 34.8954C44.7916 34.8986 45.3661 34.7858 45.9023 34.5636C46.4385 34.3414 46.9256 34.0142 47.3354 33.6009C47.7453 33.1876 48.0697 32.6965 48.2899 32.156C48.5101 31.6155 48.6218 31.0363 48.6184 30.452C48.6221 29.8634 48.5064 29.2803 48.2784 28.7384C48.0574 28.2139 47.7385 27.737 47.3389 27.3339C46.5057 26.5046 45.3819 26.0395 44.2109 26.0395C43.0399 26.0395 41.916 26.5046 41.0828 27.3339C40.6832 27.737 40.3643 28.2139 40.1433 28.7384C39.9153 29.2803 39.7996 29.8634 39.8033 30.452M61.7438 23.0647V25.9808H60.2854C59.7008 25.9769 59.1215 26.0935 58.5833 26.3235C57.5327 26.7741 56.6964 27.6177 56.2503 28.677C56.0214 29.2186 55.9056 29.8019 55.9103 30.3906V37.7402H52.9935V30.3906C52.9852 29.4093 53.1779 28.4368 53.5596 27.5339C53.9287 26.6648 54.4629 25.8768 55.132 25.2142C55.805 24.5482 56.5965 24.0159 57.465 23.6452C58.3568 23.2636 59.3165 23.0695 60.2854 23.0747L61.7438 23.0647ZM77.6856 17.1851V30.3807C77.6907 31.3572 77.4981 32.3245 77.1196 33.2235C76.7515 34.0996 76.222 34.8976 75.559 35.5749C74.5398 36.607 73.2382 37.3091 71.8209 37.5914C70.4036 37.8737 68.9349 37.7234 67.6028 37.1598C65.8432 36.4093 64.4431 34.9973 63.6994 33.2235C63.3245 32.3209 63.1314 31.3522 63.1314 30.3738C63.1314 29.3953 63.3245 28.4266 63.6994 27.524C64.0684 26.6548 64.6026 25.8668 65.2718 25.2043C65.9451 24.5387 66.7365 24.0065 67.6048 23.6353C68.4966 23.2537 69.4563 23.0596 70.4252 23.0647H74.8003V17.1851H77.6856ZM70.4272 34.8162C71.0112 34.8202 71.5897 34.7035 72.1273 34.4735C72.9242 34.1314 73.6032 33.5597 74.0791 32.8302C74.555 32.1007 74.8065 31.2458 74.8023 30.3728V25.9808H70.4272C69.8376 25.9781 69.2534 26.0946 68.7094 26.3235C67.6504 26.767 66.8068 27.6122 66.3606 28.677C66.1317 29.2186 66.016 29.8019 66.0206 30.3906C66.017 30.975 66.1284 31.5543 66.3486 32.0949C66.5687 32.6355 66.8931 33.1268 67.303 33.5401C67.7129 33.9534 68.2001 34.2806 68.7364 34.5027C69.2727 34.7248 69.8474 34.8375 70.4272 34.834M102.899 23.0647V25.9808H101.44C100.856 25.9769 100.276 26.0935 99.7381 26.3235C98.6875 26.7741 97.8512 27.6177 97.4051 28.677C97.1771 29.2189 97.0614 29.802 97.0651 30.3906V37.7402H94.1483V30.3906C94.14 29.4093 94.3327 28.4368 94.7144 27.5339C95.0835 26.6648 95.6177 25.8768 96.2868 25.2142C96.9598 24.5482 97.7513 24.0159 98.6198 23.6452C99.5116 23.2636 100.471 23.0695 101.44 23.0747L102.899 23.0647Z" fill="#00A19A"/>
<path d="M87.0927 19.3918C87.0927 19.2844 87.0609 19.1795 87.0015 19.0903C86.9421 19.0012 86.8577 18.9319 86.7591 18.8913C86.6605 18.8506 86.5521 18.8405 86.4478 18.8622C86.3434 18.8839 86.2478 18.9364 86.1732 19.013C86.0986 19.0897 86.0483 19.1869 86.0287 19.2925C86.0091 19.3981 86.0211 19.5071 86.0633 19.6057C86.1054 19.7044 86.1757 19.7881 86.2652 19.8463C86.3547 19.9046 86.4594 19.9346 86.5659 19.9326C86.6364 19.9326 86.7062 19.9186 86.7713 19.8915C86.8364 19.8643 86.8955 19.8244 86.9453 19.7742C86.9952 19.724 87.0347 19.6644 87.0617 19.5988C87.0886 19.5332 87.1025 19.4628 87.1025 19.3918" fill="#DEDC00"/>
<path d="M85.9424 15.9624C85.9428 15.9139 85.9574 15.8666 85.9844 15.8265C86.0114 15.7864 86.0496 15.7552 86.0942 15.7369C86.1388 15.7186 86.1877 15.714 86.2348 15.7237C86.282 15.7334 86.3252 15.757 86.3591 15.7914C86.393 15.8258 86.416 15.8696 86.4253 15.9172C86.4345 15.9648 86.4296 16.0141 86.4111 16.0589C86.3926 16.1036 86.3613 16.1419 86.3213 16.1688C86.2813 16.1957 86.2342 16.21 86.1861 16.21C86.1213 16.2095 86.0593 16.1832 86.0136 16.1368C85.968 16.0904 85.9424 16.0277 85.9424 15.9624Z" fill="#00A19A"/>
<path d="M89.8818 14.6888C89.8821 14.5814 89.8509 14.4762 89.792 14.3867C89.733 14.2972 89.649 14.2273 89.5507 14.1859C89.4523 14.1445 89.344 14.1335 89.2394 14.1542C89.1348 14.175 89.0386 14.2265 88.9631 14.3023C88.8876 14.3782 88.8361 14.4749 88.8152 14.5802C88.7942 14.6856 88.8048 14.7948 88.8455 14.8941C88.8862 14.9934 88.9552 15.0783 89.0438 15.138C89.1324 15.1978 89.2366 15.2296 89.3432 15.2296C89.4857 15.2296 89.6224 15.1727 89.7233 15.0714C89.8243 14.97 89.8812 14.8324 89.8818 14.6888Z" fill="#3AAA35"/>
<path d="M91.1117 16.9965C91.1117 16.9283 91.0916 16.8616 91.0539 16.8048C91.0163 16.7481 90.9627 16.7039 90.9001 16.6779C90.8375 16.6519 90.7687 16.6452 90.7023 16.6586C90.6359 16.6721 90.575 16.7051 90.5272 16.7535C90.4795 16.8019 90.447 16.8635 90.4341 16.9305C90.4211 16.9975 90.4281 17.0669 90.4543 17.1298C90.4805 17.1928 90.5247 17.2465 90.5812 17.2841C90.6377 17.3218 90.704 17.3416 90.7717 17.3412C90.8165 17.3412 90.8609 17.3323 90.9023 17.315C90.9437 17.2976 90.9812 17.2722 91.0128 17.2402C91.0444 17.2081 91.0694 17.1701 91.0864 17.1283C91.1034 17.0865 91.112 17.0417 91.1117 16.9965Z" fill="#00A19A"/>
<path d="M92.3812 19.0651C92.3812 18.9969 92.3612 18.9303 92.3236 18.8736C92.286 18.8169 92.2326 18.7727 92.1701 18.7466C92.1076 18.7206 92.0389 18.7137 91.9725 18.727C91.9062 18.7403 91.8453 18.7732 91.7974 18.8214C91.7496 18.8696 91.717 18.931 91.7038 18.9979C91.6906 19.0647 91.6974 19.134 91.7233 19.197C91.7492 19.26 91.793 19.3138 91.8493 19.3517C91.9055 19.3896 91.9716 19.4098 92.0393 19.4098C92.0842 19.4101 92.1288 19.4013 92.1704 19.3841C92.212 19.3669 92.2498 19.3415 92.2817 19.3094C92.3135 19.2774 92.3387 19.2393 92.3557 19.1973C92.3728 19.1554 92.3815 19.1104 92.3812 19.0651ZM95.3117 10.6972C95.3117 10.6291 95.2917 10.5624 95.2541 10.5057C95.2165 10.449 95.1631 10.4049 95.1006 10.3788C95.0381 10.3527 94.9694 10.3459 94.903 10.3592C94.8367 10.3725 94.7758 10.4053 94.7279 10.4535C94.6801 10.5017 94.6475 10.5631 94.6343 10.63C94.6211 10.6969 94.6279 10.7662 94.6538 10.8291C94.6797 10.8921 94.7235 10.946 94.7798 10.9838C94.836 11.0217 94.9021 11.0419 94.9698 11.0419C95.0605 11.0419 95.1474 11.0056 95.2116 10.941C95.2757 10.8763 95.3117 10.7887 95.3117 10.6972ZM92.7724 13.0111C92.7739 13.0691 92.7924 13.1254 92.8255 13.1729C92.8586 13.2203 92.9049 13.2569 92.9585 13.2781C93.0121 13.2992 93.0707 13.3039 93.127 13.2917C93.1833 13.2794 93.2347 13.2507 93.2749 13.2091C93.3151 13.1675 93.3422 13.1149 93.3529 13.0579C93.3636 13.0009 93.3573 12.9419 93.335 12.8884C93.3126 12.835 93.2751 12.7893 93.2271 12.7572C93.1791 12.7251 93.1228 12.708 93.0652 12.708C93.0268 12.708 92.9887 12.7156 92.9532 12.7305C92.9176 12.7453 92.8853 12.767 92.8581 12.7944C92.831 12.8218 92.8094 12.8544 92.7947 12.8902C92.7799 12.926 92.7724 12.9644 92.7724 13.0032" fill="#3AAA35"/>
<path d="M96.0512 13.9658C95.7269 14.0827 95.324 14.4512 94.8975 14.2095C95.1038 13.1377 96.574 13.5597 96.7705 12.4761C97.1047 13.839 95.9844 15.4476 95.0016 14.5542C95.4104 14.4294 95.8114 14.2947 96.0492 13.9599" fill="#00A19A"/>
<path d="M98.4152 13.1436C98.3209 12.9613 98.2973 13.304 98.0673 13.2406C97.9455 12.6463 98.5725 12.4879 98.7611 12.0738C98.6707 11.7826 98.885 11.7608 98.8496 12.0738C98.9675 12.7078 98.8692 13.2149 98.3563 13.4804C98.0359 13.4665 98.2167 13.199 98.4152 13.1515" fill="#DEDC00"/>
<path d="M97.82 9.88881C97.8003 9.56194 97.4426 9.24102 97.0928 9.11819C97.6509 8.56549 98.1679 9.49459 98.1639 10.1979C98.1494 10.4608 98.0978 10.7202 98.0106 10.9685C98.0381 10.0473 96.8608 10.1582 96.9768 9.27271C97.153 9.3084 97.3195 9.3819 97.465 9.4882C97.6104 9.59451 97.7315 9.73114 97.82 9.88881Z" fill="#95C11F"/>
<path d="M91.5044 14.7642C92.0213 14.7266 92.7505 14.3562 93.2733 14.8811C92.5441 16.3451 90.5865 15.1367 89.8672 16.6264C89.932 14.5166 92.1963 12.6366 93.2576 14.3383C92.6169 14.3542 91.9801 14.3859 91.5064 14.7642" fill="#DEDC00"/>
<path d="M83.7294 31.1807L82.5501 32.3693C82.2503 31.748 82.099 31.0646 82.1084 30.3737C82.1177 29.6829 82.2875 29.0039 82.6041 28.3911C82.9207 27.7784 83.3753 27.2488 83.9315 26.845C84.4876 26.4412 85.1299 26.1743 85.8069 26.0657C86.6995 25.9304 87.6117 26.0786 88.417 26.4896C88.1143 26.7947 87.6872 27.2193 87.1355 27.7634C86.5839 28.3075 86.0119 28.8794 85.4197 29.479L83.7333 31.1767M89.6159 33.5777C88.9756 34.2371 88.1442 34.6747 87.2414 34.8274C86.3386 34.9802 85.411 34.8401 84.5922 34.4276L92.6585 26.2974L91.6541 25.2851C90.9679 24.5844 90.1456 24.0341 89.2386 23.6686C89.085 23.6078 88.9297 23.5516 88.7728 23.5002C89.5412 23.3021 88.6804 23.3239 89.7457 22.8049C90.0267 22.6702 87.7802 23.4507 88.3325 23.0664C88.8474 22.7078 89.6041 22.6226 89.7987 21.9114C89.9933 21.2003 89.2445 20.8199 89.3054 20.0929C89.0931 20.5089 89.1678 20.9625 88.9477 21.3964C88.6823 21.9293 88.1025 22.3116 87.8293 22.8465C87.733 22.0303 88.2008 21.1903 88.0259 20.4217C87.2259 20.8456 87.452 21.9788 87.4205 22.7237C87.3576 21.9808 87.4755 21.4499 86.8093 21.0873C86.0231 20.6614 87.792 21.438 86.7994 22.4622C86.7012 22.4958 86.3375 21.4479 86.253 21.4518C86.2393 21.5014 86.5695 22.5077 86.538 22.5474C86.3297 22.0957 85.801 22.3809 85.8599 21.7965C85.5828 22.1927 86.6127 22.4899 85.7951 23.0525C85.742 23.0882 85.5985 22.3988 85.5573 22.4047C85.516 22.4107 85.5022 23.0723 85.4688 23.1971C85.404 23.1971 85.3391 23.2189 85.2723 23.2288H85.2133C85.0364 22.4978 84.9342 21.9095 85.3666 21.333C86.1213 20.3425 86.3926 21.2716 87.1788 20.3702C86.2589 20.6416 86.0408 20.4574 85.5435 20.7466C85.3824 20.8301 85.2403 20.9465 85.1263 21.0884C85.0122 21.2303 84.9287 21.3945 84.8811 21.5707C84.6492 22.1432 84.663 22.8683 84.3367 23.31C84.1185 21.8916 84.4389 19.9423 83.1574 18.9775C83.8788 20.0414 83.922 21.0972 83.9259 22.4562C83.8139 22.4126 83.7589 21.7688 83.6193 21.6975C83.5014 22.169 83.8355 23.0842 83.3638 23.3061C83.1535 22.5612 83.3304 21.7985 83.1476 21.0616C83.1338 21.1963 83.0218 21.5152 82.9904 21.6995C82.8587 20.812 82.9904 20.7466 83.5328 19.9958C83.2046 20.2573 82.7466 20.392 82.6543 20.808C82.387 21.9372 82.4577 21.8698 82.4734 22.058C82.2553 21.2419 81.9329 20.4732 81.0288 20.2751C81.7796 20.8179 81.5457 20.6079 81.7384 21.4063C81.8858 22.0145 82.4106 22.5493 82.44 23.1654C82.1767 23.0604 81.9035 22.9 81.6362 22.7692C81.8131 23.0287 82.3516 23.5616 82.2002 24.5522C81.8954 24.7778 81.6082 25.0269 81.3413 25.297C80.6506 25.9823 80.1097 26.8055 79.7532 27.7139C79.4127 28.5879 79.2373 29.5185 79.2363 30.4576C79.238 31.4017 79.4133 32.3374 79.7532 33.2172C80.1059 34.1327 80.6472 34.9626 81.3413 35.6519C82.017 36.3359 82.8201 36.8787 83.7045 37.249C84.5889 37.6194 85.5371 37.81 86.4948 37.81C87.4525 37.81 88.4007 37.6194 89.2851 37.249C90.1694 36.8787 90.9725 36.3359 91.6482 35.6519L92.6526 34.6395L90.6105 32.5813L89.6159 33.5777Z" fill="#00A19A"/>
<path d="M90.7678 18.231C90.7678 18.231 89.4116 16.7393 88.0889 18.8253L90.7678 18.231ZM90.7737 18.3637C90.7737 18.3637 90.1664 20.2913 88.0948 18.958L90.7737 18.3637Z" fill="#95C11F"/>
<path d="M101.535 8.21876C101.535 8.21876 100.721 7.95924 100.672 9.01117L101.535 8.21876ZM101.564 8.2663C101.564 8.2663 101.747 9.10824 100.701 9.05871L101.564 8.2663Z" fill="#00A19A"/>
<defs>
<linearGradient id="paint0_linear_857_2440" x1="7.23926" y1="6.76367" x2="7.23926" y2="39.2366" gradientUnits="userSpaceOnUse">
<stop stop-color="white" stop-opacity="0"/>
<stop offset="0.2" stop-color="white" stop-opacity="0"/>
<stop offset="0.5" stop-color="#95C11F" stop-opacity="0.5"/>
<stop offset="0.75" stop-color="#DEDC00"/>
<stop offset="1" stop-color="#DEDC00"/>
</linearGradient>
</defs>
</svg>
