<svg width="218" height="263" viewBox="0 0 218 263" fill="none" xmlns="http://www.w3.org/2000/svg">
<path d="M21.3366 129.053C14.973 128.061 51.464 93.2784 64.585 86.5145C77.706 79.7506 149.036 48.4843 154.389 55.4852C159.748 62.4992 117.057 113.82 117.057 113.82L21.3366 129.053Z" fill="#5B8E7D"/>
<path d="M113.246 102.169C113.246 102.169 116.82 91.9154 122.023 82.9246C127.219 73.92 150.918 54.3643 155.935 56.228C160.952 58.0917 207.599 156.662 210.264 163.533C212.928 170.404 185.903 188.048 177.374 193.048C168.845 198.047 143.474 168.431 143.474 168.431L113.254 102.148L113.246 102.169Z" fill="#5B8E7D"/>
<path d="M21.8856 128.27C15.7287 134.265 71.7402 232.851 78.7013 236.151C85.6623 239.451 173.226 196.874 179.548 190.473C185.856 184.08 131.483 89.8567 125.265 81.5875C119.72 74.1851 25.9859 124.264 21.8856 128.27Z" fill="#719F91"/>
<path d="M120.735 224.522C119.543 225.138 118.156 224.776 117.601 223.697C117.464 223.413 102.895 195.122 88.7682 166.721C59.7276 108.318 60.6377 106.464 61.4444 104.817C63.4798 100.679 75.5472 88.6256 77.9318 86.2468L78.2938 85.8911L78.763 85.6823C87.55 81.8673 131.855 62.9888 140.63 65.4195C142.624 65.9745 146.76 67.1258 175.684 121.693C189.8 148.313 203.053 174.974 203.183 175.244C203.715 176.352 203.2 177.765 201.999 178.402L201.97 178.417C200.763 179.041 199.363 178.651 198.822 177.564C161.32 102.049 142.114 71.4148 138.802 69.8376C133.718 68.4342 101.999 80.5061 80.8367 89.6532C75.7808 94.694 67.851 103.007 65.9724 106.018C67.4634 113.747 100.83 180.388 121.906 221.337C122.467 222.43 121.959 223.856 120.765 224.507L120.706 224.538L120.735 224.522Z" fill="#393663"/>
<path d="M79.3577 86.9533L79.3158 86.9748C78.9666 87.1533 44.0637 104.345 38.6992 107.373C37.5846 108.022 36.2081 107.694 35.6569 106.657C35.0979 105.64 35.5622 104.291 36.6829 103.654C42.1793 100.574 76.1202 83.8428 77.5509 83.1273C78.7023 82.5546 80.0414 82.9502 80.5367 84.0155C81.0259 85.068 80.489 86.375 79.3577 86.9533Z" fill="#393663"/>
<path d="M80.3164 86.1144C79.3327 86.6243 78.1618 86.5565 77.345 85.9269C76.4888 85.2519 76.1984 84.0863 76.6469 83.0148C80.75 72.9913 95.4665 39.7321 112.338 32.7157C116.685 30.9068 120.868 30.911 124.758 32.7609C129.362 34.9488 130.277 38.2417 130.231 40.6017C129.934 54.9043 92.0945 78.9738 80.5097 85.9978C80.5097 85.9978 80.3814 86.0643 80.3243 86.0939L80.3164 86.1144ZM112.588 37.4066C102.024 42.8816 90.6431 62.2046 83.0742 79.3053C104.81 65.6058 125.4 49.1764 125.559 40.95C125.585 39.8507 125.275 38.2346 122.39 36.8507C119.674 35.5601 116.861 35.554 113.804 36.8255C113.401 36.9855 112.981 37.1865 112.582 37.3934L112.588 37.4066Z" fill="#393663"/>
<path d="M81.9192 84.7401C81.704 84.8517 81.4905 84.9294 81.2499 84.9879C36.5097 96.4177 26.1627 90.6532 23.7923 87.642C22.4689 85.9597 21.4347 82.9346 24.0701 78.0724C26.3682 73.8157 29.9172 70.8649 34.6437 69.2912C50.5361 63.996 75.1433 76.1458 82.3184 79.9942C83.2857 80.5195 83.7519 81.5697 83.5237 82.6654C83.3341 83.5423 82.745 84.2952 81.9416 84.7119L81.9192 84.7401ZM33.5715 74.5021C31.233 75.7152 29.4476 77.4861 28.1563 79.8787C26.3887 83.1478 27.2975 84.2998 27.6009 84.6725C31.5458 89.6664 54.2751 86.838 75.4606 81.8287C62.5172 75.539 45.7992 70.23 35.763 73.5807C34.9886 73.8333 34.2602 74.1449 33.5715 74.5021Z" fill="#393663"/>
<path d="M56.6896 119.256C58.2112 118.335 59.938 117.359 61.5797 117.762C63.3044 118.189 64.1549 119.954 64.8165 121.549C66.6919 126.106 68.5609 130.65 70.422 135.215C70.5559 135.53 70.6819 135.866 70.6535 136.215C70.6008 136.81 70.0982 137.287 69.6335 137.694C61.8742 144.43 52.7045 149.574 42.9915 152.627C42.3887 152.822 41.7443 153.005 41.1477 152.879C40.2322 152.685 39.7068 151.855 39.2565 151.069C36.711 146.641 34.345 142.103 32.1441 137.463C29.3984 131.619 35.0905 130.529 39.722 128.35C45.517 125.62 51.1846 122.588 56.6753 119.264L56.6896 119.256Z" fill="#F8D0B5"/>
<path d="M48.9443 128.407C47.6762 129.084 46.4064 129.793 45.1444 130.482C41.9152 132.267 38.5668 134.128 35.1261 135.546L35.3808 136.253C38.8771 134.806 42.2394 132.938 45.4965 131.14C46.7524 130.438 48.0143 129.748 49.2824 129.072C52.8362 127.169 56.5235 125.436 60.2286 123.883L59.96 123.183C56.221 124.738 52.512 126.498 48.9304 128.414L48.9443 128.407Z" fill="#393663"/>
<path d="M62.5123 131.501L62.2232 130.794C54.5035 134.282 46.907 138.278 39.6563 142.666L40.0367 143.311C47.2595 138.936 54.8143 134.963 62.5061 131.488L62.5123 131.501Z" fill="#393663"/>
<path d="M43.5885 147.953L43.9194 148.638C45.7484 147.754 47.5991 146.843 49.4375 145.907C54.9529 143.098 60.4165 140.11 65.7386 136.972L65.3581 136.327C58.2744 140.489 50.9523 144.408 43.5807 147.972L43.5885 147.953Z" fill="#393663"/>
</svg>
