<svg width="178" height="207" viewBox="0 0 178 207" fill="none" xmlns="http://www.w3.org/2000/svg">
<path d="M36.1345 62.3806C34.23 66.0755 7.97102 113.978 5.34622 121.134C2.72143 128.29 50.5803 159.434 61.1558 164.055C71.742 168.681 97.1806 131.525 97.1806 131.525L109.162 102.83L36.1345 62.3806Z" fill="#17B5B4"/>
<path d="M87.3352 100.845C87.3352 100.845 56.6639 154.64 56.1583 160.058C55.6634 165.482 109.608 181.31 116.136 181.719C123.806 182.199 147.217 130.186 149.547 124.584C151.877 118.982 87.3245 100.839 87.3245 100.839L87.3352 100.845Z" fill="#199A9A"/>
<path d="M46.9358 76.0295L42.2838 79.1786L36.6372 76.9977L38.6933 82.5542L35.2877 86.9322L41.2011 87.2286L44.749 92.1177L46.3372 86.7436L51.9356 85.3824L47.0198 81.7743L46.9358 76.0295Z" fill="#F8D0B5"/>
<path d="M52.4329 112.759L52.3331 107.018L47.697 110.163L42.0398 107.976L44.0959 113.533L40.696 117.927L46.6036 118.207L50.1571 123.112L51.7503 117.728L57.3486 116.367L52.4329 112.759Z" fill="#F8D0B5"/>
<path d="M93.9933 131.114L93.9093 125.369L89.2574 128.518L83.6109 126.337L85.667 131.893L82.2615 136.271L88.1747 136.568L91.7225 141.457L93.3214 136.089L98.9197 134.727L93.9933 131.114Z" fill="#F8D0B5"/>
<path d="M84.6428 100.29L84.5431 94.5492L79.9069 97.6942L74.2498 95.5075L76.3058 101.064L72.9059 105.458L78.8136 105.738L82.367 110.643L83.9602 105.259L89.5585 103.898L84.6428 100.29Z" fill="#F8D0B5"/>
<path d="M56.6573 143.539L56.5733 137.794L51.9321 140.949L46.275 138.763L48.331 144.319L44.9362 148.703L50.8388 148.993L54.3973 153.888L55.9854 148.514L61.5837 147.153L56.6573 143.539Z" fill="#F8D0B5"/>
<path d="M98.7698 162.469L98.6808 156.734L94.0446 159.879L88.3874 157.693L90.4435 163.249L87.0436 167.643L92.9513 167.923L96.5047 172.828L98.0979 167.444L103.696 166.083L98.7698 162.469Z" fill="#F8D0B5"/>
<path d="M124.369 152.623L119.443 149.009L119.354 143.275L114.717 146.42L109.06 144.233L111.116 149.789L107.706 154.177L113.624 154.464L117.167 159.362L118.771 153.984L124.369 152.623Z" fill="#F8D0B5"/>
<path d="M110.302 127.568L116.221 127.855L119.764 132.754L121.367 127.376L126.966 126.015L122.039 122.401L121.95 116.666L117.303 119.805L111.657 117.624L113.713 123.181L110.302 127.568Z" fill="#F8D0B5"/>
<path d="M24.6525 119.893L24.5634 114.159L19.9274 117.304L14.2703 115.117L16.3264 120.673L12.9316 125.057L18.834 125.348L22.3925 130.242L23.9806 124.868L29.5788 123.507L24.6525 119.893Z" fill="#F8D0B5"/>
<path d="M118.696 172.273L112.95 170.062L115.038 175.679L111.573 180.114L116.946 180.376C118.788 178.905 121.024 176.019 123.447 172.311L123.395 169.088L118.685 172.267L118.696 172.273Z" fill="#F8D0B5"/>
<path d="M135.561 135.563L141.554 135.847L142.889 137.679C144.705 133.824 146.263 130.418 147.43 127.825L147.377 124.552L142.674 127.729L136.936 125.52L139.021 131.132L135.561 135.563Z" fill="#F8D0B5"/>
<g style="mix-blend-mode:multiply" opacity="0.2">
<path d="M149.613 124.011C151.057 120.509 125.181 111.874 106.894 106.257L108.869 101.517L37.7065 62.3257C37.2261 63.2595 35.1521 67.0841 32.3046 72.3606C42.1315 81.1643 79.4624 107.223 83.9627 110.52C82.9127 112.561 134.978 130.665 145.534 133.151C147.636 128.602 149.122 125.197 149.613 124.011Z" fill="#231F20"/>
</g>
<path d="M46.9499 44.4899C45.8145 46.6852 89.9719 79.0112 98.0756 84.1594C106.174 89.3171 158.792 108.947 161.207 106.915C163.616 104.893 113.506 73.6043 105.72 69.3801C97.9326 65.1559 47.657 43.1227 46.9499 44.4899Z" fill="#1ACFCD"/>
<path d="M97.8778 85.3573C94.8271 82.3964 51.0203 45.8084 46.1149 44.9118C41.2095 44.0152 32.9824 60.8259 33.0382 63.8966C33.094 66.9672 82.3291 101.534 87.5588 105.397C92.7885 109.259 102.219 109.576 102.219 109.576L97.8728 85.3671L97.8778 85.3573Z" fill="#17B5B4"/>
<path d="M96.7252 84.2528C90.6554 95.573 87.542 102.092 86.377 104.355C85.212 106.618 146.871 127.915 150.509 127.672C154.147 127.43 161.129 110.442 160.857 107.57C160.586 104.698 96.7252 84.2528 96.7252 84.2528Z" fill="#199A9A"/>
<path d="M21.3825 139.525C20.5052 139.046 20.1342 137.985 20.5575 137.165C20.6556 136.975 30.9763 117.114 42.1789 97.3248C63.8446 59.0728 66.8385 59.8615 68.8203 60.3795C74.723 61.9361 98.1191 70.9164 99.117 71.2946L99.2878 71.3623L99.4483 71.4499C105.023 74.891 132.988 92.2625 135.415 97.5231C136.045 98.8798 137.207 101.411 117.243 140.298C107.546 159.191 97.439 177.707 97.3461 177.887C96.9014 178.696 95.8324 178.907 94.9662 178.46C94.0992 177.961 93.7441 176.895 94.1888 176.087C109.057 148.877 132.378 103.992 132.141 98.6065C130.436 95.612 113.546 84.0699 97.8783 74.4382C95.7597 73.6275 74.3704 65.4353 68.4558 63.7954C62.9159 66.3978 36.7075 113.796 23.7457 138.906C23.3225 139.726 22.2598 140.004 21.3825 139.525Z" fill="#393663"/>
<path d="M102.68 73.3658C102.261 73.1363 101.892 72.8072 101.607 72.3961C100.989 71.5087 100.908 70.405 101.411 69.5316C104.873 63.4861 114.146 49.3112 125.34 48.2488C129.655 47.8396 133.734 49.3942 137.49 52.8657C140.861 55.9862 142.14 58.9961 141.288 61.8103C140.212 65.3826 133.974 71.6837 104.331 73.7198C103.757 73.7635 103.18 73.6265 102.685 73.3558L102.68 73.3658ZM132.041 52.9868C130.095 51.9218 128.092 51.5027 125.984 51.6901C116.85 52.5516 108.51 64.7995 105.269 70.1742C123.795 68.7572 136.514 65.0189 137.859 60.5729C138.303 59.118 137.384 57.3389 135.145 55.2592C134.116 54.313 133.079 53.5416 132.036 52.9709L132.041 52.9868Z" fill="#393663"/>
<path d="M101.072 74.0258C100.601 73.7674 100.201 73.3956 99.8992 72.9122C93.1986 62.0347 82.5356 42.7342 86.527 35.6214C87.2947 34.2585 88.9588 32.6476 92.53 32.7814C95.4805 32.8937 98.0021 34.0832 100.036 36.3303C107.202 44.2655 105.939 64.055 105.065 72.1867C104.94 73.341 104.099 74.2049 102.919 74.3618C102.28 74.4574 101.635 74.3211 101.078 74.0158L101.072 74.0258ZM95.6382 37.0049C94.7589 36.5235 93.7887 36.2726 92.7114 36.2305C90.6631 36.1536 89.9891 36.9054 89.6667 37.4804C87.5382 41.2825 92.2556 53.7235 101.738 69.4609C102.41 61.8301 103.183 44.8166 97.4606 38.4866C96.9017 37.8622 96.298 37.3789 95.6331 37.0149L95.6382 37.0049Z" fill="#393663"/>
<path d="M120.65 85.32C120.221 85.0852 119.792 84.8504 119.352 84.6098C110.136 79.4694 101.969 73.7461 101.88 73.6849L97.9931 70.9621L102.537 70.6741C103.824 70.5947 134.349 68.7998 144.85 78.473C147.319 80.744 148.556 83.4597 148.542 86.5488C148.525 90.1953 146.699 91.771 145.176 92.4426C140.894 94.3408 132.854 92.0075 120.625 85.3182L120.65 85.32ZM107.949 73.8712C120.339 82.0534 138.092 91.7762 143.539 89.3582C144.2 89.061 145.093 88.4175 145.104 86.2226C145.117 84.1283 144.294 82.3598 142.611 80.8048C138.843 77.3263 130.882 75.0485 119.586 74.205C115.144 73.8767 110.987 73.8288 107.949 73.8712Z" fill="#393663"/>
<path d="M99.8986 73.1692C98.3547 72.3239 91.4322 68.4836 84.5765 63.8559C73.6032 56.4492 68.2528 50.7981 68.2227 46.5743C68.2058 45.0045 68.9193 42.8484 72.3705 41.517C75.4045 40.3443 78.565 40.5267 81.7582 42.038C93.6183 47.633 102.221 70.4707 102.573 71.4376L104.052 75.4058L100.214 73.3418C100.214 73.3418 100.098 73.2785 99.8986 73.1692ZM81.1317 45.3903C80.9112 45.2695 80.6906 45.1488 80.4601 45.0475C78.179 43.9609 76.0219 43.8409 73.879 44.6651C71.6691 45.515 71.6795 46.5195 71.6863 46.8478C71.7242 51.4504 85.7286 61.3156 97.5672 68.1349C94.6651 61.6145 88.4523 49.3986 81.1317 45.3903Z" fill="#393663"/>
<path d="M59.1911 99.4313C59.0641 99.3619 58.9422 99.2825 58.8356 99.1734C58.0912 98.512 57.9967 97.4313 58.6167 96.7541C60.2337 94.9834 60.9749 92.5431 61.7457 89.9665C62.4064 87.7616 63.0922 85.4816 64.3906 83.4605C67.3313 78.8821 73.3478 76.4692 79.0429 77.5775C79.3745 77.6446 79.7167 77.7175 80.0538 77.8003C80.7069 77.9543 81.3388 78.0967 81.8955 78.1218C83.3818 78.1853 84.8565 77.4548 86.4093 76.6781L87.045 76.3653C91.9856 73.9609 96.4581 72.5709 100.719 72.145L101.29 72.0891L101.809 72.3728C112.333 78.1682 119.099 90.1022 118.266 101.411C118.24 101.804 118.199 102.2 118.158 102.597C118.056 103.583 117.97 104.514 118.031 105.424C118.093 106.436 118.344 107.501 118.613 108.639C119.117 110.795 119.683 113.252 118.872 115.59C118.57 116.467 117.578 116.865 116.654 116.499C115.73 116.133 115.244 115.13 115.546 114.254C116.049 112.801 115.635 111.025 115.204 109.15C114.923 107.929 114.622 106.672 114.545 105.372C114.47 104.2 114.58 103.092 114.68 102.028C114.711 101.652 114.753 101.281 114.779 100.914C115.498 91.1432 109.763 80.8406 100.796 75.6301C97.1025 76.0868 93.1738 77.3424 88.8066 79.476L88.1916 79.7748C86.4095 80.6547 84.3982 81.6634 82.0243 81.5589C81.121 81.5221 80.2994 81.3267 79.5095 81.1487C79.2199 81.0792 78.9251 81.0195 78.6303 80.9599C74.2668 80.11 69.654 81.9568 67.401 85.4631C66.3439 87.1208 65.7481 89.0943 65.1173 91.1885C64.2711 93.9907 63.4002 96.8936 61.3025 99.1762C60.7755 99.7519 59.9004 99.8448 59.1914 99.457L59.1911 99.4313Z" fill="#393663"/>
</svg>
