<svg width="129" height="135" viewBox="0 0 129 135" fill="none" xmlns="http://www.w3.org/2000/svg">
<path d="M11.9324 46.667C11.4102 50.1765 3.40454 96.0957 3.23151 102.608C3.05848 109.121 49.0212 121.588 58.5786 122.506C68.146 123.427 78.3516 86.452 78.3516 86.452L80.193 59.948L11.9324 46.667Z" fill="#726DAB"/>
<path d="M63.1608 63.7466C63.1608 63.7466 53.2707 115.63 54.309 120.165C55.3572 124.702 102.029 123.127 107.278 121.713C113.445 120.052 118.09 71.5573 118.44 66.3851C118.789 61.2129 63.1508 63.7447 63.1508 63.7447L63.1608 63.7466Z" fill="#5F5A94"/>
<g style="mix-blend-mode:multiply" opacity="0.2">
<path d="M118.479 66.9045C118.658 63.8272 95.7792 63.505 79.744 63.6538L80.0034 59.483L12.8296 46.5963C12.706 47.4404 12.1159 50.9238 11.3125 55.7262C21.5224 60.1411 58.2752 71.1746 62.7485 72.6252C62.4784 74.4699 108.715 75.6863 117.764 75.0129C118.176 70.96 118.416 67.9477 118.479 66.9045Z" fill="#231F20"/>
</g>
<path d="M15.4793 29.861C15.167 31.8947 59.005 45.9907 66.8388 47.9566C74.6713 49.9315 121.822 51.7721 123.196 49.535C124.571 47.2979 76.2744 35.5817 68.9413 34.2648C61.6082 32.9479 15.6738 28.5944 15.4793 29.861Z" fill="#918FCC"/>
<path d="M66.7561 49.23C63.5537 47.6518 19.1471 29.7783 15.0258 30.3617C10.9045 30.9452 8.86394 46.7153 9.72485 49.1804C10.5858 51.6456 58.7418 66.4379 63.9185 68.1654C69.0854 69.8911 76.6343 67.633 76.6343 67.633L66.7547 49.2393L66.7561 49.23Z" fill="#726DAB"/>
<path d="M66.1303 48.2007C64.3371 58.9825 63.6064 65.0891 63.2863 67.2316C62.9661 69.3741 117.373 70.1347 120.185 68.9666C122.997 67.7985 124.006 52.1873 123.029 49.9358C122.052 47.6843 66.1303 48.2007 66.1303 48.2007Z" fill="#5F5A94"/>
<path d="M21.0607 113.179C20.2429 113.024 19.6694 112.262 19.7854 111.483C19.8123 111.302 22.6753 92.4149 26.2518 73.3496C33.1739 36.494 35.7406 36.3336 37.4384 36.2241C42.4991 35.9091 63.3027 36.9427 64.1887 36.9829L64.3411 36.9921L64.4907 37.0204C69.7925 38.3234 96.418 44.9484 99.7237 48.5707C100.579 49.5038 102.165 51.2485 96.7516 88.1641C94.1226 106.099 91.0717 123.838 91.0463 124.009C90.9118 124.775 90.1616 125.268 89.3538 125.115L89.3239 125.11C88.5089 124.937 87.9469 124.166 88.0828 123.391C92.5791 97.3202 99.0464 54.6355 97.4322 50.3263C95.2963 48.3508 78.9371 43.4965 64.0465 39.8668C62.1633 39.7752 43.1489 38.8447 38.0568 39.0952C34.3941 42.6921 26.3089 88.1874 22.7574 112.043C22.6414 112.823 21.8785 113.333 21.0607 113.179Z" fill="#ED1C24"/>
<path d="M85.1338 42.8695C76.1108 41.1721 67.852 37.7486 67.2503 37.5005L65.0563 36.5769L66.7644 35.1152C69.2407 32.9883 91.3199 14.4247 102.793 19.0696C106.359 20.5116 108.459 23.9041 109.036 29.1497C109.652 34.7402 108.161 38.8258 104.584 41.266C99.8861 44.4882 92.2718 44.222 85.1422 42.8807L85.1338 42.8695ZM70.5975 35.7881C73.1239 36.726 77.4622 38.2264 82.2494 39.3679C91.8829 41.6621 98.9728 41.502 102.756 38.9077C105.489 37.0316 106.575 33.8915 106.065 29.2849C105.618 25.2106 104.165 22.6529 101.745 21.6773C94.1727 18.6142 78.1029 29.7111 70.5877 35.7862L70.5975 35.7881Z" fill="#ED1C24"/>
<path d="M65.2967 38.2383C61.6972 37.5598 39.9702 33.0672 34.9194 22.744C33.1329 19.1061 33.5706 15.2098 36.2143 11.1776C38.6605 7.44695 41.571 5.78837 44.8778 6.24716C49.7187 6.91769 54.9673 12.2925 60.5375 22.2004C64.548 29.3361 67.2392 36.1843 67.3483 36.4759L68.2392 38.7543L65.7713 38.3278C65.7021 38.3147 65.5439 38.2849 65.2967 38.2383ZM44.8556 9.12785C44.7765 9.11293 44.6974 9.09802 44.6084 9.08124C42.5065 8.79151 40.5884 9.99824 38.7583 12.7995C36.642 16.0212 36.2724 18.9138 37.6044 21.6432C41.3685 29.3423 57.3173 33.5879 63.5954 34.9843C59.9731 26.4697 51.8171 10.4402 44.8457 9.12598L44.8556 9.12785Z" fill="#ED1C24"/>
<path d="M27.7235 112.094C35.1097 113.458 42.43 115.332 49.5969 117.691C49.8381 112.243 50.2503 106.808 50.8322 101.395C43.8514 99.9048 36.9424 98.0691 30.1234 95.9016C29.0988 97.181 27.0704 111.971 27.7249 112.085L27.7235 112.094Z" fill="#F8D0B5"/>
<path d="M31.1345 100.777C36.8349 102.103 42.5842 103.576 48.219 105.147C48.219 105.147 48.2385 105.151 48.2483 105.153C48.375 105.176 48.4834 105.118 48.5186 105.013C48.5453 104.897 48.4722 104.781 48.3369 104.748C42.6924 103.174 36.9333 101.7 31.2231 100.372C31.0855 100.356 30.9673 100.411 30.9418 100.519C30.9249 100.636 31.009 100.746 31.1345 100.777Z" fill="#3B515D"/>
<path d="M47.7339 109.069C47.8605 109.092 47.9699 109.027 48.0051 108.922C48.0318 108.807 47.9489 108.689 47.8235 108.658C42.0104 107.119 36.0878 105.714 30.2093 104.488C30.0729 104.463 29.9537 104.527 29.927 104.642C29.9101 104.759 29.9942 104.868 30.1293 104.901C35.9982 106.125 41.911 107.528 47.7144 109.066L47.7339 109.069Z" fill="#3B515D"/>
<path d="M47.3885 113.17C41.6493 111.504 35.7526 110.235 29.8541 109.39C29.7179 109.366 29.6061 109.448 29.5892 109.564C29.5724 109.68 29.6783 109.775 29.8133 109.808C35.6924 110.649 41.5599 111.913 47.2698 113.573C47.2796 113.575 47.2893 113.576 47.299 113.578C47.4158 113.599 47.5337 113.544 47.5688 113.44C47.6052 113.327 47.5223 113.211 47.3885 113.17Z" fill="#3B515D"/>
</svg>
