<svg width="284" height="131" viewBox="0 0 284 131" fill="none" xmlns="http://www.w3.org/2000/svg">
<path d="M16.8521 116.241C17.9471 122.098 20.648 127.78 26.7946 129.051C40.4602 131.899 89.4432 121.076 119.067 118.52C148.675 115.963 223.866 113.115 231.837 109.128C239.809 105.14 282.528 60.6933 282.82 52.7183C283.098 44.7432 271.14 31.9189 271.14 31.9189" fill="#7A603E"/>
<path d="M16.8521 116.241C17.9471 122.098 20.648 127.78 26.7946 129.051C40.4602 131.899 89.4432 121.076 119.067 118.52C148.675 115.963 223.866 113.115 231.837 109.128C239.809 105.14 282.528 60.6933 282.82 52.7183C283.098 44.7432 271.14 31.9189 271.14 31.9189" stroke="#100B14" stroke-width="1.6748" stroke-miterlimit="10"/>
<path d="M2.22737 55.4349C2.22737 55.4349 -2.0504 41.7634 5.3664 40.332C12.7686 38.9152 107.041 23.5202 107.041 23.5202C107.041 23.5202 124.415 22.6585 131.817 21.5192C139.219 20.3799 195.604 0.442331 218.103 1.01198C240.602 1.58162 272.78 32.357 274.78 35.4828C284.737 45.4589 247.726 89.6136 230.06 99.02C222.089 103.723 174.799 107.389 129.247 112.122C83.6808 116.854 39.8224 122.653 39.8224 122.653C39.8224 122.653 15.6156 127.21 13.046 105.564C10.491 83.9317 2.22737 55.4349 2.22737 55.4349Z" fill="#F2BE80" stroke="#100B14" stroke-width="1.6748" stroke-miterlimit="10"/>
<path d="M111.956 37.1918C111.956 39.6311 109.986 41.603 107.547 41.603C105.109 41.603 103.138 39.6311 103.138 37.1918C103.138 34.7526 105.109 32.7808 107.547 32.7808C109.986 32.7808 111.956 34.7526 111.956 37.1918Z" stroke="#100B14" stroke-width="1.6748" stroke-miterlimit="10"/>
<path d="M118.366 102.862C118.366 105.301 116.395 107.273 113.956 107.273C111.518 107.273 109.547 105.301 109.547 102.862C109.547 100.422 111.518 98.4504 113.956 98.4504C116.395 98.4504 118.366 100.422 118.366 102.862Z" stroke="#100B14" stroke-width="1.6748" stroke-miterlimit="10"/>
<path d="M53.2945 77.9328C54.0918 82.316 56.7057 83.6811 59.616 83.264C63.0252 82.7754 64.8003 80.3571 64.2288 76.3658L62.8894 67.0112L55.1148 68.1254L54.1266 61.2237L70.0915 58.9358L72.4192 75.1921C73.5205 82.8837 69.5371 89.1401 60.4736 90.4389C52.1169 91.6365 46.6217 88.2235 45.312 79.0768L53.2945 77.9328ZM108.485 68.2839C109.884 78.0543 104.059 84.1927 94.4969 85.5631C84.9762 86.9275 77.5799 82.6838 76.181 72.9134C74.8177 63.3924 80.6899 56.9927 90.2107 55.6283C99.7731 54.2579 107.104 58.6383 108.485 68.2839ZM100.253 69.4636C99.5328 64.4329 96.0395 61.9635 91.2168 62.6546C86.5188 63.3279 83.7283 66.9524 84.4129 71.7337C85.1094 76.5981 88.8344 79.204 93.4909 78.5367C98.3136 77.8456 100.95 74.3281 100.253 69.4636ZM128.117 57.1968L127.194 50.7525C132.225 50.0316 137.214 49.3166 142.203 48.6016L143.126 55.0459L139.758 55.5285L141.133 65.1326C142.449 73.727 137.907 79.3421 129.384 80.5635C120.778 81.7968 114.962 77.9207 113.682 68.9818L112.318 59.4609L108.951 59.9435L108.028 53.4992C113.059 52.7782 118.006 52.0692 123.078 51.3423L124.001 57.7866L120.467 58.2931L121.831 67.814C122.485 72.3874 124.969 74.0257 128.378 73.5371C131.704 73.0605 133.622 70.7491 132.985 66.3004L131.609 56.6963L128.117 57.1968ZM167.39 64.6369L173.626 63.7432L175.037 73.5967C166.39 74.836 157.659 76.0872 148.969 77.3324L148.041 70.8466L151.242 70.3878L148.926 54.2147L145.725 54.6734L144.802 48.2291C153.325 47.0077 161.807 45.7923 170.33 44.5709L171.729 54.3413L165.492 55.235L164.909 52.3485L157.135 53.4626L157.778 57.9529L164.762 56.9519L165.679 63.3546L158.694 64.3556L159.325 68.7627L167.64 67.571L167.39 64.6369ZM178.567 49.9669L175.075 50.4674L174.152 44.0231L191.863 41.4849C199.305 40.4184 203.856 44.6456 204.606 49.8842C205.1 53.335 204.359 56.4537 200.172 59.2176L203.832 62.8512L207.616 62.309L208.544 68.7949C204.636 69.3549 200.728 69.915 196.82 70.475L196.219 66.2758L191.858 61.5972L188.656 62.056L189.133 65.3821L192.411 65.1668L193.245 70.9874C188.297 71.6965 183.35 72.4055 178.319 73.1264L177.39 66.6405L180.883 66.14L178.567 49.9669ZM186.775 48.9179L187.775 55.9027L193.845 55.0328C195.883 54.7409 196.731 52.9645 196.463 51.0935C196.196 49.2226 194.966 47.7441 192.762 48.0599L186.775 48.9179Z" fill="black"/>
</svg>
