<svg width="24" height="25" viewBox="0 0 24 25" fill="none" xmlns="http://www.w3.org/2000/svg">
<path fill-rule="evenodd" clip-rule="evenodd" d="M6 23.5H3V18.014C1.173 17.496 0 15.774 0 14.026C0 13.441 0.129 12.854 0.407 12.31C0.084 10.649 1.064 8.966 2.763 8.429L2.781 8.424C3.554 7.322 4.838 6.598 6.316 6.526L11.982 1.5L24 12.161L22.67 13.654L11.982 4.172L8.708 7.077C9.013 7.239 9.299 7.435 9.557 7.666L11.972 5.524L20.998 13.513V23.5H18V16.5H13L12.992 23.5H7V17.439C7.546 17.314 8.034 16.976 8.317 16.395C10.413 17.181 12.063 14.122 10.137 12.833C11.21 11.596 10.325 10.086 8.929 10.308C8.256 7.924 4.751 7.924 4.078 10.308C2.768 10.073 1.783 11.402 2.693 12.599C1.039 13.979 2.531 16.683 4.565 16.072C4.779 16.812 5.359 17.272 6 17.434V23.5ZM6.451 12.822C7.944 11.799 9.693 13.59 8.754 15.048C8.756 13.575 7.901 12.766 6.451 12.822ZM4.332 14.013C3.664 13.011 3.992 11.647 5.037 11.045C5.626 10.707 6.367 10.676 6.99 10.975C8.05 11.482 4.247 10.297 4.332 14.013Z" fill="#0E103B"/>
</svg>
