<svg width="300" height="157" viewBox="0 0 300 157" fill="none" xmlns="http://www.w3.org/2000/svg">
<g filter="url(#filter0_d_1129_6591)">
<path d="M26.2646 123.794C27.3446 128.937 30.0086 133.925 36.071 135.041C49.5494 137.542 97.8614 128.039 127.079 125.795C156.282 123.551 230.442 121.05 238.305 117.549C246.167 114.048 288.301 75.0234 288.589 68.0213C288.863 61.0192 277.069 49.7595 277.069 49.7595" fill="#7A603E"/>
<path d="M26.2646 123.794C27.3446 128.937 30.0086 133.925 36.071 135.041C49.5494 137.542 97.8614 128.039 127.079 125.795C156.282 123.551 230.442 121.05 238.305 117.549C246.167 114.048 288.301 75.0234 288.589 68.0213C288.863 61.0192 277.069 49.7595 277.069 49.7595" stroke="#100B14" stroke-width="1.6748" stroke-miterlimit="10"/>
<path d="M12.2106 70.7782C12.2106 70.7782 7.99139 58.7747 15.3066 57.5179C22.6074 56.2739 115.588 42.7571 115.588 42.7571C115.588 42.7571 132.724 42.0005 140.025 41.0002C147.326 39.9999 202.939 22.4947 225.129 22.9949C247.319 23.495 279.057 50.5158 281.03 53.2602C290.851 62.0192 254.347 100.787 236.923 109.046C229.06 113.175 182.419 116.394 137.491 120.549C92.5482 124.704 49.2906 129.796 49.2906 129.796C49.2906 129.796 25.4154 133.797 22.881 114.791C20.361 95.7984 12.2106 70.7782 12.2106 70.7782Z" fill="#F2BE80" stroke="#100B14" stroke-width="1.6748" stroke-miterlimit="10"/>
<path d="M120.067 54.389C120.067 56.5307 118.123 58.262 115.718 58.262C113.313 58.262 111.369 56.5307 111.369 54.389C111.369 52.2474 113.313 50.5161 115.718 50.5161C118.123 50.5161 120.067 52.2474 120.067 54.389Z" stroke="#100B14" stroke-width="1.6748" stroke-miterlimit="10"/>
<path d="M126.388 112.047C126.388 114.189 124.444 115.92 122.039 115.92C119.634 115.92 117.69 114.189 117.69 112.047C117.69 109.906 119.634 108.174 122.039 108.174C124.444 108.174 126.388 109.906 126.388 112.047Z" stroke="#100B14" stroke-width="1.6748" stroke-miterlimit="10"/>
<path d="M55.4931 69.9075L71.7678 67.8313L74.9299 87.4901C75.4018 89.7842 75.4772 91.9582 75.1562 94.0122C74.8353 96.0662 74.1354 97.8956 73.0566 99.5003C72.0114 101.101 70.5819 102.443 68.7681 103.528C66.9488 104.579 64.7796 105.265 62.2603 105.586C59.9761 105.878 57.9008 105.869 56.0345 105.562C54.2017 105.249 52.5839 104.569 51.181 103.519C49.7728 102.437 48.5909 100.95 47.6354 99.0585C46.7081 97.1296 46.0105 94.7108 45.5426 91.8021L53.1006 90.8379C53.2888 92.0081 53.5361 93.1195 53.8426 94.1723C54.1773 95.1873 54.6443 96.066 55.2436 96.8084C55.8375 97.5174 56.6089 98.0502 57.5575 98.4068C58.5062 98.7635 59.7195 98.8475 61.1975 98.659C62.6755 98.4704 63.8807 98.0778 64.8131 97.4812C65.7402 96.8512 66.4388 96.0797 66.909 95.1667C67.3792 94.2537 67.6599 93.2284 67.7512 92.0908C67.8371 90.9198 67.7779 89.6991 67.5735 88.4286L65.4924 75.4899L56.574 76.6276L55.4931 69.9075ZM96.0661 63.9638C99.1283 63.6073 101.871 63.8204 104.293 64.6032C106.744 65.3482 108.849 66.4957 110.606 68.0457C112.358 69.5623 113.765 71.3788 114.825 73.4955C115.885 75.6121 116.587 77.8427 116.93 80.1873C117.295 82.4608 117.303 84.7458 116.953 87.0424C116.597 89.3056 115.817 91.384 114.613 93.2776C113.409 95.1713 111.752 96.7988 109.639 98.16C107.556 99.4836 104.935 100.347 101.777 100.75C98.519 101.165 95.6476 101.003 93.1631 100.262C90.7122 99.5169 88.6134 98.4028 86.8665 96.9197C85.1142 95.4032 83.7106 93.6033 82.6556 91.5201C81.6343 89.4326 80.9381 87.2355 80.567 84.9286C80.0884 81.953 80.1506 79.2496 80.7537 76.8184C81.3568 74.3873 82.3717 72.2788 83.7985 70.4932C85.2199 68.6742 86.9746 67.222 89.0625 66.1368C91.1787 65.0138 93.5132 64.2895 96.0661 63.9638ZM109.422 81.1451C109.241 79.8035 108.855 78.4708 108.265 77.1472C107.703 75.7858 106.931 74.6049 105.947 73.6045C104.958 72.5706 103.735 71.7883 102.278 71.2576C100.817 70.6935 99.1114 70.5357 97.1632 70.7842C95.3828 71.0114 93.8666 71.4948 92.6144 72.2346C91.3621 72.9744 90.3491 73.9225 89.5753 75.0789C88.8014 76.2353 88.2782 77.5645 88.0056 79.0664C87.7666 80.564 87.7869 82.1821 88.0665 83.9207C88.3031 85.3917 88.7332 86.7869 89.3568 88.1063C89.975 89.3922 90.8041 90.4977 91.8442 91.4227C92.8789 92.3143 94.1359 92.9898 95.6153 93.4494C97.0894 93.8755 98.8005 93.9642 100.749 93.7157C102.63 93.4757 104.172 92.9378 105.374 92.102C106.61 91.262 107.562 90.2534 108.23 89.0764C108.892 87.866 109.3 86.5685 109.455 85.1841C109.643 83.7953 109.632 82.449 109.422 81.1451ZM141.933 88.8712C144.788 88.5069 146.804 87.3968 147.979 85.5409C149.149 83.6515 149.492 81.2023 149.008 78.1933L146.903 65.1042L142.469 65.6698L141.388 58.9497L156.554 57.0149L157.635 63.735L154.108 64.185L156.23 77.3745C156.708 80.35 156.678 82.93 156.138 85.1142C155.598 87.2985 154.694 89.1369 153.425 90.6294C152.191 92.1175 150.662 93.2679 148.838 94.0806C147.054 94.9223 145.121 95.4761 143.038 95.7417C140.855 96.0203 138.743 95.9997 136.703 95.6798C134.664 95.36 132.783 94.6446 131.062 93.5335C129.374 92.4181 127.927 90.8797 126.72 88.9183C125.513 86.9568 124.668 84.4716 124.184 81.4626L122.062 68.2731L118.636 68.7102L117.555 61.9901L132.772 60.0489L133.853 66.769L129.469 67.3282L131.591 80.5177C132.091 83.627 133.226 85.8876 134.995 87.2996C136.799 88.7073 139.111 89.2311 141.933 88.8712ZM189.179 81.6156L188.642 76.3614L195.192 75.5258L197.145 87.6621L166.762 91.5382L165.673 84.7679L169.653 84.2601L166.168 62.5952L162.49 63.0645L161.417 56.3945L190.742 52.6535L192.646 64.4889L186.297 65.2988L185.122 60.2285L173.432 61.7198L174.594 68.9414L185.326 67.5722L186.399 74.2422L175.667 75.6114L176.885 83.184L189.179 81.6156ZM218.853 64.984C219.962 64.8426 220.85 64.6099 221.518 64.2858C222.18 63.9284 222.681 63.5233 223.019 63.0707C223.352 62.5846 223.543 62.0656 223.592 61.5135C223.668 60.9237 223.661 60.3446 223.569 59.7763C223.429 58.907 223.146 58.2096 222.718 57.6841C222.325 57.1543 221.832 56.7565 221.241 56.4907C220.683 56.2207 220.058 56.0616 219.365 56.0136C218.705 55.9613 218.056 55.9758 217.418 56.0573L209.054 57.1243L210.489 66.051L218.853 64.984ZM215.605 71.6422L211.473 72.1693L212.53 78.739L215.956 78.3019L217.053 85.1223L202.492 86.98L201.395 80.1596L205.023 79.6968L201.554 58.1322L197.674 58.6272L196.593 51.907L216.345 49.3873C217.924 49.1859 219.51 49.1371 221.103 49.2409C222.692 49.3112 224.155 49.6704 225.493 50.3186C226.826 50.9333 227.989 51.8767 228.982 53.1489C229.975 54.4211 230.644 56.1271 230.988 58.2669C231.262 59.972 231.269 61.5065 231.009 62.8704C230.776 64.1965 230.33 65.3624 229.669 66.3679C229.002 67.3401 228.155 68.1476 227.127 68.7905C226.1 69.4334 224.941 69.9053 223.653 70.2062L231.123 76.3671L235.204 75.8464L236.301 82.6669L224.057 84.2288L223.138 78.5117L215.605 71.6422Z" fill="black"/>
</g>
<path fill-rule="evenodd" clip-rule="evenodd" d="M50.7649 47.3952C49.8876 45.9571 46.3319 43.1635 48.0491 40.6355C45.2399 39.399 47.0878 35.0941 48.1611 33.3722C49.0477 31.9433 50.4196 30.8441 51.1196 29.6168C51.7262 28.5451 51.8102 27.0979 52.3328 26.1271C51.9315 25.8981 51.4275 25.779 50.9329 25.6507C50.7929 27.4643 49.7943 28.1696 48.8143 29.4336C45.6319 33.5095 43.5414 38.6571 41.4508 43.3192C40.5829 45.2519 39.7522 47.1936 38.5856 49.0072C38.483 48.5309 38.0816 47.0471 38.3149 46.2777C38.4456 45.8289 39.2296 45.261 39.5189 44.7298C41.1801 41.6064 42.5147 37.5488 44.2413 33.6469C44.9973 31.9433 45.8185 30.203 46.8358 28.2887C47.5264 26.988 49.6917 21.8221 51.1289 24.3959C51.8942 23.9013 52.2395 24.8814 52.9395 24.8356C53.3128 24.2677 53.8074 22.5549 54.778 22.4083C55.4873 22.3076 57.1486 23.7914 57.8765 24.2586C58.9685 24.9547 59.9391 25.8706 60.8817 26.2187C62.0856 26.6675 63.1775 26.7133 64.1015 27.1346C65.6414 27.849 66.8547 28.9573 67.7413 30.2579C67.5826 28.078 69.5892 27.7757 70.7464 29.0489C71.5211 28.5726 72.6037 28.8016 73.2477 29.113C73.929 26.585 76.6448 24.6432 80.0419 25.1928C80.0979 24.5241 80.4992 24.1303 80.6019 23.4983C77.802 17.6363 80.9752 11.8842 87.0695 11.124C88.1988 6.59925 90.9146 3.36598 93.9105 0.352539C95.4504 1.46082 93.3691 2.62407 92.5572 3.44841C90.4386 5.56423 88.6841 8.19299 88.2081 11.0232C89.7667 10.8217 90.9053 11.124 92.1839 11.2522C93.5932 7.89073 95.6464 5.04216 98.1942 2.60577C98.1009 2.34014 97.6436 2.15697 97.9049 1.81807C98.2316 1.53413 98.4929 2.12031 98.9689 2.01955C99.3422 1.47915 99.9488 1.1311 100.397 0.654814C100.873 0.654814 100.938 1.1311 101.293 1.28681C101.153 0.957076 101.405 0.938762 101.675 0.947921C102.599 1.24102 103.915 1.06699 104.559 1.68983C104.186 3.55834 102.207 1.75397 101.311 1.48835C101.498 2.34933 100.546 2.30349 100.294 2.81641C100.527 2.99044 100.938 2.94468 100.882 3.47592C100.593 4.31858 99.4448 4.03461 99.1088 3.43925C96.589 5.71993 94.0784 8.00982 93.2665 11.6644C97.3729 13.1482 100.35 17.2791 100.565 23.2235C100.975 34.5445 100.135 26.1362 94.2838 28.1146C91.0826 29.1954 87.3588 28.6459 85.063 27.5742C84.8763 28.0414 84.363 28.2521 84.1297 28.6826C84.6337 30.4778 83.8497 31.9708 82.7671 32.7951C84.923 35.2407 87.3495 32.328 89.9627 34.224C89.7387 34.5445 89.5054 34.8468 89.1041 35.0208C86.8549 33.0149 84.363 36.3581 81.9925 34.4987C80.7046 36.6146 77.4101 34.5995 74.6849 35.3048C76.9901 38.3365 76.5141 39.3899 79.65 41.4324C79.4166 41.7988 79.1366 42.1377 78.586 42.2476C77.1954 40.9195 76.6261 40.1867 75.7208 39.225C74.2089 37.5213 74.5916 37.8511 73.3037 37.0725C74.3209 39.8478 77.8674 42.1926 78.9313 44.9313C78.3807 45.1511 77.5594 44.7755 77.1208 44.4916C77.0554 42.2292 73.5276 40.9103 72.6783 39.1792C71.9597 37.6954 71.2971 36.2757 70.7745 34.6636C70.4385 34.4896 69.7198 34.1873 69.4865 34.2789C69.0852 38.5014 66.3787 38.6479 68.7959 46.9463C68.2919 47.0379 67.424 46.6349 67.144 46.0854C67.5173 44.3726 66.6587 42.2384 66.1454 40.2508C65.7067 38.5655 67.788 36.9809 67.4053 35.3963C66.2294 35.9184 65.8001 36.9168 64.9228 37.677C61.479 40.6813 55.0113 42.3483 49.113 41.0386C48.301 43.6398 52.1835 46.1403 51.0636 48.4851C50.9236 48.2745 50.9796 47.8348 50.6809 47.8073C50.6996 48.2103 50.373 48.4668 50.1396 48.6774C48.0584 50.5185 45.1652 51.7367 42.4587 53.0923C43.3267 51.6359 45.0346 50.9856 46.3132 49.9689C47.6291 48.9156 48.6277 47.505 50.1583 46.7357C50.4849 46.7723 50.5223 47.734 50.7556 47.4959C50.7742 47.4593 50.7743 47.4226 50.7649 47.3952ZM86.7522 14.1283C84.1764 14.0367 81.7125 15.6762 81.6658 18.4973C81.6005 22.619 84.4657 24.8172 87.8722 25.3668C88.8614 25.5225 90.7373 25.7973 91.9133 25.1837C93.2385 24.4967 93.6491 22.7839 93.4998 21.2543C93.2478 18.7079 91.232 16.0059 89.8601 15.0625C89.0108 14.4671 88.0775 14.1741 86.7522 14.1283ZM55.2633 24.1029C54.9647 24.4784 55.2167 25.3027 55.0113 25.7607C55.59 26.1546 56.3553 26.7041 57.3539 26.2461C56.7193 25.4493 55.7953 25.0005 55.2633 24.1029ZM74.7316 32.447C74.3209 32.8959 74.2929 33.6377 73.7423 33.9675C74.3209 33.995 75.9261 33.6652 76.5234 33.7019C76.0288 33.1615 75.0862 33.1432 74.7316 32.447Z" fill="black"/>
<path fill-rule="evenodd" clip-rule="evenodd" d="M94.5547 0.499016C94.9467 1.42387 97.7745 3.15451 97.8305 1.00264C96.7572 0.874439 95.572 0.343349 94.5547 0.499016Z" fill="black"/>
<path fill-rule="evenodd" clip-rule="evenodd" d="M104.429 2.41357C104.923 3.42138 106.473 5.36369 107.499 3.96193C106.874 3.03658 105.446 2.49603 104.429 2.41357Z" fill="black"/>
<path fill-rule="evenodd" clip-rule="evenodd" d="M101.031 3.86963C101.097 4.94157 102.861 7.15873 103.915 5.63786C103.14 4.82245 102.17 4.24526 101.031 3.86963Z" fill="black"/>
<path fill-rule="evenodd" clip-rule="evenodd" d="M107.639 4.35522C107.741 5.38135 109.524 7.58024 110.522 6.12351C109.879 5.16152 108.74 4.77667 107.639 4.35522Z" fill="black"/>
<path fill-rule="evenodd" clip-rule="evenodd" d="M103.869 6.15039C103.832 7.26829 104.877 8.02885 105.484 8.75273C106.072 8.76189 106.436 8.5878 106.576 8.2396C105.904 7.26831 104.952 6.62687 103.869 6.15039Z" fill="black"/>
<path fill-rule="evenodd" clip-rule="evenodd" d="M110.681 6.61768C110.439 7.54302 112.174 10.0076 113.276 8.61495C112.669 7.6438 111.68 7.12158 110.681 6.61768Z" fill="black"/>
<path fill-rule="evenodd" clip-rule="evenodd" d="M106.034 9.10892C106.361 10.7766 107.733 13.8371 109.422 11.7479C108.647 10.5567 107.574 9.72288 106.622 8.74243C106.305 8.76992 106.24 8.99896 106.034 9.10892Z" fill="black"/>
<path fill-rule="evenodd" clip-rule="evenodd" d="M113.024 9.25553C113.612 10.7399 114.928 14.0936 116.636 12.0778C115.871 10.7674 114.592 10.0619 113.622 8.98982C113.258 8.944 113.202 9.14557 113.024 9.25553Z" fill="black"/>
<path fill-rule="evenodd" clip-rule="evenodd" d="M89.8601 15.0532C91.232 15.9966 93.2385 18.6985 93.4998 21.2449C93.6492 22.7745 93.2386 24.4965 91.9133 25.1743C90.728 25.7879 88.8615 25.5223 87.8722 25.3575C84.4657 24.8079 81.6099 22.6188 81.6658 18.4879C81.7125 15.6668 84.1764 14.0273 86.7522 14.1189C88.0775 14.1738 89.0108 14.467 89.8601 15.0532ZM90.8773 19.9626C92.0626 18.2131 89.6734 15.9599 88.2922 17.0407C86.9203 18.1215 88.7214 21.0342 90.8773 19.9626Z" fill="white"/>
<path fill-rule="evenodd" clip-rule="evenodd" d="M88.2919 17.0411C89.6732 15.9599 92.0624 18.2048 90.8771 19.9641C88.7212 21.0362 86.92 18.1224 88.2919 17.0411Z" fill="black"/>
<path fill-rule="evenodd" clip-rule="evenodd" d="M55.2637 24.1028C54.9651 24.4784 55.217 25.303 55.0117 25.7611C55.5904 26.155 56.3557 26.7047 57.3543 26.2466C56.7196 25.4495 55.7957 25.0006 55.2637 24.1028Z" fill="white"/>
<path fill-rule="evenodd" clip-rule="evenodd" d="M74.7315 32.4473C74.3208 32.896 74.2928 33.6376 73.7422 33.9673C74.3208 33.9948 75.926 33.6651 76.5233 33.7018C76.0287 33.1615 75.0861 33.1432 74.7315 32.4473Z" fill="white"/>
<path fill-rule="evenodd" clip-rule="evenodd" d="M88.9736 35.6527C90.0749 37.6952 91.3628 39.5179 93.22 40.6628C92.4454 38.7852 91.0082 36.7427 90.1215 34.6177C89.5709 34.8375 89.2723 35.2405 88.9736 35.6527Z" fill="black"/>
<path fill-rule="evenodd" clip-rule="evenodd" d="M78.875 42.9435C79.9949 45.215 81.5069 47.8438 83.4294 48.9429C82.2721 46.6989 81.0962 44.4823 80.1349 42.0093C79.4723 42.1192 79.1457 42.513 78.875 42.9435Z" fill="black"/>
<path fill-rule="evenodd" clip-rule="evenodd" d="M28.8701 53.9166C32.5939 52.79 35.8137 51.2604 38.3989 49.2178C38.4269 48.6591 38.0723 48.5492 38.0723 48.0271C37.9976 48.0363 37.9323 48.0454 37.867 48.0454C36.187 48.7507 34.9085 50.0788 33.3779 51.0313C31.8566 51.9748 30.1114 52.6343 28.8701 53.9166Z" fill="black"/>
<path fill-rule="evenodd" clip-rule="evenodd" d="M77.6338 45.3711C78.0164 47.8258 77.9978 50.601 78.2964 53.0741C79.1364 51.0865 79.491 48.2105 79.1084 45.5359C78.6791 45.3985 78.0164 45.2245 77.6338 45.3711Z" fill="black"/>
<path fill-rule="evenodd" clip-rule="evenodd" d="M64.2041 54.0355C66.192 52.4418 67.2372 50.097 68.2638 47.7155C68.0492 47.285 67.3866 46.7996 67.0413 46.9187C66.3693 48.0361 66.1173 49.3184 65.632 50.5275C65.156 51.6815 64.5028 52.799 64.2041 54.0355Z" fill="black"/>
<path fill-rule="evenodd" clip-rule="evenodd" d="M93.5742 42.0649C95.2728 43.0545 97.6527 43.2378 100.238 43.1645C99.5379 42.3398 98.2313 42.3398 97.2047 42.0191C96.0754 41.6617 95.0115 41.1486 94.0502 40.6904C93.9289 40.6904 93.8729 40.7271 93.8542 40.8096C93.5089 41.0203 93.6769 41.6526 93.5742 42.0649Z" fill="black"/>
<path fill-rule="evenodd" clip-rule="evenodd" d="M83.7379 48.9155C83.6726 49.3554 83.4766 49.7036 83.5606 50.2625C85.5952 51.3071 88.451 51.9668 91.1108 51.8844C90.1495 51.0963 88.787 50.9681 87.5364 50.4916C86.2391 49.9968 85.1379 49.108 83.7379 48.9155Z" fill="black"/>
<defs>
<filter id="filter0_d_1129_6591" x="0.162109" y="22.147" width="299.27" height="134.147" filterUnits="userSpaceOnUse" color-interpolation-filters="sRGB">
<feFlood flood-opacity="0" result="BackgroundImageFix"/>
<feColorMatrix in="SourceAlpha" type="matrix" values="0 0 0 0 0 0 0 0 0 0 0 0 0 0 0 0 0 0 127 0" result="hardAlpha"/>
<feOffset dy="10"/>
<feGaussianBlur stdDeviation="5"/>
<feComposite in2="hardAlpha" operator="out"/>
<feColorMatrix type="matrix" values="0 0 0 0 0 0 0 0 0 0 0 0 0 0 0 0 0 0 0.25 0"/>
<feBlend mode="normal" in2="BackgroundImageFix" result="effect1_dropShadow_1129_6591"/>
<feBlend mode="normal" in="SourceGraphic" in2="effect1_dropShadow_1129_6591" result="shape"/>
</filter>
</defs>
</svg>
