<svg width="1728" height="639" viewBox="0 0 1728 639" fill="none" xmlns="http://www.w3.org/2000/svg">
<path d="M1289.79 121.551C1290.76 126.766 1293.17 131.825 1298.64 132.957C1310.82 135.493 1354.45 125.856 1380.84 123.58C1407.22 121.304 1474.2 118.768 1481.3 115.217C1488.4 111.666 1526.45 72.0899 1526.71 64.9887C1526.96 57.8876 1516.31 46.4685 1516.31 46.4685" fill="#7A603E"/>
<path d="M1289.79 121.551C1290.76 126.766 1293.17 131.825 1298.64 132.957C1310.82 135.493 1354.45 125.856 1380.84 123.58C1407.22 121.304 1474.2 118.768 1481.3 115.217C1488.4 111.666 1526.45 72.0899 1526.71 64.9887C1526.96 57.8876 1516.31 46.4685 1516.31 46.4685" stroke="#100B14" stroke-width="1.6748" stroke-miterlimit="10"/>
<path d="M1381.17 1.06543C1396.38 1.57265 1395.06 11.7172 1395.06 11.7172L1425.5 388.637L1414.72 390.874L1381.17 1.06543Z" fill="#7A603E" stroke="#100B14" stroke-width="1.6748" stroke-miterlimit="10"/>
<path d="M1417.91 391.512C1417.91 391.512 1388.6 1.80679 1384.78 1.16951C1380.96 0.532229 1368.21 1.80676 1361.21 3.08132C1354.2 4.35589 1353.57 10.0784 1353.57 10.0784L1388.61 392.786L1417.91 391.512Z" fill="#F2BE80" stroke="#100B14" stroke-width="1.6748" stroke-miterlimit="10"/>
<path d="M1277.09 67.7846C1277.09 67.7846 1273.28 55.6112 1279.89 54.3366C1286.48 53.0751 1370.46 39.367 1370.46 39.367C1370.46 39.367 1385.94 38.5997 1392.53 37.5852C1399.13 36.5708 1449.35 18.8179 1469.4 19.3251C1489.44 19.8323 1518.1 47.2355 1519.89 50.0187C1528.75 58.9017 1495.79 98.2181 1480.05 106.594C1472.95 110.782 1430.82 114.046 1390.24 118.26C1349.65 122.474 1310.58 127.637 1310.58 127.637C1310.58 127.637 1289.02 131.695 1286.73 112.42C1284.45 93.1589 1277.09 67.7846 1277.09 67.7846Z" fill="#F2BE80" stroke="#100B14" stroke-width="1.6748" stroke-miterlimit="10"/>
<path d="M1374.51 51.1636C1374.51 53.3355 1372.75 55.0913 1370.58 55.0913C1368.41 55.0913 1366.65 53.3355 1366.65 51.1636C1366.65 48.9916 1368.41 47.2358 1370.58 47.2358C1372.75 47.2358 1374.51 48.9916 1374.51 51.1636Z" stroke="#100B14" stroke-width="1.6748" stroke-miterlimit="10"/>
<path d="M1380.22 109.637C1380.22 111.809 1378.46 113.565 1376.29 113.565C1374.12 113.565 1372.36 111.809 1372.36 109.637C1372.36 107.466 1374.12 105.71 1376.29 105.71C1378.46 105.71 1380.22 107.466 1380.22 109.637Z" stroke="#100B14" stroke-width="1.6748" stroke-miterlimit="10"/>
<path d="M1309.51 81.4872C1310.38 81.3624 1311.08 81.1679 1311.61 80.9038C1312.14 80.6132 1312.53 80.2868 1312.8 79.9247C1313.07 79.5361 1313.23 79.1231 1313.27 78.6856C1313.34 78.218 1313.34 77.7598 1313.28 77.311C1313.18 76.6247 1312.97 76.076 1312.64 75.6651C1312.34 75.2504 1311.96 74.9413 1311.5 74.7378C1311.06 74.5306 1310.57 74.4119 1310.03 74.382C1309.51 74.3482 1309 74.3673 1308.5 74.4391L1301.93 75.3807L1302.94 82.4288L1309.51 81.4872ZM1306.88 86.7944L1303.63 87.2595L1304.38 92.4466L1307.07 92.0609L1307.84 97.4459L1296.4 99.0851L1295.62 93.7001L1298.48 93.2917L1296.04 76.2654L1292.99 76.7022L1292.23 71.3963L1307.75 69.1729C1308.99 68.9951 1310.23 68.9381 1311.48 69.0017C1312.73 69.039 1313.87 69.3063 1314.91 69.8037C1315.95 70.2747 1316.85 71.0079 1317.61 72.0032C1318.37 72.9985 1318.87 74.3409 1319.12 76.0303C1319.31 77.3766 1319.29 78.5909 1319.07 79.6734C1318.87 80.7256 1318.51 81.6535 1317.98 82.457C1317.44 83.2341 1316.77 83.883 1315.95 84.4037C1315.14 84.9245 1314.22 85.3114 1313.21 85.5644L1318.99 90.3536L1322.19 89.8942L1322.96 95.2792L1313.34 96.6575L1312.7 92.1436L1306.88 86.7944ZM1344.3 89.6375C1343.84 90.2411 1343.3 90.79 1342.67 91.2843C1342.04 91.7521 1341.36 92.1729 1340.63 92.5465C1339.93 92.9164 1339.19 93.2108 1338.41 93.4298C1337.64 93.6753 1336.9 93.849 1336.19 93.9511C1334.28 94.2234 1332.61 94.1938 1331.16 93.8625C1329.71 93.5048 1328.47 92.9151 1327.43 92.0933C1326.43 91.2678 1325.62 90.2518 1325.02 89.0452C1324.44 87.8085 1324.04 86.451 1323.83 84.9727C1323.61 83.4417 1323.66 82.0199 1323.98 80.7074C1324.3 79.3684 1324.85 78.186 1325.62 77.1599C1326.41 76.13 1327.42 75.2849 1328.65 74.6244C1329.9 73.9338 1331.33 73.4732 1332.94 73.2425C1334.57 73.0081 1336.07 73.0226 1337.43 73.2861C1338.79 73.5495 1339.96 74.1223 1340.95 75.0044C1341.96 75.8563 1342.75 77.0364 1343.31 78.5447C1343.88 80.053 1344.18 81.9366 1344.2 84.1956L1329.75 86.2659C1330.03 87.2501 1330.65 88.0097 1331.61 88.5449C1332.6 89.0499 1333.93 89.1832 1335.59 88.945C1336.38 88.8316 1337.24 88.5597 1338.18 88.1294C1339.14 87.6954 1339.93 87.152 1340.53 86.4993L1344.3 89.6375ZM1338.53 80.7244C1338.47 80.1135 1338.29 79.6139 1338 79.2256C1337.72 78.8335 1337.36 78.5357 1336.9 78.3322C1336.46 78.0986 1335.95 77.9554 1335.38 77.9029C1334.83 77.8465 1334.26 77.8618 1333.65 77.9488C1332.44 78.1227 1331.39 78.5549 1330.52 79.2454C1329.65 79.9359 1329.18 80.8789 1329.11 82.0744L1338.53 80.7244ZM1366.38 86.3129C1365.44 87.6596 1364.33 88.6669 1363.05 89.3349C1361.77 89.9765 1360.39 90.4032 1358.91 90.615C1357.41 90.8305 1355.97 90.8348 1354.59 90.6279C1353.21 90.3946 1351.97 89.9256 1350.87 89.2208C1349.77 88.516 1348.86 87.5565 1348.12 86.3425C1347.38 85.1284 1346.88 83.6503 1346.63 81.9081C1346.36 79.981 1346.44 78.3122 1346.88 76.9016C1347.36 75.4872 1348.05 74.2971 1348.96 73.3313C1349.87 72.3655 1350.94 71.6203 1352.15 71.0956C1353.37 70.571 1354.6 70.2198 1355.84 70.0421C1357.19 69.8492 1358.47 69.7997 1359.7 69.8935C1360.92 69.9609 1362.09 70.2245 1363.21 70.6841L1363.8 76.8216L1359.05 77.5023L1358.68 74.8889C1358.29 74.8363 1357.89 74.827 1357.46 74.8611C1357.03 74.8688 1356.71 74.8878 1356.5 74.918C1355.55 75.0542 1354.77 75.3279 1354.15 75.7392C1353.54 76.1505 1353.07 76.6353 1352.75 77.1935C1352.42 77.7518 1352.21 78.3741 1352.12 79.0605C1352.03 79.7469 1352.04 80.4201 1352.13 81.08C1352.39 82.9015 1353.07 84.1382 1354.16 84.7902C1355.25 85.4422 1356.62 85.6491 1358.29 85.4109C1359 85.3088 1359.74 85.0954 1360.5 84.7708C1361.26 84.4198 1361.94 83.8501 1362.56 83.0616L1366.38 86.3129ZM1379.53 71.9826L1378.85 67.1914L1389.5 65.6657L1390.18 70.4568L1387.81 70.7971L1382.28 91.147C1381.88 92.7122 1381.3 93.9268 1380.54 94.7907C1379.77 95.681 1378.89 96.2923 1377.89 96.6246C1376.92 96.9794 1375.87 97.0892 1374.74 96.9539C1373.65 96.8411 1372.57 96.5512 1371.51 96.0839L1372.68 91.3091C1373.05 91.4183 1373.44 91.5106 1373.85 91.5858C1374.27 91.6611 1374.67 91.6572 1375.06 91.574C1375.46 91.5173 1375.81 91.3456 1376.12 91.0589C1376.46 90.7683 1376.72 90.3138 1376.9 89.6953L1377.37 87.0816L1368.54 73.6782L1365.85 74.0639L1365.15 69.154L1375.95 67.6055L1376.65 72.4362L1374.63 72.7255L1377.42 77.2952L1379.54 81.356L1380.47 76.8188L1381.67 71.6763L1379.53 71.9826ZM1407 78.7567C1408.55 78.5336 1409.71 77.8958 1410.48 76.8433C1411.24 75.7644 1411.51 74.4199 1411.28 72.8096C1411.05 71.2258 1410.44 70.0739 1409.45 69.354C1408.48 68.6039 1407.23 68.3385 1405.7 68.5578C1404.85 68.6788 1404.13 68.9299 1403.54 69.311C1402.98 69.6883 1402.52 70.1448 1402.16 70.6805C1401.83 71.2124 1401.61 71.797 1401.48 72.4344C1401.36 73.0718 1401.34 73.7072 1401.43 74.3408C1401.52 74.9479 1401.7 75.5418 1401.97 76.1225C1402.27 76.6994 1402.65 77.2102 1403.12 77.655C1403.58 78.0735 1404.14 78.3976 1404.8 78.6274C1405.44 78.8308 1406.18 78.8739 1407 78.7567ZM1391.83 70.2206L1391.15 65.4294L1398.95 64.3121L1399.72 67.1911C1400.4 66.1236 1401.25 65.2219 1402.24 64.4862C1403.27 63.7466 1404.55 63.2672 1406.08 63.0479C1409.04 62.6243 1411.45 63.1816 1413.31 64.7195C1415.2 66.2273 1416.37 68.631 1416.85 71.9307C1417.31 75.1248 1416.81 77.7554 1415.35 79.8226C1413.9 81.8898 1411.52 83.1598 1408.22 83.6324C1407.22 83.7761 1406.13 83.7426 1404.97 83.5318C1403.84 83.3173 1402.74 82.7747 1401.67 81.9039L1402.53 87.9225L1405.38 87.5141L1406.09 92.4636L1395.48 93.9837L1394.77 89.0342L1397.22 88.6826L1394.52 69.8349L1391.83 70.2206ZM1429.77 64.8669C1428.95 64.9842 1428.22 65.2239 1427.57 65.5862C1426.92 65.9485 1426.38 66.4031 1425.95 66.9501C1425.54 67.4934 1425.25 68.1138 1425.08 68.8116C1424.91 69.4829 1424.87 70.1882 1424.98 70.9273C1425.2 72.4319 1425.85 73.6178 1426.94 74.4847C1428.04 75.3253 1429.4 75.6284 1431.04 75.3939C1431.91 75.2691 1432.67 75.0256 1433.31 74.6633C1433.96 74.301 1434.49 73.8483 1434.9 73.3051C1435.31 72.7618 1435.6 72.1546 1435.77 71.4832C1435.94 70.7855 1435.97 70.067 1435.86 69.3279C1435.67 67.7667 1435.05 66.5752 1434.02 65.7535C1432.98 64.9053 1431.56 64.6098 1429.77 64.8669ZM1444.47 72.9846L1445.16 77.7757L1437.67 78.8477L1437 76.6814C1436.02 77.9527 1434.97 78.8582 1433.83 79.3979C1432.69 79.9113 1431.49 80.2587 1430.22 80.4402C1428.82 80.6406 1427.52 80.5977 1426.32 80.3116C1425.13 80.0254 1424.06 79.5186 1423.12 78.7911C1422.17 78.0372 1421.39 77.072 1420.76 75.8957C1420.14 74.7193 1419.71 73.3259 1419.48 71.7157C1419.29 70.3958 1419.32 69.0853 1419.56 67.7841C1419.83 66.4792 1420.31 65.2929 1420.99 64.2254C1421.67 63.1315 1422.54 62.1978 1423.62 61.4243C1424.72 60.6206 1426 60.0732 1427.47 59.7823C1428.84 59.5857 1430.13 59.5493 1431.33 59.6733C1432.56 59.7935 1433.71 60.3286 1434.79 61.2786L1434.74 59.2251L1442.18 58.1588L1442.89 63.0687L1440.39 63.426L1441.82 73.3646L1444.47 72.9846ZM1448.94 62.0394L1446.41 62.4024L1445.72 57.6113L1452.97 56.5733L1453.75 58.3606C1454.4 57.4062 1455.15 56.6781 1456.02 56.1762C1456.9 55.6743 1457.86 55.3477 1458.91 55.1964C1459.79 55.0716 1460.72 55.0864 1461.71 55.2406C1462.73 55.3911 1463.67 55.7546 1464.53 56.3313L1462.63 61.4119C1462.07 61.0614 1461.45 60.841 1460.76 60.7508C1460.1 60.6304 1459.44 60.6174 1458.78 60.7119C1458.22 60.7914 1457.69 60.9481 1457.19 61.1821C1456.71 61.4123 1456.3 61.7406 1455.95 62.1668C1455.61 62.5931 1455.35 63.1287 1455.17 63.7737C1455.02 64.3885 1455 65.1314 1455.13 66.0025L1455.9 71.3876L1458.63 70.9962L1459.31 75.7477L1448.07 77.3586L1447.39 72.6071L1450.4 72.176L1448.94 62.0394ZM1486.17 69.1529C1485.23 70.4996 1484.12 71.5069 1482.84 72.1749C1481.56 72.8165 1480.18 73.2432 1478.7 73.4549C1477.2 73.6705 1475.76 73.6748 1474.38 73.4679C1473 73.2346 1471.76 72.7656 1470.67 72.0608C1469.57 71.356 1468.65 70.3965 1467.91 69.1825C1467.17 67.9684 1466.67 66.4903 1466.43 64.748C1466.15 62.821 1466.23 61.1522 1466.68 59.7416C1467.15 58.3272 1467.84 57.1371 1468.75 56.1713C1469.66 55.2055 1470.73 54.4603 1471.95 53.9356C1473.17 53.411 1474.4 53.0598 1475.64 52.882C1476.98 52.6892 1478.27 52.6397 1479.49 52.7335C1480.72 52.8009 1481.88 53.0644 1483 53.5241L1483.6 59.6616L1478.85 60.3422L1478.47 57.7289C1478.09 57.6763 1477.68 57.667 1477.26 57.7011C1476.83 57.7088 1476.51 57.7278 1476.29 57.758C1475.34 57.8941 1474.56 58.1679 1473.95 58.5792C1473.33 58.9905 1472.86 59.4753 1472.54 60.0335C1472.21 60.5918 1472.01 61.2141 1471.92 61.9005C1471.83 62.5869 1471.83 63.2601 1471.92 63.92C1472.18 65.7414 1472.86 66.9782 1473.95 67.6302C1475.04 68.2822 1476.42 68.4891 1478.08 68.2509C1478.79 68.1488 1479.53 67.9354 1480.29 67.6108C1481.05 67.2598 1481.74 66.69 1482.35 65.9016L1486.17 69.1529Z" fill="black"/>
<path d="M-18.7597 638.5L1743.5 638.5C1743.5 638.5 1917.87 654.337 1721.91 343.31C1525.94 32.2834 745.095 454.825 -18.7592 249.799C-782.613 44.7723 -18.7597 638.5 -18.7597 638.5Z" fill="#4D9C18"/>
<path fill-rule="evenodd" clip-rule="evenodd" d="M228.453 232.223C229.389 232.122 229.879 232.453 230.037 233.087C225.76 252.196 220.879 271.189 219.151 293.797C219.021 295.381 220.332 299.773 217.322 300.162C216.789 300.148 216.256 300.133 215.709 300.105C211.447 299.802 213.52 293.812 213.578 291.997C214.24 270.657 223.701 250.583 228.453 232.223Z" fill="#4D9C18"/>
<path fill-rule="evenodd" clip-rule="evenodd" d="M740.125 267.293C741.061 267.192 741.551 267.524 741.709 268.157C737.432 287.266 732.551 306.26 730.823 328.868C730.693 330.452 732.003 334.844 728.994 335.232C728.461 335.218 727.928 335.204 727.381 335.175C723.119 334.872 725.192 328.882 725.25 327.068C725.912 305.727 735.373 285.653 740.125 267.293Z" fill="#4D9C18"/>
<path fill-rule="evenodd" clip-rule="evenodd" d="M1140.49 163.076C1145.07 158.929 1147.53 152.694 1156.32 152.751C1152.04 155.804 1151.62 162.73 1150.12 168.577C1154.5 169.498 1153.32 163.551 1154.26 161.002C1155.37 157.964 1157.68 155.876 1157.01 154.119C1162 154.407 1158.38 164.602 1156.32 167.886C1157.42 171.586 1161.89 171.946 1160.45 178.21C1152.2 182.055 1144.46 174.841 1138.43 172.018C1149.53 201.02 1137.45 240.375 1129.49 266.972C1127.65 266.972 1125.82 266.972 1123.99 266.972C1124.41 248.122 1129.04 233.492 1133.62 218.804C1133.26 231.764 1128.42 249.03 1128.12 262.148C1137.45 238.662 1147.6 201.524 1137.06 172.71C1135.21 179.794 1135.06 188.593 1130.87 193.345C1123.2 195.058 1124.26 188.017 1121.93 184.402C1123.74 185.022 1124.38 181.638 1126.75 178.902C1129.04 176.238 1135.46 172.911 1130.89 172.018C1132.34 170.377 1133.45 174.063 1135.02 171.327C1135.13 169.83 1132.57 171.025 1131.58 170.636C1135.03 168.735 1129.88 168.879 1126.77 167.194C1120.13 163.609 1109.95 149.151 1128.83 149.295C1132.61 147.582 1132.7 143.607 1136.4 143.103C1147.39 141.634 1143.87 156.207 1140.49 163.076ZM1139.8 143.809C1137.37 146.646 1136.21 150.764 1132.22 152.06C1132.6 153.284 1132.58 154.911 1133.61 155.502C1136.14 151.844 1140.23 149.742 1141.87 145.177C1140.88 145.033 1140.71 144.054 1139.8 143.809ZM1138.43 143.809C1134.26 144.14 1130.58 148.143 1131.55 151.369C1133.56 151.326 1137.35 147.121 1138.43 143.809ZM1130.86 150.692C1127.47 149.684 1120.94 149.655 1119.16 152.766C1115.02 160.052 1128.47 168.39 1135.68 169.282C1134.93 162.226 1132.94 156.409 1130.86 150.692ZM1150.12 166.518C1149.84 161.406 1153.84 156.956 1152.87 153.442C1152.43 154.364 1151.41 154.724 1150.12 154.81C1150.02 158.785 1145.17 166.604 1148.06 168.577C1150.51 169.657 1148.48 166.244 1150.12 166.518ZM1149.43 156.207C1144.44 157.172 1145.39 164.084 1143.93 168.591C1149.1 167.799 1146.24 158.972 1149.43 156.207ZM1141.87 169.268C1144.64 168.346 1144.51 160.916 1144.62 159.634C1143.44 161.852 1138.22 166.762 1141.87 169.268ZM1153.57 168.591C1156.63 166.374 1159.61 160.441 1157.7 155.516C1155.73 159.289 1154.53 163.825 1153.57 168.591ZM1124.66 183.726C1124.54 188.434 1124.29 193.273 1129.47 192.668C1134.01 188.938 1135.21 178.225 1134.98 172.033C1131.58 175.95 1127.83 179.55 1124.66 183.726ZM1141.87 152.074C1140.25 155.804 1133.87 157.417 1134.99 161.708C1138.27 159.937 1143.31 156.294 1141.87 152.074ZM1136.36 165.841C1137.87 163.666 1142.05 160.542 1140.49 157.59C1139.48 160.254 1133.77 161.838 1136.36 165.841ZM1137.05 168.591C1136.93 166.878 1138.13 166.46 1138.43 165.15C1136.39 164.329 1135.46 168.044 1137.05 168.591ZM1134.3 158.266C1136.47 157.215 1144.26 152.204 1141.87 146.574C1140.59 151.34 1133.12 153.298 1134.3 158.266ZM1137.74 169.959C1140.35 171.342 1140.46 166.834 1139.12 166.518C1139.63 168.649 1137.22 167.842 1137.74 169.959Z" fill="#4D9C18"/>
<path fill-rule="evenodd" clip-rule="evenodd" d="M208.927 142.93C209.791 143.16 209.416 144.542 210.482 144.586C212.627 193.373 210.511 246.149 208.495 298.824C203.411 298.651 198.328 298.478 193.245 298.306C193.519 264.106 192.813 230.813 189.328 200.126C198.717 225.816 197.162 261.744 199.005 294.475C208.25 249.677 207.731 194.179 208.927 142.93Z" fill="#4D9C18"/>
<path fill-rule="evenodd" clip-rule="evenodd" d="M720.598 180C721.462 180.23 721.088 181.613 722.154 181.656C724.299 230.443 722.182 283.219 720.166 335.894C715.083 335.722 710 335.549 704.917 335.376C705.19 301.176 704.485 267.883 701 237.197C710.389 262.886 708.834 298.814 710.677 331.546C719.922 286.747 719.403 231.25 720.598 180Z" fill="#4D9C18"/>
<path fill-rule="evenodd" clip-rule="evenodd" d="M124.586 232.512C124.903 227.789 120.597 217.593 123.794 210.105C126.875 216.686 126.472 226.521 126.789 235.68C118.379 231.101 111.323 225.254 112.144 212.035C117.674 217.579 120.007 226.089 124.586 232.512Z" fill="#4D9C18"/>
<path fill-rule="evenodd" clip-rule="evenodd" d="M106.658 231.864C111.899 236.27 118.063 239.813 124.73 242.894C127.869 231.59 131.656 220.992 132.348 207.082C126.458 213.173 112.144 207.024 109.423 197.491C115.053 202.416 122.469 209.098 132.405 205.483C129.957 201.192 124.932 202.718 121.36 200.299C116.306 196.872 114.117 190.421 113.124 183.192C118.812 189.773 122.7 198.024 130.922 202.229C132.564 197.03 125.94 190.032 125.162 182.789C124.816 179.578 123.909 172.694 127.97 170.851C127.783 179.563 129.367 186.605 131.224 193.416C133.6 187.656 133.86 179.635 135.127 172.694C137.863 176.438 137.69 181.262 137.099 185.582C136.264 191.688 130.936 195.936 132.578 200.659C135.919 193.992 138.396 186.418 139.764 177.648C141.895 181.464 141.981 187.814 140.872 192.12C139.504 197.448 134.81 199.075 133.312 202.286C138.496 201.177 145.567 194.928 146.661 186.705C150.333 188.808 148.576 195.302 147.079 197.938C144.789 201.998 138.54 204.13 134.047 203.914C133.989 216.298 131.268 225.83 128.186 234.989C130.994 234.355 133.615 230.107 135.688 226.421C137.863 222.533 138.482 217.579 141.679 215.405C143.364 230.755 133.399 233.65 127.207 240.576C136.581 240.648 144.818 232.31 151.716 226.968C149.224 237.61 139.447 244.766 127.149 242.174C123.29 251.952 126.285 264.682 126.847 275.035C129.597 274.445 132.924 271.018 135.127 267.302C137.344 263.573 137.373 257.942 141.117 256.286C141.808 268.915 136.869 275.525 126.804 276.648C127.668 282.034 128.316 287.649 128.632 293.539C125.464 291.062 127.005 284.208 125.882 279.816C117.53 282.998 108.559 278.102 105.304 271.91C100.711 278.059 100.308 288.686 93.3955 292.358C97.8307 284.697 106.845 272.126 99.1699 263.688C100.898 264.653 101.733 266.453 103.864 267.058C106.643 263.674 106.802 257.467 108.357 252.773C111.554 256.301 113.397 260.923 115.96 265.056C118.495 269.117 121.087 273.264 124.384 276.562C117.775 275.496 111.439 267.475 108.904 260.002C106.24 261.312 106.788 266.021 105.405 268.699C110.431 273.307 115.802 277.584 125.133 278.189C125.68 269.074 122.095 254.99 124.687 243.701C116.94 241.397 108.242 239.971 106.658 231.864Z" fill="#4D9C18"/>
<path fill-rule="evenodd" clip-rule="evenodd" d="M981.586 252.512C981.903 247.789 977.597 237.593 980.794 230.105C983.875 236.686 983.472 246.521 983.789 255.68C975.379 251.101 968.323 245.254 969.144 232.035C974.674 237.579 977.007 246.089 981.586 252.512Z" fill="#4D9C18"/>
<path fill-rule="evenodd" clip-rule="evenodd" d="M963.658 251.864C968.899 256.27 975.063 259.813 981.73 262.894C984.869 251.59 988.656 240.992 989.348 227.082C983.458 233.173 969.144 227.024 966.423 217.491C972.053 222.416 979.469 229.098 989.405 225.483C986.957 221.192 981.932 222.718 978.36 220.299C973.306 216.872 971.117 210.421 970.124 203.192C975.812 209.773 979.7 218.024 987.922 222.229C989.564 217.03 982.94 210.032 982.162 202.789C981.816 199.578 980.909 192.694 984.97 190.851C984.783 199.563 986.367 206.605 988.224 213.416C990.6 207.656 990.86 199.635 992.127 192.694C994.863 196.438 994.69 201.262 994.099 205.582C993.264 211.688 987.936 215.936 989.578 220.659C992.919 213.992 995.396 206.418 996.764 197.648C998.895 201.464 998.981 207.814 997.872 212.12C996.504 217.448 991.81 219.075 990.312 222.286C995.496 221.177 1002.57 214.928 1003.66 206.705C1007.33 208.808 1005.58 215.302 1004.08 217.938C1001.79 221.998 995.54 224.13 991.047 223.914C990.989 236.298 988.268 245.83 985.186 254.989C987.994 254.355 990.615 250.107 992.688 246.421C994.863 242.533 995.482 237.579 998.679 235.405C1000.36 250.755 990.399 253.65 984.207 260.576C993.581 260.648 1001.82 252.31 1008.72 246.968C1006.22 257.61 996.447 264.766 984.149 262.174C980.29 271.952 983.285 284.682 983.847 295.035C986.597 294.445 989.924 291.018 992.127 287.302C994.344 283.573 994.373 277.942 998.117 276.286C998.808 288.915 993.869 295.525 983.804 296.648C984.668 302.034 985.316 307.649 985.632 313.539C982.464 311.062 984.005 304.208 982.882 299.816C974.53 302.998 965.559 298.102 962.304 291.91C957.711 298.059 957.308 308.686 950.396 312.358C954.831 304.697 963.845 292.126 956.17 283.688C957.898 284.653 958.733 286.453 960.864 287.058C963.643 283.674 963.802 277.467 965.357 272.773C968.554 276.301 970.397 280.923 972.96 285.056C975.495 289.117 978.087 293.264 981.384 296.562C974.775 295.496 968.439 287.475 965.904 280.002C963.24 281.312 963.788 286.021 962.405 288.699C967.431 293.307 972.802 297.584 982.133 298.189C982.68 289.074 979.095 274.99 981.687 263.701C973.94 261.397 965.242 259.971 963.658 251.864Z" fill="#4D9C18"/>
<path fill-rule="evenodd" clip-rule="evenodd" d="M68.5264 78C72.256 79.1664 67.4752 89.0592 67.9792 94.0416C65.5456 90.2688 67.7776 82.0464 68.5264 78Z" fill="#4D9C18"/>
<path fill-rule="evenodd" clip-rule="evenodd" d="M56.7902 91.7664C71.1038 63.5712 58.403 92.6449 57.9998 94.4017C57.4238 96.8497 55.9694 93.3792 56.7902 91.7664Z" fill="#4D9C18"/>
<path fill-rule="evenodd" clip-rule="evenodd" d="M80.0613 84.811C81.2709 87.259 78.3045 94.7039 76.4181 97.5263C74.1285 93.9119 78.5781 88.051 80.0613 84.811Z" fill="#4D9C18"/>
<path fill-rule="evenodd" clip-rule="evenodd" d="M90.3139 98.0017C91.0627 100.32 85.5331 105.418 79.4131 104.064C83.0419 102.019 87.2611 100.623 90.3139 98.0017Z" fill="#4D9C18"/>
<path fill-rule="evenodd" clip-rule="evenodd" d="M71.3639 279.283C67.4471 253.291 75.4823 217.925 70.0823 190.421C66.2231 170.794 56.6183 157.272 60.3047 131.237C60.2615 128.587 61.6727 129.466 61.3703 131.28C61.3127 133.066 61.2551 134.837 61.1975 136.622C61.0823 140.179 60.9527 143.75 60.8375 147.307C64.8119 167.712 75.2951 194.496 74.3159 223.742C73.7543 240.36 73.4087 272.314 71.3351 280.363C71.4071 280.018 71.2919 279.629 71.3639 279.283Z" fill="#4D9C18"/>
<path d="M65.3733 122.568C68.7285 123.403 77.3541 110.832 74.6613 120.207C73.4661 130.143 65.7621 128.083 63.0117 124.224" fill="#97C56A"/>
<path d="M65.3733 122.568C68.7285 123.403 77.3541 110.832 74.6613 120.207C73.4661 130.143 65.7621 128.083 63.0117 124.224" stroke="#4D9C18" stroke-width="1.5874" stroke-miterlimit="10"/>
<path d="M65.4738 137.04C67.5474 137.141 70.9746 133.224 69.6066 131.151C67.0002 127.205 63.1122 135.571 61.053 136.551C51.5778 141.072 49.3458 127.45 48.6402 120.927C48.0498 115.411 46.4226 111.48 44.0898 118.954C36.9474 141.879 49.8066 138.696 57.2514 140.813" fill="#97C56A"/>
<path d="M65.4738 137.04C67.5474 137.141 70.9746 133.224 69.6066 131.151C67.0002 127.205 63.1122 135.571 61.053 136.551C51.5778 141.072 49.3458 127.45 48.6402 120.927C48.0498 115.411 46.4226 111.48 44.0898 118.954C36.9474 141.879 49.8066 138.696 57.2514 140.813" stroke="#4D9C18" stroke-width="1.5874" stroke-miterlimit="10"/>
<path d="M63.2271 117.859C58.2303 116.765 59.1231 109.45 61.3983 106.325C61.6863 106.368 62.6367 106.368 62.9391 106.354C63.8607 109.723 63.3855 113.251 63.2703 116.707" fill="#97C56A"/>
<path d="M63.2271 117.859C58.2303 116.765 59.1231 109.45 61.3983 106.325C61.6863 106.368 62.6367 106.368 62.9391 106.354C63.8607 109.723 63.3855 113.251 63.2703 116.707" stroke="#4D9C18" stroke-width="1.5874" stroke-miterlimit="10"/>
<path d="M61.3701 155.429C62.7093 151.397 66.1797 141.461 71.5653 142.541C72.1557 146.587 66.4533 153.585 62.5653 154.305" fill="#97C56A"/>
<path d="M61.3701 155.429C62.7093 151.397 66.1797 141.461 71.5653 142.541C72.1557 146.587 66.4533 153.585 62.5653 154.305" stroke="#4D9C18" stroke-width="1.5874" stroke-miterlimit="10"/>
<path d="M63.9902 163.623C68.3678 159.706 73.235 157.949 79.1534 157.848C80.0174 166.647 70.1678 167.237 64.5374 164.789" fill="#97C56A"/>
<path d="M63.9902 163.623C68.3678 159.706 73.235 157.949 79.1534 157.848C80.0174 166.647 70.1678 167.237 64.5374 164.789" stroke="#4D9C18" stroke-width="1.5874" stroke-miterlimit="10"/>
<path d="M68.6846 178.829C71.7518 174.134 82.0478 170.851 82.0046 179.275C81.9758 185.626 72.731 187.973 69.6926 182.918" fill="#97C56A"/>
<path d="M68.6846 178.829C71.7518 174.134 82.0478 170.851 82.0046 179.275C81.9758 185.626 72.731 187.973 69.6926 182.918" stroke="#4D9C18" stroke-width="1.5874" stroke-miterlimit="10"/>
<path d="M61.8307 158.914C56.0995 158.986 45.5731 145.882 43.0387 153.658C40.8499 160.354 55.1059 168.014 58.8499 161.707" fill="#97C56A"/>
<path d="M61.8307 158.914C56.0995 158.986 45.5731 145.882 43.0387 153.658C40.8499 160.354 55.1059 168.014 58.8499 161.707" stroke="#4D9C18" stroke-width="1.5874" stroke-miterlimit="10"/>
<path d="M63.7457 171.139C60.5777 171.341 50.1521 175.963 53.5505 180.528C56.9057 185.05 64.7249 179.059 64.2065 174.638" fill="#97C56A"/>
<path d="M63.7457 171.139C60.5777 171.341 50.1521 175.963 53.5505 180.528C56.9057 185.05 64.7249 179.059 64.2065 174.638" stroke="#4D9C18" stroke-width="1.5874" stroke-miterlimit="10"/>
<path d="M70.9746 196.858C70.3986 192.725 69.405 189.183 65.373 187.411C63.3282 186.519 56.7186 185.957 55.0338 187.757C47.3874 195.907 66.3666 201.063 69.4482 203.568C69.8514 202.834 70.6434 201.711 70.845 200.904" fill="#97C56A"/>
<path d="M70.9746 196.858C70.3986 192.725 69.405 189.183 65.373 187.411C63.3282 186.519 56.7186 185.957 55.0338 187.757C47.3874 195.907 66.3666 201.063 69.4482 203.568C69.8514 202.834 70.6434 201.711 70.845 200.904" stroke="#4D9C18" stroke-width="1.5874" stroke-miterlimit="10"/>
<path d="M75.1221 211.474C76.3605 209.386 78.1461 207.384 79.8309 205.858C84.7269 203.496 79.7445 216.125 75.3957 220.747" fill="#97C56A"/>
<path d="M75.1221 211.474C76.3605 209.386 78.1461 207.384 79.8309 205.858C84.7269 203.496 79.7445 216.125 75.3957 220.747" stroke="#4D9C18" stroke-width="1.5874" stroke-miterlimit="10"/>
<path fill-rule="evenodd" clip-rule="evenodd" d="M925.526 98C929.256 99.1664 924.475 109.059 924.979 114.042C922.546 110.269 924.778 102.046 925.526 98Z" fill="#4D9C18"/>
<path fill-rule="evenodd" clip-rule="evenodd" d="M913.79 111.766C928.104 83.5712 915.403 112.645 915 114.402C914.424 116.85 912.969 113.379 913.79 111.766Z" fill="#4D9C18"/>
<path fill-rule="evenodd" clip-rule="evenodd" d="M937.061 104.811C938.271 107.259 935.305 114.704 933.418 117.526C931.129 113.912 935.578 108.051 937.061 104.811Z" fill="#4D9C18"/>
<path fill-rule="evenodd" clip-rule="evenodd" d="M947.314 118.001C948.063 120.32 942.533 125.417 936.413 124.064C940.042 122.019 944.261 120.622 947.314 118.001Z" fill="#4D9C18"/>
<path fill-rule="evenodd" clip-rule="evenodd" d="M928.364 299.283C924.447 273.291 932.482 237.925 927.082 210.421C923.223 190.794 913.618 177.272 917.305 151.237C917.261 148.587 918.673 149.466 918.37 151.28C918.313 153.066 918.255 154.837 918.197 156.622C918.082 160.179 917.953 163.75 917.837 167.307C921.812 187.712 932.295 214.496 931.316 243.742C930.754 260.36 930.409 292.314 928.335 300.363C928.407 300.018 928.292 299.629 928.364 299.283Z" fill="#4D9C18"/>
<path d="M922.373 142.568C925.729 143.403 934.354 130.832 931.661 140.207C930.466 150.143 922.762 148.083 920.012 144.224" fill="#97C56A"/>
<path d="M922.373 142.568C925.729 143.403 934.354 130.832 931.661 140.207C930.466 150.143 922.762 148.083 920.012 144.224" stroke="#4D9C18" stroke-width="1.5874" stroke-miterlimit="10"/>
<path d="M922.474 157.04C924.547 157.141 927.975 153.224 926.607 151.151C924 147.205 920.112 155.571 918.053 156.551C908.578 161.072 906.346 147.45 905.64 140.927C905.05 135.411 903.423 131.48 901.09 138.954C893.947 161.879 906.807 158.696 914.251 160.813" fill="#97C56A"/>
<path d="M922.474 157.04C924.547 157.141 927.975 153.224 926.607 151.151C924 147.205 920.112 155.571 918.053 156.551C908.578 161.072 906.346 147.45 905.64 140.927C905.05 135.411 903.423 131.48 901.09 138.954C893.947 161.879 906.807 158.696 914.251 160.813" stroke="#4D9C18" stroke-width="1.5874" stroke-miterlimit="10"/>
<path d="M920.227 137.859C915.23 136.765 916.123 129.45 918.398 126.325C918.686 126.368 919.637 126.368 919.939 126.354C920.861 129.723 920.385 133.251 920.27 136.707" fill="#97C56A"/>
<path d="M920.227 137.859C915.23 136.765 916.123 129.45 918.398 126.325C918.686 126.368 919.637 126.368 919.939 126.354C920.861 129.723 920.385 133.251 920.27 136.707" stroke="#4D9C18" stroke-width="1.5874" stroke-miterlimit="10"/>
<path d="M918.37 175.429C919.709 171.397 923.18 161.461 928.565 162.541C929.156 166.587 923.453 173.585 919.565 174.305" fill="#97C56A"/>
<path d="M918.37 175.429C919.709 171.397 923.18 161.461 928.565 162.541C929.156 166.587 923.453 173.585 919.565 174.305" stroke="#4D9C18" stroke-width="1.5874" stroke-miterlimit="10"/>
<path d="M920.99 183.623C925.368 179.706 930.235 177.949 936.153 177.848C937.017 186.647 927.168 187.237 921.537 184.789" fill="#97C56A"/>
<path d="M920.99 183.623C925.368 179.706 930.235 177.949 936.153 177.848C937.017 186.647 927.168 187.237 921.537 184.789" stroke="#4D9C18" stroke-width="1.5874" stroke-miterlimit="10"/>
<path d="M925.685 198.829C928.752 194.134 939.048 190.851 939.005 199.275C938.976 205.626 929.731 207.973 926.693 202.918" fill="#97C56A"/>
<path d="M925.685 198.829C928.752 194.134 939.048 190.851 939.005 199.275C938.976 205.626 929.731 207.973 926.693 202.918" stroke="#4D9C18" stroke-width="1.5874" stroke-miterlimit="10"/>
<path d="M918.831 178.914C913.099 178.986 902.573 165.882 900.039 173.658C897.85 180.354 912.106 188.014 915.85 181.707" fill="#97C56A"/>
<path d="M918.831 178.914C913.099 178.986 902.573 165.882 900.039 173.658C897.85 180.354 912.106 188.014 915.85 181.707" stroke="#4D9C18" stroke-width="1.5874" stroke-miterlimit="10"/>
<path d="M920.746 191.139C917.578 191.341 907.152 195.963 910.55 200.528C913.906 205.05 921.725 199.059 921.206 194.638" fill="#97C56A"/>
<path d="M920.746 191.139C917.578 191.341 907.152 195.963 910.55 200.528C913.906 205.05 921.725 199.059 921.206 194.638" stroke="#4D9C18" stroke-width="1.5874" stroke-miterlimit="10"/>
<path d="M927.975 216.858C927.399 212.725 926.405 209.183 922.373 207.411C920.328 206.519 913.719 205.957 912.034 207.757C904.387 215.907 923.367 221.063 926.448 223.568C926.851 222.834 927.643 221.711 927.845 220.904" fill="#97C56A"/>
<path d="M927.975 216.858C927.399 212.725 926.405 209.183 922.373 207.411C920.328 206.519 913.719 205.957 912.034 207.757C904.387 215.907 923.367 221.063 926.448 223.568C926.851 222.834 927.643 221.711 927.845 220.904" stroke="#4D9C18" stroke-width="1.5874" stroke-miterlimit="10"/>
<path d="M932.122 231.474C933.36 229.386 935.146 227.384 936.831 225.858C941.727 223.496 936.744 236.125 932.396 240.747" fill="#97C56A"/>
<path d="M932.122 231.474C933.36 229.386 935.146 227.384 936.831 225.858C941.727 223.496 936.744 236.125 932.396 240.747" stroke="#4D9C18" stroke-width="1.5874" stroke-miterlimit="10"/>
<path fill-rule="evenodd" clip-rule="evenodd" d="M1635.53 130C1639.26 131.166 1634.48 141.059 1634.98 146.042C1632.55 142.269 1634.78 134.046 1635.53 130Z" fill="#4D9C18"/>
<path fill-rule="evenodd" clip-rule="evenodd" d="M1623.79 143.767C1638.1 115.571 1625.4 144.645 1625 146.402C1624.42 148.85 1622.97 145.379 1623.79 143.767Z" fill="#4D9C18"/>
<path fill-rule="evenodd" clip-rule="evenodd" d="M1647.06 136.811C1648.27 139.259 1645.3 146.704 1643.42 149.526C1641.13 145.912 1645.58 140.051 1647.06 136.811Z" fill="#4D9C18"/>
<path fill-rule="evenodd" clip-rule="evenodd" d="M1657.31 150.002C1658.06 152.32 1652.53 157.418 1646.41 156.064C1650.04 154.02 1654.26 152.623 1657.31 150.002Z" fill="#4D9C18"/>
<path fill-rule="evenodd" clip-rule="evenodd" d="M1638.36 331.283C1634.45 305.291 1642.48 269.925 1637.08 242.421C1633.22 222.794 1623.62 209.272 1627.3 183.237C1627.26 180.587 1628.67 181.466 1628.37 183.28C1628.31 185.066 1628.26 186.837 1628.2 188.622C1628.08 192.179 1627.95 195.75 1627.84 199.307C1631.81 219.712 1642.3 246.496 1641.32 275.742C1640.75 292.36 1640.41 324.314 1638.34 332.363C1638.41 332.018 1638.29 331.629 1638.36 331.283Z" fill="#4D9C18"/>
<path d="M1632.37 174.568C1635.73 175.403 1644.35 162.832 1641.66 172.207C1640.47 182.143 1632.76 180.083 1630.01 176.224" fill="#97C56A"/>
<path d="M1632.37 174.568C1635.73 175.403 1644.35 162.832 1641.66 172.207C1640.47 182.143 1632.76 180.083 1630.01 176.224" stroke="#4D9C18" stroke-width="1.5874" stroke-miterlimit="10"/>
<path d="M1632.47 189.04C1634.55 189.141 1637.97 185.224 1636.61 183.151C1634 179.205 1630.11 187.571 1628.05 188.551C1618.58 193.072 1616.35 179.45 1615.64 172.927C1615.05 167.411 1613.42 163.48 1611.09 170.954C1603.95 193.879 1616.81 190.696 1624.25 192.813" fill="#97C56A"/>
<path d="M1632.47 189.04C1634.55 189.141 1637.97 185.224 1636.61 183.151C1634 179.205 1630.11 187.571 1628.05 188.551C1618.58 193.072 1616.35 179.45 1615.64 172.927C1615.05 167.411 1613.42 163.48 1611.09 170.954C1603.95 193.879 1616.81 190.696 1624.25 192.813" stroke="#4D9C18" stroke-width="1.5874" stroke-miterlimit="10"/>
<path d="M1630.23 169.859C1625.23 168.765 1626.12 161.45 1628.4 158.325C1628.69 158.368 1629.64 158.368 1629.94 158.354C1630.86 161.723 1630.39 165.251 1630.27 168.707" fill="#97C56A"/>
<path d="M1630.23 169.859C1625.23 168.765 1626.12 161.45 1628.4 158.325C1628.69 158.368 1629.64 158.368 1629.94 158.354C1630.86 161.723 1630.39 165.251 1630.27 168.707" stroke="#4D9C18" stroke-width="1.5874" stroke-miterlimit="10"/>
<path d="M1628.37 207.429C1629.71 203.397 1633.18 193.461 1638.57 194.541C1639.16 198.587 1633.45 205.586 1629.57 206.306" fill="#97C56A"/>
<path d="M1628.37 207.429C1629.71 203.397 1633.18 193.461 1638.57 194.541C1639.16 198.587 1633.45 205.586 1629.57 206.306" stroke="#4D9C18" stroke-width="1.5874" stroke-miterlimit="10"/>
<path d="M1630.99 215.623C1635.37 211.706 1640.24 209.949 1646.15 209.848C1647.02 218.647 1637.17 219.237 1631.54 216.789" fill="#97C56A"/>
<path d="M1630.99 215.623C1635.37 211.706 1640.24 209.949 1646.15 209.848C1647.02 218.647 1637.17 219.237 1631.54 216.789" stroke="#4D9C18" stroke-width="1.5874" stroke-miterlimit="10"/>
<path d="M1635.68 230.829C1638.75 226.134 1649.05 222.851 1649 231.275C1648.98 237.626 1639.73 239.973 1636.69 234.918" fill="#97C56A"/>
<path d="M1635.68 230.829C1638.75 226.134 1649.05 222.851 1649 231.275C1648.98 237.626 1639.73 239.973 1636.69 234.918" stroke="#4D9C18" stroke-width="1.5874" stroke-miterlimit="10"/>
<path d="M1628.83 210.914C1623.1 210.986 1612.57 197.882 1610.04 205.658C1607.85 212.354 1622.11 220.014 1625.85 213.707" fill="#97C56A"/>
<path d="M1628.83 210.914C1623.1 210.986 1612.57 197.882 1610.04 205.658C1607.85 212.354 1622.11 220.014 1625.85 213.707" stroke="#4D9C18" stroke-width="1.5874" stroke-miterlimit="10"/>
<path d="M1630.75 223.139C1627.58 223.341 1617.15 227.963 1620.55 232.528C1623.91 237.05 1631.72 231.059 1631.21 226.638" fill="#97C56A"/>
<path d="M1630.75 223.139C1627.58 223.341 1617.15 227.963 1620.55 232.528C1623.91 237.05 1631.72 231.059 1631.21 226.638" stroke="#4D9C18" stroke-width="1.5874" stroke-miterlimit="10"/>
<path d="M1637.97 248.858C1637.4 244.725 1636.4 241.183 1632.37 239.411C1630.33 238.519 1623.72 237.957 1622.03 239.757C1614.39 247.907 1633.37 253.063 1636.45 255.568C1636.85 254.834 1637.64 253.711 1637.84 252.904" fill="#97C56A"/>
<path d="M1637.97 248.858C1637.4 244.725 1636.4 241.183 1632.37 239.411C1630.33 238.519 1623.72 237.957 1622.03 239.757C1614.39 247.907 1633.37 253.063 1636.45 255.568C1636.85 254.834 1637.64 253.711 1637.84 252.904" stroke="#4D9C18" stroke-width="1.5874" stroke-miterlimit="10"/>
<path d="M1642.12 263.474C1643.36 261.386 1645.15 259.384 1646.83 257.858C1651.73 255.496 1646.74 268.125 1642.4 272.747" fill="#97C56A"/>
<path d="M1642.12 263.474C1643.36 261.386 1645.15 259.384 1646.83 257.858C1651.73 255.496 1646.74 268.125 1642.4 272.747" stroke="#4D9C18" stroke-width="1.5874" stroke-miterlimit="10"/>
</svg>
