<svg width="1131" height="299" viewBox="0 0 1131 299" fill="none" xmlns="http://www.w3.org/2000/svg">
<path d="M204.12 51.47C204.12 78.51 182.2 100.42 155.17 100.42C128.13 100.42 106.22 78.5 106.22 51.47C106.22 24.44 128.14 2.52002 155.17 2.52002C182.21 2.52002 204.12 24.43 204.12 51.47Z" fill="#FBF8D0"/>
<path d="M4.38979 66.49C-1.73021 63.19 1.17979 56.67 5.36979 53.85C8.36979 51.83 12.9298 52.39 15.3398 51.49C18.3498 50.38 19.0698 48.36 21.9398 47.03C26.8898 44.73 31.7098 48.59 36.7598 46.74C44.1998 44.02 42.1498 41.19 49.4498 45.06C51.6098 46.21 51.6598 47.34 54.3398 48.27C56.8298 49.13 60.0998 48.58 62.5898 49.46C67.0698 51.04 72.9898 54.8 71.8898 60.43C70.5998 67.03 63.0498 64.24 58.5498 66.66C56.7698 67.62 57.5898 70.17 55.0398 71.4C52.8498 72.46 48.6998 72.2 46.2498 71.94C42.8898 71.59 38.7098 71 38.0198 67.27C34.4898 68.61 27.1598 71.24 24.6698 67.43C21.6698 71.95 2.90979 71.19 2.37979 65.83" fill="white"/>
<path d="M44.6997 96.9C42.9397 75.5 78.2297 74.42 92.3397 73.7C96.1097 47.08 118.83 70.67 133.15 68.5C142.52 67.08 156.37 59.34 165.72 64.28C168.75 65.88 171.49 71.43 174.42 72.28C177.68 73.22 182.37 70.5 185.36 69.95C191.81 72.82 193 75.93 199.91 76.82C205.33 77.52 212.93 75.5 217.46 80.76C224.12 88.49 226.54 109.07 217.26 115.8C204.45 125.1 184.32 119.54 171.23 116.2C160.82 113.54 150.09 115.47 138.82 108.91C130.23 123.44 97.6497 134.02 93.1297 111.48C85.5897 116.7 67.1797 116.55 59.9597 110.62C56.1397 107.48 42.9097 101.32 44.8197 97.66" fill="white"/>
<path d="M829.07 298.38C823.49 300.28 818.72 296.87 814.19 294.61C805.45 290.24 798.09 293.82 787.92 294.46C774.05 295.33 772.33 283.5 782.84 276.06C791.36 270.01 801.92 274.22 811.16 275C813.58 271.03 819.72 268.72 824.43 271.25C827.54 272.92 826.84 275.68 829.02 277.28C832.54 279.86 832.75 278.81 836.85 279.77C841.41 280.84 849.63 279.9 851.49 285.92C853.33 291.86 846.1 294.05 842.22 292.92C842.22 292.92 832.09 293.7 829.07 298.38Z" fill="white"/>
<path d="M898.82 65.79C885.45 52.62 917.7 49.14 925.95 53.9C938.32 36.69 938.7 45.25 953.87 48.13C964.46 50.14 974.95 46.88 985.9 49.58C1025.92 59.43 983.07 96.69 971.58 74.46C964.72 78.1 942.36 87.92 939.8 76.72C911.48 94.56 898.82 65.79 898.82 65.79Z" fill="white"/>
<path d="M1025.89 87.99C1020.67 92.65 1014.37 104.26 1019.44 110.88C1022.55 114.94 1033.39 116.82 1038.23 116.86C1041.99 116.89 1045.71 114.95 1049.43 114.67C1053.65 114.35 1055.44 115.48 1059.53 116.14C1065.88 117.16 1074.15 112.16 1073.88 111.04C1079.58 110.82 1087.22 115.08 1092.61 113.22C1097.07 111.68 1097.99 106.86 1102.85 105.85C1112.86 103.78 1124.13 107.49 1128.67 94.65C1140.23 61.96 1094.54 76.61 1080.18 79.58C1070.55 81.57 1059.89 84.98 1050.02 85.69C1044.3 86.1 1038.67 84.76 1033.08 85.65C1033.1 85.66 1028.26 85.87 1025.89 87.99Z" fill="white"/>
<path d="M258.24 33.13C237.03 19.9 258.56 11.59 273.58 8.19002C279.06 6.95002 283.66 4.48002 289.18 3.11002C297.11 1.13002 300.17 5.74002 307.16 6.52002C314.34 7.32002 321.87 -0.329979 328.68 0.690021C335.76 1.75002 332.2 7.45003 337.14 11.05C341.99 14.59 349.63 10.64 355.4 11.84C361.89 13.19 369.1 16.88 373.13 22.14C371.26 28.76 360.92 29 355.23 29.7C348.37 30.54 346.99 30.89 342.14 33.99C336.83 37.39 336.14 39.04 327.56 37.23C321.71 36 315.66 33.7 312.13 29.19C300.15 35.78 292.79 34.81 279.71 34.85C274.9 34.87 260.04 34.92 259.08 33.13" fill="white"/>
</svg>
