<svg width="111" height="82" viewBox="0 0 111 82" fill="none" xmlns="http://www.w3.org/2000/svg">
<path id="Vector" fill-rule="evenodd" clip-rule="evenodd" d="M53.1505 32.6724L41.588 46.6307L38.1794 43.5466L55.463 22.7778L72.8206 43.665L69.338 46.6944L57.7755 32.6816V68.3333H53.1505V32.6724ZM85.5625 77.4445H25.4375C13.9629 77.4445 4.625 68.2513 4.625 56.9444C4.625 47.0224 11.8169 38.5491 21.7283 36.7907L25.3311 36.1529L25.53 32.5586C26.3856 16.851 39.5484 4.55556 55.5 4.55556C71.4516 4.55556 84.6144 16.851 85.4608 32.5586L85.6642 36.1529L89.2718 36.7907C99.1785 38.5491 106.375 47.0224 106.375 56.9444C106.375 68.2513 97.0371 77.4445 85.5625 77.4445ZM90.0858 32.308C89.1052 14.309 74.0277 0 55.5 0C36.9722 0 21.8901 14.309 20.9096 32.308C9.02338 34.4172 0 44.6353 0 56.9444C0 70.7797 11.3914 82 25.4375 82H85.5625C99.6086 82 111 70.7797 111 56.9444C111 44.6353 101.977 34.4172 90.0858 32.308Z" fill="#0E103B"/>
</svg>
