<svg width="59" height="57" viewBox="0 0 59 57" fill="none" xmlns="http://www.w3.org/2000/svg">
<g id="TABLETTE &#226;&#128;&#148; btn ok ">
<path id="Vector" d="M29.4026 0C45.5367 0 58.6382 12.7712 58.6382 28.4986C58.6382 44.2288 45.5367 57 29.4026 57C13.2655 57 0.164062 44.2288 0.164062 28.4986C0.164062 12.7712 13.2655 0 29.4026 0ZM14.6371 29.6075L25.8991 39.3854C26.3144 39.7503 26.8379 39.9271 27.3584 39.9271C27.9491 39.9271 28.5428 39.6962 28.9727 39.2372L46.3819 20.6819C46.765 20.2743 46.9551 19.7611 46.9551 19.2509C46.9551 18.0821 45.9871 17.1214 44.7676 17.1214C44.171 17.1214 43.5832 17.3551 43.1474 17.8141L27.2005 34.8101L17.5557 26.4347C17.1346 26.0726 16.617 25.893 16.0964 25.893C14.8828 25.893 13.9089 26.848 13.9089 28.0197C13.9089 28.6041 14.1546 29.1856 14.6371 29.6075Z" fill="#94C11F"/>
</g>
</svg>
