<svg width="59" height="57" viewBox="0 0 59 57" fill="none" xmlns="http://www.w3.org/2000/svg">
<g id="TABLETTE &#226;&#128;&#148; btn recommencer">
<path id="Exclude" fill-rule="evenodd" clip-rule="evenodd" d="M28.8623 0C13.1222 0 0.362305 12.7599 0.362305 28.5C0.362305 44.2401 13.1222 57 28.8623 57H30.3364C46.0765 57 58.8364 44.2401 58.8364 28.5C58.8364 12.7599 46.0765 0 30.3364 0H28.8623ZM37.5773 21.0456C35.5326 19.0188 32.7211 17.7545 29.5994 17.7545C23.3493 17.7545 18.2818 22.7752 18.2818 28.9676C18.2818 35.1601 23.3493 40.1807 29.5994 40.1807C33.9397 40.1807 37.7056 37.7568 39.6032 34.2032L37.9838 33.2258C36.4173 36.2412 33.2512 38.3119 29.5994 38.3119C24.399 38.3119 20.1681 34.1201 20.1681 28.9676C20.1681 23.8152 24.399 19.6234 29.5994 19.6234C32.1958 19.6234 34.5452 20.6709 36.2503 22.3594L33.9029 24.6852L40.917 25.5878L39.9163 18.7282L37.5773 21.0456Z" fill="#E3254E"/>
</g>
</svg>
