<svg width="35" height="35" viewBox="0 0 35 35" fill="none" xmlns="http://www.w3.org/2000/svg">
<path id="Vector" fill-rule="evenodd" clip-rule="evenodd" d="M17.5 14.8475L31.7975 0.5475C32.1625 0.1825 32.645 0 33.125 0C34.135 0 35 0.809999 35 1.8725C35 2.355 34.8175 2.835 34.4525 3.2025L20.1525 17.5L34.45 31.7975C34.8175 32.165 35 32.645 35 33.125C35 34.1925 34.1275 35 33.125 35C32.645 35 32.1625 34.8175 31.7975 34.4525L17.5 20.155L3.2025 34.4525C2.8375 34.8175 2.355 35 1.875 35C0.8725 35 0 34.1925 0 33.125C0 32.645 0.182499 32.165 0.549999 31.7975L14.8475 17.5L0.5475 3.2025C0.1825 2.835 0 2.355 0 1.8725C0 0.809999 0.865 0 1.875 0C2.355 0 2.8375 0.1825 3.2025 0.5475L17.5 14.8475Z" fill="#F5F8E0"/>
</svg>
