<svg width="134" height="162" viewBox="0 0 134 162" fill="none" xmlns="http://www.w3.org/2000/svg">
<path d="M105.816 103.119C103.87 100.519 101.87 97.9437 99.9439 95.3094C98.8263 93.7797 97.2812 92.9342 95.1746 92.7468C94.5647 92.6906 81.3712 92.996 81.0163 92.5403C79.0059 89.9766 73.1523 96.8348 71.2804 94.1756C68.1329 89.7082 60.4974 88.0459 53.2738 93.6082C40.7996 103.218 28.1355 112.573 15.5543 122.033C10.9892 125.471 10.0806 129.192 12.8802 132.916C18.9756 140.99 25.06 149.064 31.1548 157.127C33.7754 160.597 37.7442 160.731 42.0648 157.471C49.5173 151.853 56.9698 146.234 64.4223 140.616C71.8748 134.997 79.3278 129.39 86.7797 123.76C91.0146 120.549 108.392 106.58 105.816 103.119Z" fill="#81BE71"/>
<path d="M86.757 123.761C91.0139 120.549 108.391 106.58 105.815 103.119C103.869 100.519 101.869 97.9439 99.9431 95.3095C98.8256 93.7799 97.2805 92.9344 95.1629 92.7476C94.553 92.6913 81.3595 92.9967 81.004 92.5301C78.9936 89.9663 73.1406 96.8355 71.2686 94.1763C68.1211 89.7089 60.4857 88.0466 53.2621 93.609C40.7879 103.219 28.1238 112.573 15.5426 122.034C10.9774 125.472 10.0689 129.192 12.8685 132.917C18.9638 140.991 25.0482 149.065 31.1546 157.139C33.7753 160.608 37.7325 160.731 42.0641 157.471C49.5172 151.864 56.9691 146.234 64.4216 140.616C71.863 134.998 79.3161 129.39 86.757 123.761Z" stroke="black" stroke-width="2.4199" stroke-miterlimit="10"/>
<path d="M42.0548 157.472C37.7342 160.731 33.766 160.608 31.1447 157.128C25.0499 149.065 18.9545 140.991 12.8701 132.917C10.0601 129.204 10.9687 125.483 15.5442 122.034C28.1249 112.562 40.8 103.207 53.2637 93.6089C60.4874 88.0466 68.1228 89.7089 71.2703 94.1763C73.1423 96.8355 78.9958 89.9773 81.0062 92.541C81.3612 92.9967 94.5553 92.7023 95.1646 92.7475C97.2822 92.9343 98.8163 93.7804 99.9338 95.3101C101.86 97.9444 103.86 100.52 105.806 103.12C108.393 106.58 91.0046 120.55 86.7477 123.762C79.3068 129.391 71.8427 134.999 64.3902 140.617C56.9603 146.246 49.5073 151.853 42.0548 157.472Z" stroke="black" stroke-width="1.8149" stroke-miterlimit="10"/>
<path d="M104.312 98.4441C105.297 99.7601 106.303 101.053 107.277 102.381C107.741 103.018 108.124 103.163 108.706 102.692C111.28 100.627 114.038 99.3461 111.958 96.5103C110.389 94.3646 108.745 92.278 107.176 90.1323C106.677 89.4526 106.272 89.2973 105.646 89.7823C103.124 91.7784 98.2239 90.2926 100.221 93.0335C100.851 93.8939 103.672 97.6063 104.312 98.4441Z" fill="#AF3034" stroke="black" stroke-width="2.4199" stroke-miterlimit="10"/>
<path d="M111.513 93.3024C112.509 94.6068 113.547 95.8869 114.467 97.2394C114.91 97.889 115.558 97.833 117.054 96.6848C123.608 91.6097 131.059 87.017 129.032 84.1453C127.506 81.9753 111.727 70.4273 110.201 68.2573C109.927 67.8746 103.037 68.8644 103.205 73.7526C103.339 77.5618 110.635 85.3962 109.994 85.9923C107.648 88.1998 107.681 87.9775 109.604 90.7664C110.212 91.6279 110.873 92.4536 111.513 93.3024Z" fill="white"/>
<path d="M111.513 93.3022C112.508 94.6066 113.547 95.8868 114.467 97.2392C114.91 97.8888 115.558 97.8328 117.054 96.6846C123.608 91.6095 131.059 87.0168 129.032 84.1451C127.506 81.9751 111.727 70.4272 110.2 68.2572C109.712 67.5659 104.942 70.4739 103.372 71.6812C100.975 73.5274 108.463 80.8003 109.561 83.6435C110.954 87.2653 106.731 87.1337 107.937 88.8683C108.545 89.7408 110.873 92.4534 111.513 93.3022Z" stroke="black" stroke-width="2.4558" stroke-miterlimit="10"/>
<path d="M22.0682 131.354C20.3732 129.965 19.9977 128.275 20.8872 126.508C21.9955 123.439 24.4408 121.667 26.6013 119.304C24.4909 120.517 22.0551 121.417 20.4444 123.321C18.0191 125.897 17.4169 129.987 21.1153 131.702C21.9805 132.208 22.9443 132.488 23.8976 132.78C23.2878 132.305 22.6369 131.886 22.0682 131.354Z" fill="black"/>
<path d="M60.4326 107.031C51.4377 112.487 43.4804 119.423 35.7258 126.436C45.1212 122.304 53.5067 114.905 60.4326 107.031Z" fill="black"/>
<path d="M62.2812 107.353C64.1862 112.327 68.2999 116.49 71.9267 119.994C70.5587 114.948 66.3547 110.536 62.2812 107.353Z" fill="black"/>
<path d="M72.5397 122.014C62.8788 126.976 54.5513 134.427 47.3572 142.238C57.0297 137.076 64.6864 130.091 72.5397 122.014Z" fill="black"/>
<path d="M35.8652 132.439C37.8165 135.139 38.9641 136.821 41.4437 139.283C42.5063 140.396 45.3578 142.585 46.8639 144.161C45.9459 139.488 39.9303 134.41 35.8652 132.439Z" fill="black"/>
<path d="M63.8707 100.334L27.4492 127.8L42.6554 147.943L79.0769 120.477L63.8707 100.334Z" fill="#FFFBD1" stroke="black" stroke-width="0.1647" stroke-miterlimit="10"/>
<path d="M63.8707 100.334L27.4492 127.8L42.6554 147.943L79.0769 120.477L63.8707 100.334Z" stroke="black" stroke-width="2.5569" stroke-miterlimit="10"/>
<path d="M106.297 63.1721L98.9609 68.7059L103.03 74.0948L110.366 68.561L106.297 63.1721Z" fill="#AF3034" stroke="black" stroke-width="2.4558" stroke-miterlimit="10" stroke-linejoin="round"/>
<path fill-rule="evenodd" clip-rule="evenodd" d="M8.01028 89.8924C14.5463 91.8439 15.6065 99.8619 23.1118 100.726C18.1501 110.284 5.49276 102.289 8.01028 89.8924Z" fill="white"/>
<path fill-rule="evenodd" clip-rule="evenodd" d="M57.6932 66.9505C66.7179 65.0106 92.2614 41.9883 93.8685 63.5988C91.2839 61.8703 91.7132 56.7963 87.6889 56.6543C79.512 56.6637 74.9018 59.8722 72.1221 64.7384C79.2705 65.952 94.0017 61.2977 95.7766 72.2119C95.3579 76.4361 93.063 78.9718 88.904 79.8405C84.4809 75.8811 92.6536 76.2138 92.8712 72.3642C90.9016 66.3682 83.4575 66.4605 75.1681 67.4795C74.023 74.2674 72.8437 81.0351 68.8269 85.2493C61.6345 79.6152 60.0217 84.8504 48.4571 84.8609C42.3873 101.491 19.9757 103.416 10.9062 117.347C0.180214 101.564 3.25045 72.55 21.3766 67.3979C5.68984 57.6098 -13.7974 4.99531 24.4424 14.925C55.4662 -18.2889 66.2524 36.5462 57.6932 66.9505ZM53.3542 11.9539C45.0433 1.82339 29.8539 8.68557 27.5645 19.118C23.126 39.2917 41.0838 68.196 50.8961 76.0199C53.0014 60.6008 65.8273 27.1715 53.3542 11.9539ZM3.36858 29.1103C2.16879 50.6473 28.7039 71.6021 43.5681 74.9591C34.3718 59.0956 25.2908 43.1157 24.5836 17.8294C12.2423 8.07547 3.79277 21.4116 3.36858 29.1103ZM42.7334 86.6168C44.3162 84.8132 44.1045 81.4052 43.7301 77.8403C36.0475 77.1731 31.3783 73.1494 25.8753 70.0628C29.4819 77.8149 33.2658 85.3703 42.7334 86.6168ZM35.9368 95.6971C28.5071 89.116 22.7883 80.6474 14.504 75.0264C9.36863 84.4278 24.7036 99.716 35.9368 95.6971ZM23.1123 100.726C15.596 99.8624 14.5357 91.8445 8.01072 89.8923C5.4932 102.289 18.1506 110.284 23.1123 100.726Z" fill="black"/>
<path fill-rule="evenodd" clip-rule="evenodd" d="M50.8947 76.0201C41.0714 68.1967 23.1246 39.2918 27.5631 19.1182C29.8524 8.68575 45.0419 1.82357 53.3528 11.9541C65.8259 27.1717 53 60.601 50.8947 76.0201Z" fill="white"/>
<path fill-rule="evenodd" clip-rule="evenodd" d="M24.5833 17.8292C25.2899 43.1046 34.3825 59.0949 43.5678 74.959C28.6932 71.6136 2.16855 50.6471 3.36833 29.1101C3.79253 21.4115 12.2421 8.07534 24.5833 17.8292Z" fill="white"/>
<path fill-rule="evenodd" clip-rule="evenodd" d="M25.8633 70.0632C31.3668 73.1608 36.0355 77.1735 43.718 77.8407C44.0925 81.4056 44.3042 84.8136 42.7213 86.6172C33.2647 85.3701 29.4809 77.8148 25.8633 70.0632Z" fill="white"/>
<path fill-rule="evenodd" clip-rule="evenodd" d="M14.491 75.0273C22.7863 80.6476 28.5051 89.1162 35.9238 95.698C24.7016 99.7162 9.36662 84.4281 14.491 75.0273Z" fill="white"/>
<path fill-rule="evenodd" clip-rule="evenodd" d="M8.01028 89.8924C14.5463 91.8439 15.6065 99.8619 23.1118 100.726C18.1501 110.284 5.49276 102.289 8.01028 89.8924Z" fill="#F0B357"/>
<path fill-rule="evenodd" clip-rule="evenodd" d="M72.7321 64.8279C72.6128 64.6577 72.5046 64.4869 72.3749 64.3283C75.1783 59.7034 79.7422 56.6628 87.6763 56.6551C91.7001 56.7861 91.2713 61.8711 93.8559 63.5996C92.7222 48.2841 79.5647 55.3817 68.7839 61.5055C67.4275 60.8927 65.91 60.5752 64.3252 60.6583C62.1902 60.7701 60.2577 61.5883 58.7237 62.8489C65.7226 31.9418 59.2836 -16.8014 24.4298 14.9258C-13.799 4.99554 5.67728 57.6106 21.3641 67.3987C3.23789 72.5508 0.167654 101.564 10.8937 117.348C19.9631 103.417 42.3747 101.492 48.4445 84.8617C60.0092 84.8512 65.1617 78.7246 68.8144 85.2501C72.5111 77.6667 79.7308 73.9243 75.1555 67.4803C83.4449 66.4613 90.8891 66.369 92.8586 72.365C92.6405 76.2036 84.4678 75.8709 88.8914 79.8413C93.051 78.9836 95.3454 76.4369 95.764 72.2127C94.0383 61.6047 80.0833 65.7 72.7321 64.8279ZM24.582 17.8296C25.2886 43.1049 34.3812 59.0952 43.5665 74.9593C28.6919 71.6139 3.72894 50.1245 4.92873 28.5875M8.00917 89.8926C14.5452 91.8441 15.6054 99.8621 23.1107 100.726C18.149 110.284 5.49165 102.289 8.00917 89.8926ZM14.4915 75.0272C22.7868 80.6476 28.5056 89.1162 35.9243 95.6979C24.7021 99.7162 9.36707 84.4281 14.4915 75.0272ZM42.7318 86.617C33.2642 85.3705 29.4798 77.8042 25.8738 70.063C31.3773 73.1606 36.046 77.1733 43.7285 77.8405C44.1036 81.4164 44.3043 84.825 42.7318 86.617ZM27.5629 19.1182C29.8523 8.6858 45.0417 1.82362 53.3527 11.9542C65.8252 27.1607 52.9998 60.6011 50.8945 76.0201C41.0712 68.1968 23.1245 39.2919 27.5629 19.1182Z" fill="black"/>
<path fill-rule="evenodd" clip-rule="evenodd" d="M50.8947 76.0201C41.0714 68.1967 23.1246 39.2918 27.5631 19.1182C29.8524 8.68575 45.0419 1.82357 53.3528 11.9541C65.8259 27.1717 53 60.601 50.8947 76.0201Z" fill="white"/>
<path fill-rule="evenodd" clip-rule="evenodd" d="M24.582 17.8293C25.2887 43.1046 34.3812 59.095 43.5665 74.9591C28.6919 71.6136 4.01384 50.5063 5.21363 28.9693C5.64883 21.2701 8.97157 10.7615 24.582 17.8293Z" fill="white"/>
<path fill-rule="evenodd" clip-rule="evenodd" d="M25.8633 70.0632C31.3668 73.1608 36.0355 77.1735 43.718 77.8407C44.0925 81.4056 44.3042 84.8136 42.7213 86.6172C33.2647 85.3701 29.4809 77.8148 25.8633 70.0632Z" fill="#F0B357"/>
<path fill-rule="evenodd" clip-rule="evenodd" d="M14.491 75.0273C22.7863 80.6476 28.5051 89.1162 35.9238 95.698C24.7016 99.7162 9.36662 84.4281 14.491 75.0273Z" fill="#F0B357"/>
<path fill-rule="evenodd" clip-rule="evenodd" d="M43.9275 88.363C42.7519 99.2003 40.2707 109.764 31.3931 118.932C30.745 116.252 32.8319 114.169 35.052 112.1C32.8319 104.904 39.185 99.5747 37.679 92.5287L43.9275 88.363ZM53.9547 80.2824C51.4397 89.359 57.0844 100.203 46.3983 107.502C50.0555 100.428 48.6449 92.2518 49.3656 84.5266L53.9547 80.2824Z" fill="black"/>
<path fill-rule="evenodd" clip-rule="evenodd" d="M69.2254 71.3975C69.867 74.3749 68.8081 77.1216 66.8769 77.5426C64.9451 77.9527 62.861 75.8781 62.2304 72.9002C61.5888 69.9228 62.6477 67.1761 64.5789 66.7551C66.5102 66.334 68.5838 68.4202 69.2254 71.3975Z" fill="white"/>
<path fill-rule="evenodd" clip-rule="evenodd" d="M65.5887 70.6508C67.2792 69.4261 69.9765 72.2517 68.4723 74.2937C65.8742 75.4666 63.9093 71.8748 65.5887 70.6508Z" fill="black"/>
<path fill-rule="evenodd" clip-rule="evenodd" d="M55.2433 80.4574C60.1047 80.357 61.7168 86.9012 63.7404 89.9275C62.2388 88.6496 59.482 89.7426 57.5596 89.6999C57.5516 87.0202 55.0833 83.3003 53.7505 81.032" fill="black"/>
<path d="M42.5844 135.689L40.8262 140.04L45.1794 141.797L46.9376 137.446L42.5844 135.689Z" fill="white" stroke="#DA3832" stroke-width="0.651" stroke-miterlimit="10"/>
</svg>
