<svg width="86" height="86" viewBox="0 0 86 86" fill="none" xmlns="http://www.w3.org/2000/svg">
<path d="M51.6121 77.3878C70.604 72.6314 82.1442 53.3797 77.3879 34.3878C72.6315 15.3959 53.3798 3.85566 34.3879 8.612C15.396 13.3683 3.85578 32.6201 8.61212 51.612C13.3685 70.6039 32.6202 82.1441 51.6121 77.3878Z" fill="url(#paint0_linear_1885_113)"/>
<path d="M33.1697 52.2427H52.827" stroke="#444444" stroke-width="4.37" stroke-linecap="round" stroke-linejoin="round"/>
<path d="M28.4253 41.1743C30.1144 41.1743 31.4838 39.8049 31.4838 38.1157C31.4838 36.4265 30.1144 35.0571 28.4253 35.0571C26.7361 35.0571 25.3667 36.4265 25.3667 38.1157C25.3667 39.8049 26.7361 41.1743 28.4253 41.1743Z" fill="#444444"/>
<path d="M56.2124 41.1743C57.9016 41.1743 59.2709 39.8049 59.2709 38.1157C59.2709 36.4265 57.9016 35.0571 56.2124 35.0571C54.5232 35.0571 53.1538 36.4265 53.1538 38.1157C53.1538 39.8049 54.5232 41.1743 56.2124 41.1743Z" fill="#444444"/>
<defs>
<linearGradient id="paint0_linear_1885_113" x1="73.7066" y1="25.2749" x2="12.289" y2="60.7315" gradientUnits="userSpaceOnUse">
<stop stop-color="#F0C766"/>
<stop offset="0.36" stop-color="#F0C766"/>
<stop offset="0.95" stop-color="#EAAF65"/>
<stop offset="1" stop-color="#EAAD65"/>
</linearGradient>
</defs>
</svg>
