<svg width="94" height="94" viewBox="0 0 94 94" fill="none" xmlns="http://www.w3.org/2000/svg">
<path d="M60.5942 79.1391C78.5773 71.398 86.8802 50.5444 79.1392 32.5613C71.3981 14.5781 50.5445 6.27526 32.5614 14.0163C14.5782 21.7574 6.27536 42.6109 14.0164 60.5941C21.7575 78.5772 42.611 86.8801 60.5942 79.1391Z" fill="url(#paint0_linear_1885_119)"/>
<path d="M28.3486 42.6133C28.3486 42.6133 29.4129 44.8463 32.7102 44.8463C36.0075 44.8463 36.7764 42.6133 36.7764 42.6133" stroke="#444444" stroke-width="4.37" stroke-linecap="round" stroke-linejoin="round"/>
<path d="M56.4126 42.6133C56.4126 42.6133 57.4768 44.8463 60.7741 44.8463C64.0714 44.8463 64.8404 42.6133 64.8404 42.6133" stroke="#444444" stroke-width="4.37" stroke-linecap="round" stroke-linejoin="round"/>
<path d="M56.5726 59.8073C56.5726 59.8073 54.5364 54.8245 46.9144 54.8245C39.2925 54.8245 37.4224 59.8073 37.4224 59.8073" stroke="#444444" stroke-width="4.37" stroke-linecap="round" stroke-linejoin="round"/>
<path d="M65.4803 47.4241L68.1686 54.8615C68.7407 56.4363 67.9225 58.1711 66.3477 58.7432C64.7729 59.3153 63.0381 58.4971 62.466 56.9223C62.2138 56.2333 62.2322 55.5013 62.466 54.8615L65.1543 47.4241C65.185 47.338 65.2835 47.2888 65.3696 47.3195C65.4188 47.338 65.4557 47.3749 65.4742 47.4241H65.4803Z" fill="#91B5E6"/>
<defs>
<linearGradient id="paint0_linear_1885_119" x1="77.2866" y1="28.8461" x2="15.8688" y2="64.3028" gradientUnits="userSpaceOnUse">
<stop stop-color="#F0C766"/>
<stop offset="0.36" stop-color="#F0C766"/>
<stop offset="0.95" stop-color="#EAAF65"/>
<stop offset="1" stop-color="#EAAD65"/>
</linearGradient>
</defs>
</svg>
