<?xml version="1.0" encoding="UTF-8" standalone="no" ?>
<!DOCTYPE svg PUBLIC "-//W3C//DTD SVG 1.1//EN" "http://www.w3.org/Graphics/SVG/1.1/DTD/svg11.dtd">
<svg xmlns="http://www.w3.org/2000/svg" xmlns:xlink="http://www.w3.org/1999/xlink" version="1.1" width="1080" height="1080" viewBox="0 0 1080 1080" xml:space="preserve">
<desc>Created with Fabric.js 5.2.4</desc>
<defs>
</defs>
<g transform="matrix(1 0 0 1 540 540)" id="059fbaae-1c45-439b-b45d-80c948d1c659"  >
<rect style="stroke: none; stroke-width: 1; stroke-dasharray: none; stroke-linecap: butt; stroke-dashoffset: 0; stroke-linejoin: miter; stroke-miterlimit: 4; fill: rgb(255,255,255); fill-rule: nonzero; opacity: 1; visibility: hidden;" vector-effect="non-scaling-stroke"  x="-540" y="-540" rx="0" ry="0" width="1080" height="1080" />
</g>
<g transform="matrix(1 0 0 1 540 540)" id="c3603108-2bbc-45a5-8f8b-c471346c5acd"  >
</g>
<g transform="matrix(NaN NaN NaN NaN 0 0)"  >
<g style=""   >
</g>
</g>
<g transform="matrix(43.2 0 0 43.2 540 540)"  >
<path style="stroke: none; stroke-width: 1; stroke-dasharray: none; stroke-linecap: butt; stroke-dashoffset: 0; stroke-linejoin: miter; stroke-miterlimit: 4; fill: rgb(14,16,59); fill-rule: nonzero; opacity: 1;"  transform=" translate(-12.42, -13)" d="M 24.824 20.9596 L 17.7188 13.8544 C 20.6709 7.73149 16.2084 0.500244 9.31777 0.500244 C 4.18027 0.500244 -0.000976562 4.68149 -0.000976562 9.82003 C -0.000976562 16.5992 7.01882 21.068 13.1251 18.3263 L 20.2907 25.4919 C 22.3292 25.6627 24.999 23.069 24.824 20.9596 Z M 9.31777 16.0419 C 5.88757 16.0419 3.0959 13.2502 3.0959 9.82003 C 3.0959 6.38983 5.88757 3.59816 9.31777 3.59816 C 12.749 3.59816 15.5407 6.38983 15.5407 9.82003 C 15.5407 13.2502 12.749 16.0419 9.31777 16.0419 Z" stroke-linecap="round" />
</g>
<g transform="matrix(43.2 0 0 43.2 540 540)"  >
<path style="stroke: none; stroke-width: 1; stroke-dasharray: none; stroke-linecap: butt; stroke-dashoffset: 0; stroke-linejoin: miter; stroke-miterlimit: 4; fill: rgb(188,188,188); fill-rule: nonzero; opacity: 1;"  transform=" translate(-12.42, -13)" d="M 24.824 20.9596 L 17.7188 13.8544 C 20.6709 7.73149 16.2084 0.500244 9.31777 0.500244 C 4.18027 0.500244 -0.000976562 4.68149 -0.000976562 9.82003 C -0.000976562 16.5992 7.01882 21.068 13.1251 18.3263 L 20.2907 25.4919 C 22.3292 25.6627 24.999 23.069 24.824 20.9596 Z M 9.31777 16.0419 C 5.88757 16.0419 3.0959 13.2502 3.0959 9.82003 C 3.0959 6.38983 5.88757 3.59816 9.31777 3.59816 C 12.749 3.59816 15.5407 6.38983 15.5407 9.82003 C 15.5407 13.2502 12.749 16.0419 9.31777 16.0419 Z" stroke-linecap="round" />
</g>
</svg>