<svg width="40" height="40" viewBox="0 0 40 40" fill="none" xmlns="http://www.w3.org/2000/svg">
<rect width="40" height="40" rx="20" fill="#E7F39A"/>
<path d="M12.481 23.659C11.147 27.575 11.001 27.891 11.001 28.246C11.001 28.774 11.461 28.995 11.75 28.995C12.102 28.995 12.418 28.858 16.324 27.503L12.481 23.659ZM13.541 22.598L17.387 26.444L28.708 15.133C28.903 14.938 29.001 14.683 29.001 14.426C29.001 14.171 28.903 13.916 28.708 13.72C28.016 13.029 26.966 11.98 26.273 11.288C26.078 11.093 25.822 10.995 25.566 10.995C25.312 10.995 25.056 11.093 24.86 11.288L13.541 22.598Z" fill="#0E103B"/>
</svg>
