<svg width="24" height="24" viewBox="0 0 24 24" fill="none" xmlns="http://www.w3.org/2000/svg">
<path fill-rule="evenodd" clip-rule="evenodd" d="M12 0C5.37258 0 0 5.37258 0 12C0 18.6274 5.37258 24 12 24C18.6274 24 24 18.6274 24 12C24 5.37258 18.6274 0 12 0ZM17.3922 5.60649L12 10.9996L6.6078 5.60649C6.47014 5.46883 6.28817 5.4 6.10714 5.4C5.72623 5.4 5.4 5.70549 5.4 6.1062C5.4 6.28817 5.46883 6.4692 5.60649 6.6078L10.9996 12L5.60743 17.3922C5.46883 17.5308 5.4 17.7118 5.4 17.8929C5.4 18.2955 5.72906 18.6 6.10714 18.6C6.28817 18.6 6.47014 18.5312 6.6078 18.3935L12 13.0013L17.3922 18.3935C17.5299 18.5312 17.7118 18.6 17.8929 18.6C18.2709 18.6 18.6 18.2955 18.6 17.8929C18.6 17.7118 18.5312 17.5308 18.3926 17.3922L13.0004 12L18.3935 6.6078C18.5312 6.4692 18.6 6.28817 18.6 6.1062C18.6 5.70549 18.2738 5.4 17.8929 5.4C17.7118 5.4 17.5299 5.46883 17.3922 5.60649Z" fill="#0E103B"/>
</svg>
