<svg width="24" height="24" viewBox="0 0 24 24" fill="none" xmlns="http://www.w3.org/2000/svg">
<path d="M12.0006 0C18.6227 0 24 5.37734 24 11.9994C24 18.6227 18.6227 24 12.0006 24C5.37734 24 0 18.6227 0 11.9994C0 5.37734 5.37734 0 12.0006 0ZM5.94028 12.4663L10.5626 16.5833C10.7331 16.737 10.9479 16.8114 11.1616 16.8114C11.4041 16.8114 11.6477 16.7142 11.8242 16.5209L18.9695 8.70818C19.1268 8.53654 19.2048 8.32048 19.2048 8.10563C19.2048 7.6135 18.8075 7.209 18.307 7.209C18.0621 7.209 17.8209 7.30743 17.642 7.50068L11.0968 14.6569L7.13818 11.1304C6.96534 10.9779 6.75289 10.9023 6.53923 10.9023C6.04111 10.9023 5.64141 11.3044 5.64141 11.7978C5.64141 12.0438 5.74224 12.2887 5.94028 12.4663Z" fill="#0E103B"/>
</svg>
