<svg width="18" height="19" viewBox="0 0 18 19" fill="none" xmlns="http://www.w3.org/2000/svg">
<g id="iconmonstr-angel-right-thin 1" clip-path="url(#clip0_857_15458)">
<g id="Vector">
<mask id="path-1-inside-1_857_15458" fill="white">
<path fill-rule="evenodd" clip-rule="evenodd" d="M3 1.06625L13.7805 9.5L3 17.9142L3.46425 18.5L15 9.5L3.45675 0.5L3 1.06625Z"/>
</mask>
<path fill-rule="evenodd" clip-rule="evenodd" d="M3 1.06625L13.7805 9.5L3 17.9142L3.46425 18.5L15 9.5L3.45675 0.5L3 1.06625Z" fill="black"/>
<path d="M3 1.06625L-0.89174 -2.07292L-4.07804 1.87726L-0.0808246 5.00434L3 1.06625ZM13.7805 9.5L16.8569 13.4415L21.901 9.50456L16.8613 5.56191L13.7805 9.5ZM3 17.9142L-0.0763998 13.9727L-4.04744 17.0721L-0.918499 21.0199L3 17.9142ZM3.46425 18.5L-0.454249 21.6057L2.62776 25.4943L6.53986 22.4422L3.46425 18.5ZM15 9.5L18.0756 13.4422L23.1301 9.49872L18.0744 5.55687L15 9.5ZM3.45675 0.5L6.53112 -3.44313L2.65268 -6.46706L-0.434989 -2.63917L3.45675 0.5ZM-0.0808246 5.00434L10.6997 13.4381L16.8613 5.56191L6.08082 -2.87184L-0.0808246 5.00434ZM10.7041 5.55846L-0.0763998 13.9727L6.0764 21.8558L16.8569 13.4415L10.7041 5.55846ZM-0.918499 21.0199L-0.454249 21.6057L7.38275 15.3943L6.9185 14.8086L-0.918499 21.0199ZM6.53986 22.4422L18.0756 13.4422L11.9244 5.55784L0.388642 14.5578L6.53986 22.4422ZM18.0744 5.55687L6.53112 -3.44313L0.382385 4.44313L11.9256 13.4431L18.0744 5.55687ZM-0.434989 -2.63917L-0.89174 -2.07292L6.89174 4.20542L7.34849 3.63917L-0.434989 -2.63917Z" fill="black" mask="url(#path-1-inside-1_857_15458)"/>
</g>
</g>
<defs>
<clipPath id="clip0_857_15458">
<rect width="18" height="18" fill="white" transform="translate(0 0.5)"/>
</clipPath>
</defs>
</svg>
