<svg width="38" height="38" viewBox="0 0 38 38" fill="none" xmlns="http://www.w3.org/2000/svg">
<path fill-rule="evenodd" clip-rule="evenodd" d="M19 38C29.4934 38 38 29.4934 38 19C38 8.50659 29.4934 0 19 0C8.50659 0 0 8.50659 0 19C0 29.4934 8.50659 38 19 38ZM26.414 10.9378L19.3333 18.0197L12.2527 10.9378C12.0719 10.757 11.833 10.6667 11.5952 10.6667C11.095 10.6667 10.6667 11.0678 10.6667 11.594C10.6667 11.833 10.757 12.0707 10.9378 12.2527L18.0197 19.3333L10.939 26.414C10.757 26.596 10.6667 26.8337 10.6667 27.0714C10.6667 27.6001 11.0988 28 11.5952 28C11.833 28 12.0719 27.9096 12.2527 27.7289L19.3333 20.6482L26.414 27.7289C26.5948 27.9096 26.8337 28 27.0714 28C27.5679 28 28 27.6001 28 27.0714C28 26.8337 27.9096 26.596 27.7276 26.414L20.647 19.3333L27.7289 12.2527C27.9096 12.0707 28 11.833 28 11.594C28 11.0678 27.5716 10.6667 27.0714 10.6667C26.8337 10.6667 26.5948 10.757 26.414 10.9378Z" fill="#E3254E"/>
</svg>
