<svg width="38" height="38" viewBox="0 0 38 38" fill="none" xmlns="http://www.w3.org/2000/svg">
<path fill-rule="evenodd" clip-rule="evenodd" d="M19 38C29.4934 38 38 29.4934 38 19C38 8.50659 29.4934 0 19 0C8.50659 0 0 8.50659 0 19C0 29.4934 8.50659 38 19 38ZM26 11.5692C26 12.785 25.5371 13.98 24.6989 14.9325L21.9977 17.9992C21.5016 18.5633 21.4981 19.3533 21.9899 19.9208L24.7286 23.0825C25.5476 24.0292 26 25.2108 26 26.4108V29H12V26.4108C12 25.2108 12.4515 24.0283 13.2705 23.0817L16.0093 19.92C16.501 19.3525 16.4975 18.5625 16.0014 17.9983L13.3011 14.9317C12.462 13.9792 12 12.785 12 11.5692V9H26V11.5692ZM23.3785 24.1417L20.6397 20.98C19.6195 19.8033 19.6265 18.0983 20.6564 16.9275L23.3575 13.8608C23.9324 13.2075 24.25 12.4167 24.25 11.4992H13.75C13.75 12.4142 14.065 13.2067 14.6425 13.8608L17.3428 16.9283C18.3735 18.0992 18.3805 19.8033 17.3594 20.9817L14.6215 24.1425C14.0501 24.8008 13.75 25.58 13.75 26.5H14.6775C15.3714 24.8192 19 22.3333 19 22.3333C19 22.3333 22.6277 24.8192 23.3216 26.5H24.25C24.25 25.58 23.949 24.8017 23.3785 24.1417Z" fill="#12A19A"/>
</svg>
