<svg width="38" height="38" viewBox="0 0 38 38" fill="none" xmlns="http://www.w3.org/2000/svg">
<path d="M19.0009 0C29.4859 0 38 8.51413 38 18.9991C38 29.4859 29.4859 38 19.0009 38C8.51413 38 0 29.4859 0 18.9991C0 8.51413 8.51413 0 19.0009 0ZM9.40545 19.7383L16.7242 26.257C16.994 26.5002 17.3342 26.6181 17.6725 26.6181C18.0564 26.6181 18.4422 26.4641 18.7216 26.1581L30.0351 13.7879C30.2841 13.5162 30.4076 13.1741 30.4076 12.8339C30.4076 12.0547 29.7785 11.4143 28.986 11.4143C28.5984 11.4143 28.2164 11.5701 27.9332 11.8761L17.5699 23.2067L11.3021 17.6231C11.0285 17.3817 10.6921 17.262 10.3538 17.262C9.56509 17.262 8.93223 17.8987 8.93223 18.6798C8.93223 19.0694 9.09187 19.4571 9.40545 19.7383Z" fill="#94C11F"/>
</svg>
